<?xml version="1.0" encoding="utf-8"?>
<!-- Generator: Adobe Illustrator 27.9.0, SVG Export Plug-In . SVG Version: 6.00 Build 0)  -->
<svg version="1.1" id="Capa_1" xmlns="http://www.w3.org/2000/svg" xmlns:xlink="http://www.w3.org/1999/xlink" x="0px" y="0px"
	 viewBox="0 0 800 800" style="enable-background:new 0 0 800 800;" xml:space="preserve">
<style type="text/css">
	.st0{fill:#22B573;}
	.st1{fill:#E4ECF9;}
	.st2{fill:#153E51;}
	.st3{fill:#ACC5EA;}
	.st4{fill:#FFFFFF;}
	.st5{fill:#00723B;}
	.st6{fill:#808080;}
</style>
<g>
	<path class="st0" d="M707.6,435c-0.9,8.6-8.8,12.9-15.5,16.8c-6.2,3.6-12.5,7.3-18.7,10.9c-10,5.8-19.9,11.6-29.9,17.3
		c-12.5,7.3-24.9,14.5-37.4,21.7c-13.7,8-27.5,16-41.3,24c-13.8,8-27.7,16.1-41.6,24.1c-12.7,7.4-25.4,14.8-38.1,22.2
		c-10.4,6-20.7,12-31.1,18c-6.8,3.9-13.6,7.9-20.4,11.8c-5.2,3-10,5.9-15.9,7.7c-15.2,4.4-32.1,2.9-45.9-5.1
		c-4.9-2.9-9.9-5.7-14.8-8.6c-9.1-5.2-18-10.4-27.1-15.6c-11.9-6.9-23.8-13.8-35.6-20.5c-13.5-7.8-27.1-15.6-40.6-23.4
		c-14-8-28-16.2-42-24.2c-13.2-7.7-26.4-15.2-39.7-22.9l-33.8-19.5c-8-4.7-16.2-9.3-24.2-14c-3.7-2.1-7.3-4.2-11-6.4
		c-5.8-3.4-11.5-8.7-11.5-15.9c0,6.6,0,13.1-0.1,19.8c0,2.3-0.2,4.8,0,7.2c0.5,6.3,5.5,11.3,10.7,14.4c3.2,2,6.5,3.7,9.8,5.6
		c8.4,4.8,16.9,9.8,25.3,14.6c12.2,7,24.3,14.1,36.5,21.1c14.5,8.4,29,16.7,43.4,25.1c15.1,8.8,30.2,17.4,45.3,26.2
		c14.4,8.3,28.7,16.6,43,24.8c12,6.9,23.8,13.7,35.8,20.6c8,4.7,16.2,9.3,24.2,14c4.7,2.7,9.3,5.7,14.4,7.6
		c15.9,5.8,34.5,4.5,49.1-4c5.5-3.2,11.1-6.5,16.6-9.7c10.2-5.9,20.5-11.9,30.6-17.8c13.4-7.7,26.6-15.5,40-23.3
		c14.9-8.7,29.8-17.3,44.7-26l44.8-26c13.4-7.8,26.7-15.5,40.2-23.4c10.4-6,20.8-12,31.2-18.1c5.7-3.4,11.5-6.6,17.2-10
		c1.7-1,3.5-2,5.2-3.2c4.4-3.3,7.8-7.8,7.9-13.5c0.1-2.9,0-5.7,0-8.6c0-5.7,0-11.5,0.1-17.2C707.6,434.1,707.6,434.6,707.6,435
		C707.6,435.1,707.6,434.8,707.6,435L707.6,435z"/>
	<path class="st1" d="M696.5,418.2c14.8,8.6,14.9,22.6,0.2,31.2L427.6,605.7c-14.8,8.6-38.9,8.6-53.8,0L103,449.3
		c-14.8-8.6-14.9-22.6-0.2-31.2l269.1-156.4c14.8-8.6,38.9-8.6,53.8,0L696.5,418.2L696.5,418.2z"/>
	<path d="M459.3,231.8c0.2,0,0.2-0.1,0.3-0.1h0.3c0.1,0,0.2,0.1,0.3,0.1l-12.5-7.3c0,0-0.1,0-0.1-0.1c0,0-0.1,0-0.1-0.1h-0.4h-0.1
		H447c-0.1,0-0.2,0-0.2,0.1h-0.1h-0.1h-0.1c-0.1,0.1-0.2,0.1-0.3,0.2L228.7,350.4l12.5,7.3L458.8,232
		C459,231.9,459.1,231.9,459.3,231.8L459.3,231.8z M239.4,485.8l-0.4-124.5l-12.5-7.3l0.4,124.5c0,3.8,1.3,6.3,3.4,7.6l12.5,7.3
		C240.8,492.1,239.4,489.5,239.4,485.8z M239.3,360.3c0.1-0.4,0.2-0.7,0.5-1c0.2-0.3,0.4-0.6,0.6-0.9c0.2-0.2,0.5-0.5,0.8-0.6
		l-12.5-7.3c-0.2,0.2-0.5,0.3-0.7,0.5l-0.1,0.1l-0.1,0.1c-0.1,0.1-0.2,0.2-0.2,0.2c-0.1,0.1-0.1,0.2-0.2,0.2
		c-0.1,0.1-0.1,0.2-0.2,0.2c0,0.1-0.1,0.2-0.1,0.2c0,0.1-0.1,0.1-0.1,0.2s-0.1,0.2-0.1,0.2c0,0.1-0.1,0.2-0.1,0.2
		c0,0.1-0.1,0.2-0.1,0.2c0,0.1-0.1,0.2-0.1,0.2v0.2c0,0.1-0.1,0.2-0.1,0.2s0,0.2-0.1,0.3v0.4l12.5,7.3
		C239.1,361,239.1,360.7,239.3,360.3L239.3,360.3z"/>
	<path class="st2" d="M458.8,232c1.2-0.7,2.1-0.2,2.1,1.2l0.4,124.5c0,7.5-5.3,16.6-11.8,20.5L251.3,492.5
		c-6.5,3.8-11.9,0.7-11.9-6.8l-0.4-124.5c0-1.3,0.9-3,2.1-3.7L458.8,232z"/>
	<path d="M450.9,171.7c0.3-0.1,0.5-0.2,0.9-0.3c0.2-0.1,0.4-0.1,0.5-0.2c0.2-0.1,0.3-0.1,0.5-0.1c0.2-0.1,0.4-0.1,0.6-0.1h1.3
		c0.3,0,0.6,0.1,0.9,0.1c0.1,0,0.2,0,0.2,0.1c0.2,0.1,0.5,0.1,0.6,0.2c0.1,0,0.2,0.1,0.2,0.1c0.2,0.1,0.5,0.2,0.8,0.4l-12.5-7.3
		h-0.1c-0.2-0.1-0.4-0.2-0.6-0.3c0,0-0.1,0-0.1-0.1c-0.1,0-0.2-0.1-0.2-0.1c-0.1,0-0.2-0.1-0.3-0.1c-0.1,0-0.2-0.1-0.3-0.1
		c-0.1,0-0.2,0-0.2-0.1H443c-0.2-0.1-0.5-0.1-0.7-0.1h-1.7c-0.1,0-0.2,0.1-0.3,0.1s-0.3,0.1-0.5,0.1c-0.1,0-0.2,0-0.2,0.1
		c-0.1,0-0.2,0.1-0.2,0.1c-0.3,0.1-0.5,0.2-0.9,0.3c-0.1,0-0.2,0.1-0.3,0.1c-0.1,0-0.1,0.1-0.2,0.1c-0.5,0.2-0.9,0.5-1.5,0.7
		l-30.2,17.4l12.5,7.3l30.2-17.4c0.5-0.3,1-0.5,1.5-0.7C450.6,171.8,450.8,171.7,450.9,171.7L450.9,171.7z"/>
	<path d="M402.6,161.5C402.6,161.5,402.5,161.5,402.6,161.5c-0.2-0.2-0.5-0.2-0.7-0.3c0,0-0.1,0-0.2-0.1c-0.1,0-0.2-0.1-0.2-0.1
		s-0.2-0.1-0.3-0.1c-0.1,0-0.2-0.1-0.3-0.1c-0.1,0-0.2,0-0.2-0.1h-0.2c-0.2-0.1-0.5-0.1-0.8-0.1H398c-0.1,0-0.2,0.1-0.3,0.1
		c-0.2,0-0.3,0.1-0.5,0.1c-0.1,0-0.2,0-0.3,0.1c-0.1,0-0.2,0.1-0.2,0.1c-0.3,0.1-0.5,0.2-0.9,0.3c-0.1,0.1-0.2,0.1-0.3,0.1
		s-0.1,0.1-0.2,0.1c-0.5,0.2-1,0.5-1.6,0.8l-1.2,0.7c-0.2,0.1-0.2,0.2-0.4,0.2c-0.2,0.2-0.5,0.4-0.8,0.5c-0.2,0.1-0.3,0.2-0.4,0.3
		c-0.2,0.2-0.5,0.4-0.7,0.6c-0.2,0.2-0.3,0.2-0.4,0.4l-0.2,0.2c-0.1,0.1-0.2,0.2-0.2,0.3l-0.9,0.9l-0.2,0.2l-0.2,0.2
		c-0.2,0.2-0.3,0.4-0.5,0.6c-0.1,0.2-0.2,0.2-0.3,0.4c-0.1,0.1-0.2,0.2-0.2,0.3c-0.2,0.2-0.2,0.3-0.3,0.5c-0.1,0.1-0.2,0.2-0.2,0.3
		c-0.2,0.2-0.2,0.4-0.4,0.5c-0.1,0.2-0.2,0.2-0.2,0.4c0,0.1-0.1,0.1-0.1,0.2c-0.2,0.3-0.5,0.7-0.6,1v0.1c-0.1,0.1-0.1,0.2-0.2,0.2
		c-0.2,0.2-0.3,0.5-0.4,0.8c-0.1,0.1-0.2,0.2-0.2,0.3c-0.1,0.2-0.2,0.2-0.2,0.4c-0.1,0.1-0.1,0.2-0.2,0.3c-0.2,0.3-0.2,0.5-0.4,0.9
		c0,0.1-0.1,0.2-0.1,0.2v0.1c-0.2,0.4-0.3,0.7-0.5,1.1c0,0.1-0.1,0.2-0.1,0.2c-0.1,0.2-0.1,0.2-0.2,0.4c-0.1,0.2-0.2,0.4-0.2,0.5
		c-0.1,0.2-0.1,0.3-0.2,0.4c-0.1,0.2-0.1,0.3-0.2,0.5c0,0.1-0.1,0.2-0.1,0.3c-0.1,0.2-0.1,0.4-0.2,0.5c-0.1,0.2-0.1,0.4-0.2,0.6
		c0,0.1-0.1,0.2-0.1,0.2c0,0.2-0.1,0.3-0.1,0.5c-0.1,0.3-0.2,0.6-0.2,0.9c0,0.1,0,0.2-0.1,0.3v0.2c-0.1,0.7-0.2,1.4-0.2,2.1v13.3
		l12.5,7.3v-13.3c0-0.7,0.1-1.4,0.2-2.1c0-0.2,0-0.4,0.1-0.5c0.1-0.3,0.1-0.6,0.2-0.9c0.1-0.2,0.1-0.5,0.2-0.7
		c0.1-0.2,0.1-0.4,0.2-0.6c0.1-0.3,0.2-0.5,0.2-0.9c0.1-0.2,0.1-0.3,0.2-0.5c0.1-0.3,0.2-0.6,0.3-1c0.1-0.2,0.1-0.2,0.2-0.4
		c0.2-0.5,0.4-0.9,0.5-1.3c0-0.1,0.1-0.2,0.1-0.2c0.2-0.4,0.4-0.8,0.5-1.2c0.1-0.2,0.2-0.2,0.2-0.4c0.2-0.4,0.4-0.7,0.6-1.1
		c0.1-0.1,0.1-0.2,0.2-0.2c0.2-0.4,0.5-0.9,0.8-1.2c0.1-0.2,0.2-0.2,0.2-0.3c0.2-0.3,0.4-0.6,0.6-0.9c0.1-0.2,0.2-0.3,0.3-0.5
		c0.2-0.2,0.4-0.5,0.5-0.7c0.2-0.2,0.3-0.4,0.5-0.6c0.2-0.2,0.3-0.4,0.5-0.5c0.2-0.3,0.5-0.6,0.8-0.9l0.5-0.5
		c0.2-0.2,0.3-0.2,0.4-0.4c0.2-0.2,0.5-0.4,0.7-0.6c0.2-0.1,0.3-0.2,0.4-0.3c0.2-0.2,0.5-0.4,0.8-0.5c0.2-0.1,0.2-0.2,0.4-0.2
		c0.4-0.2,0.8-0.5,1.2-0.8c0.5-0.3,1-0.5,1.6-0.8c0.2-0.1,0.3-0.2,0.5-0.2c0.3-0.1,0.5-0.2,0.9-0.3c0.2-0.1,0.4-0.1,0.5-0.2
		s0.3-0.1,0.5-0.1c0.2-0.1,0.5-0.1,0.6-0.1h1.3c0.3,0,0.6,0.1,0.9,0.1c0.1,0,0.2,0,0.2,0.1l0.7,0.2c0.1,0,0.2,0.1,0.2,0.1
		c0.3,0.1,0.5,0.2,0.8,0.4L402.6,161.5L402.6,161.5z M305.6,255.3l-12.5-7.3l88.4-51l12.5,7.3L305.6,255.3z"/>
	<path d="M281.2,253.6c0.1-0.3,0.1-0.6,0.2-0.9c0.1-0.2,0.1-0.5,0.2-0.7c0.1-0.2,0.1-0.4,0.2-0.6c0.1-0.3,0.2-0.5,0.2-0.9
		c0.1-0.2,0.1-0.3,0.2-0.5c0.1-0.3,0.2-0.6,0.3-1c0.1-0.2,0.1-0.2,0.2-0.4c0.2-0.5,0.4-0.9,0.5-1.3c0-0.1,0.1-0.1,0.1-0.2
		c0.2-0.4,0.4-0.8,0.5-1.2c0.1-0.2,0.2-0.2,0.2-0.4c0.2-0.4,0.4-0.7,0.6-1.1c0.1-0.1,0.1-0.2,0.2-0.2c0.2-0.4,0.5-0.9,0.8-1.2
		c0.1-0.2,0.2-0.2,0.2-0.3c0.2-0.3,0.4-0.6,0.6-0.9c0.1-0.2,0.2-0.3,0.3-0.5c0.2-0.2,0.4-0.5,0.5-0.7c0.2-0.2,0.3-0.4,0.5-0.6
		c0.2-0.2,0.3-0.4,0.5-0.5c0.2-0.3,0.5-0.6,0.8-0.9l0.5-0.5c0.2-0.2,0.3-0.2,0.4-0.4c0.2-0.2,0.5-0.4,0.7-0.6
		c0.2-0.1,0.3-0.2,0.4-0.3c0.2-0.2,0.5-0.4,0.8-0.5c0.2-0.1,0.2-0.2,0.4-0.2c0.4-0.2,0.8-0.5,1.2-0.8c0.5-0.3,1-0.5,1.6-0.8
		c0.2-0.1,0.3-0.2,0.5-0.2c0.3-0.1,0.5-0.2,0.9-0.3c0.2-0.1,0.4-0.1,0.5-0.2c0.2-0.1,0.3-0.1,0.5-0.1c0.2-0.1,0.5-0.1,0.6-0.1h1.3
		c0.3,0,0.6,0.1,0.9,0.1c0.1,0,0.2,0,0.2,0.1l0.7,0.2c0.1,0,0.2,0.1,0.2,0.1c0.3,0.1,0.5,0.2,0.8,0.4l-12.5-7.3h-0.1
		c-0.2-0.1-0.4-0.2-0.6-0.3c0,0-0.1,0-0.2-0.1c-0.1,0-0.2-0.1-0.2-0.1s-0.2-0.1-0.3-0.1c-0.1,0-0.2-0.1-0.3-0.1
		c-0.1,0-0.2,0-0.2-0.1h-0.2c-0.2-0.1-0.5-0.1-0.8-0.1h-1.8c-0.1,0-0.2,0.1-0.3,0.1c-0.2,0-0.3,0.1-0.5,0.1c-0.1,0-0.2,0-0.3,0.1
		c-0.1,0-0.2,0.1-0.2,0.1c-0.3,0.1-0.5,0.2-0.9,0.3c-0.1,0.1-0.2,0.1-0.3,0.1c-0.1,0-0.1,0.1-0.2,0.1c-0.5,0.2-1,0.5-1.6,0.8
		c-0.4,0.2-0.8,0.5-1.2,0.8c-0.2,0.1-0.2,0.2-0.4,0.2c-0.2,0.2-0.5,0.4-0.8,0.5c-0.2,0.1-0.3,0.2-0.4,0.3c-0.2,0.2-0.5,0.4-0.7,0.6
		c-0.2,0.2-0.3,0.2-0.4,0.4l-0.2,0.2c-0.1,0.1-0.2,0.2-0.2,0.3c-0.3,0.3-0.5,0.5-0.8,0.9c-0.1,0.1-0.2,0.2-0.2,0.3l-0.2,0.2
		c-0.2,0.2-0.3,0.4-0.5,0.6c-0.1,0.2-0.2,0.2-0.3,0.4c-0.1,0.1-0.2,0.2-0.2,0.3c-0.2,0.2-0.2,0.3-0.3,0.5c-0.1,0.1-0.2,0.2-0.2,0.3
		c-0.2,0.2-0.2,0.4-0.4,0.5c-0.1,0.2-0.2,0.2-0.2,0.4c0,0.1-0.1,0.1-0.1,0.2c-0.2,0.3-0.5,0.7-0.6,1c0,0,0,0.1-0.1,0.1
		c-0.1,0.1-0.1,0.2-0.2,0.2c-0.2,0.2-0.3,0.5-0.4,0.8c-0.1,0.1-0.1,0.2-0.2,0.3c-0.1,0.2-0.2,0.2-0.2,0.4c-0.1,0.1-0.1,0.2-0.2,0.3
		c-0.2,0.3-0.2,0.5-0.4,0.9c0,0.1-0.1,0.2-0.1,0.2v0.1c-0.2,0.4-0.3,0.7-0.5,1.1c0,0.1-0.1,0.2-0.1,0.2c-0.1,0.2-0.1,0.2-0.2,0.4
		c-0.1,0.2-0.2,0.4-0.2,0.5c-0.1,0.2-0.1,0.3-0.2,0.4c-0.1,0.2-0.1,0.3-0.2,0.5c0,0.1-0.1,0.2-0.1,0.3c-0.1,0.2-0.1,0.4-0.2,0.5
		c-0.1,0.2-0.1,0.4-0.2,0.6c0,0.1-0.1,0.2-0.1,0.2c0,0.2-0.1,0.3-0.1,0.5c-0.1,0.3-0.2,0.6-0.2,0.9c0,0.1,0,0.2-0.1,0.3v0.2
		c-0.1,0.7-0.2,1.4-0.2,2.1v13.3l12.5,7.3v-13.3c0-0.7,0.1-1.4,0.2-2.1C281.1,254,281.2,253.8,281.2,253.6L281.2,253.6z"/>
	<path class="st2" d="M406.3,169.7c6.8-3.9,12.3-0.7,12.3,7V190l30.2-17.4c6.5-3.8,11.9-0.7,11.9,6.7l0.1,39.6L239,347l-0.1-39.6
		c0-7.5,5.3-16.6,11.8-20.4l30.2-17.4v-13.3c0-7.8,5.5-17.3,12.3-21.3c6.8-3.9,12.3-0.8,12.3,7v13.3l88.4-51.1V191
		C394.1,183.2,399.5,173.6,406.3,169.7L406.3,169.7z"/>
	<path d="M268.5,262.3l-30.2,17.4c-0.6,0.4-1.2,0.8-1.8,1.2c-0.1,0.1-0.2,0.2-0.3,0.2c-0.5,0.5-1.1,0.9-1.6,1.5l-0.2,0.2l-0.2,0.2
		c-0.2,0.2-0.5,0.5-0.8,0.9l-0.2,0.2l-0.2,0.2c-0.2,0.2-0.3,0.4-0.5,0.5c-0.1,0.2-0.2,0.2-0.3,0.4c-0.1,0.1-0.2,0.2-0.2,0.3
		c-0.1,0.2-0.2,0.3-0.3,0.5c-0.1,0.1-0.2,0.2-0.2,0.3c-0.2,0.2-0.2,0.4-0.4,0.5c-0.1,0.1-0.2,0.2-0.2,0.3c0,0.1-0.1,0.1-0.1,0.2
		c-0.2,0.3-0.4,0.7-0.6,1v0.1c0,0.1-0.1,0.2-0.1,0.2c-0.2,0.2-0.3,0.5-0.4,0.8c-0.1,0.1-0.1,0.2-0.2,0.3c-0.1,0.2-0.2,0.2-0.2,0.4
		c-0.1,0.1-0.1,0.2-0.2,0.3c-0.2,0.2-0.2,0.5-0.4,0.8c0,0.1-0.1,0.2-0.1,0.2v0.1c-0.2,0.4-0.3,0.7-0.5,1.1c0,0.1-0.1,0.2-0.1,0.2
		c-0.1,0.2-0.1,0.2-0.2,0.4c-0.1,0.2-0.2,0.4-0.2,0.5c-0.1,0.2-0.1,0.2-0.2,0.4c-0.1,0.2-0.1,0.3-0.2,0.5c0,0.1-0.1,0.2-0.1,0.3
		c-0.1,0.2-0.1,0.3-0.2,0.5s-0.1,0.4-0.2,0.6c0,0.1-0.1,0.2-0.1,0.2c0,0.2-0.1,0.3-0.1,0.5c-0.1,0.3-0.1,0.6-0.2,0.9
		c0,0.1,0,0.2-0.1,0.2v0.2c-0.1,0.7-0.2,1.4-0.2,2l3.5,2l-3.5-2l0.1,39.6l12.5,7.3l-0.1-39.6c0-0.7,0.1-1.3,0.2-2
		c0-0.2,0-0.3,0.1-0.5c0.1-0.3,0.1-0.6,0.2-0.9c0.1-0.2,0.1-0.5,0.2-0.6c0.1-0.2,0.1-0.4,0.2-0.6c0.1-0.3,0.2-0.5,0.2-0.9
		c0.1-0.2,0.1-0.3,0.2-0.5c0.1-0.3,0.2-0.6,0.3-0.9c0.1-0.2,0.1-0.2,0.2-0.4c0.2-0.5,0.3-0.9,0.5-1.3c0-0.1,0.1-0.2,0.1-0.2
		c0.2-0.4,0.3-0.8,0.5-1.1c0.1-0.2,0.2-0.2,0.2-0.4c0.2-0.4,0.4-0.7,0.5-1.1c0-0.1,0.1-0.2,0.1-0.2c0.2-0.4,0.5-0.8,0.8-1.2
		c0.1-0.1,0.2-0.2,0.2-0.3c0.2-0.3,0.4-0.5,0.6-0.9c0.1-0.2,0.2-0.3,0.3-0.5c0.2-0.2,0.4-0.5,0.5-0.7c0.2-0.2,0.3-0.4,0.5-0.5
		s0.3-0.3,0.5-0.5c0.2-0.3,0.5-0.5,0.8-0.9l0.4-0.4c0.5-0.5,1.1-1,1.6-1.5c0.1-0.1,0.2-0.2,0.3-0.2c0.6-0.5,1.2-0.9,1.8-1.2
		l30.2-17.4L268.5,262.3L268.5,262.3z"/>
	<path d="M300.6,398.2c3.7-2.1,6.7-0.4,6.7,3.8v13c0,4.2-3,9.5-6.7,11.6l-25.4,14.6c-3.7,2.1-6.7,0.4-6.7-3.8v-13
		c0-4.2,3-9.5,6.7-11.6L300.6,398.2L300.6,398.2z M300.5,350.1c3.7-2.1,6.7-0.4,6.7,3.8v13c0,4.2-3,9.5-6.7,11.6l-25.4,14.6
		c-3.7,2.1-6.7,0.4-6.7-3.8v-13c0-4.2,3-9.5,6.7-11.6L300.5,350.1z M359,364.5c3.7-2.1,6.7-0.4,6.7,3.8v13c0,4.2-3,9.5-6.7,11.6
		l-25.3,14.7c-3.7,2.1-6.7,0.4-6.7-3.8v-13c0-4.2,3-9.5,6.6-11.6L359,364.5z M358.8,316.5c3.7-2.1,6.7-0.4,6.7,3.8v13
		c0,4.2-3,9.5-6.7,11.6l-25.4,14.6c-3.7,2.1-6.7,0.4-6.7-3.8v-13c0-4.2,3-9.5,6.6-11.6L358.8,316.5z M417.3,330.8
		c3.7-2.1,6.7-0.4,6.7,3.8v13c0,4.2-3,9.5-6.7,11.6l-25.4,14.6c-3.7,2.1-6.7,0.4-6.7-3.8v-13c0-4.2,3-9.5,6.7-11.6L417.3,330.8z
		 M417.2,282.8c3.7-2.1,6.7-0.4,6.7,3.8v13c0,4.2-3,9.5-6.7,11.6l-25.4,14.6c-3.7,2.1-6.7,0.4-6.7-3.8v-13c0-4.2,3-9.5,6.7-11.6
		L417.2,282.8z"/>
	<path class="st3" d="M308.7,403.8C308.7,403.8,308.7,403.7,308.7,403.8c-0.2-0.1-0.2-0.2-0.4-0.2c-0.1-0.1-0.2-0.1-0.4-0.2
		c-0.1,0-0.2,0-0.2-0.1h-0.1h-0.1c-0.2,0-0.2,0-0.4-0.1h-0.6h-0.3c-0.2,0-0.4,0.1-0.6,0.2c-0.1,0-0.2,0.1-0.2,0.1s-0.2,0.1-0.2,0.1
		c-0.1,0-0.2,0.1-0.3,0.1l-0.9,0.5l-25.4,14.6c-0.4,0.2-0.9,0.5-1.3,0.9c-0.2,0.1-0.2,0.2-0.4,0.3c-0.2,0.2-0.4,0.3-0.5,0.5
		c-0.1,0.1-0.2,0.2-0.2,0.3l-0.2,0.2l-0.2,0.2c-0.2,0.2-0.4,0.5-0.5,0.7c-0.1,0.1-0.2,0.2-0.2,0.2c0,0.1-0.1,0.1-0.1,0.2
		c-0.1,0.1-0.1,0.2-0.2,0.2c-0.2,0.2-0.2,0.4-0.4,0.5s-0.2,0.4-0.3,0.5v0.2l-0.2,0.5c-0.1,0.2-0.2,0.4-0.3,0.5l-0.2,0.5v0.1
		c-0.1,0.2-0.2,0.4-0.2,0.6s-0.2,0.4-0.2,0.6c0,0.1-0.1,0.2-0.1,0.3c0,0.1,0,0.1-0.1,0.2c0,0.1-0.1,0.2-0.1,0.2
		c-0.1,0.2-0.2,0.5-0.2,0.8c0,0.2-0.1,0.3-0.1,0.5c0,0.1,0,0.2-0.1,0.2c0,0.1,0,0.2-0.1,0.2c-0.1,0.5-0.1,0.9-0.1,1.3v13
		c0,2.1,0.8,3.6,2,4.3l9.1,5.3c-1.2-0.7-2-2.2-2-4.3v-13c0-0.5,0.1-1,0.2-1.6c0-0.1,0-0.2,0.1-0.2c0.1-0.5,0.2-0.9,0.3-1.5
		c0-0.1,0-0.1,0.1-0.2c0.2-0.5,0.4-1.1,0.5-1.6v-0.1c0.2-0.5,0.5-1,0.8-1.6V429l0.9-1.4c0-0.1,0.1-0.1,0.1-0.2
		c0.3-0.4,0.6-0.8,1-1.2l0.2-0.2c0.2-0.3,0.5-0.5,0.9-0.8c0.2-0.1,0.2-0.2,0.4-0.3c0.4-0.3,0.9-0.6,1.2-0.9l25.4-14.6
		c0.4-0.2,0.9-0.4,1.3-0.5c0.1,0,0.2-0.1,0.2-0.1c0.4-0.2,0.8-0.2,1.1-0.2h0.1c0.4,0,0.7,0,1.1,0.1h0.1c0.3,0.1,0.7,0.2,0.9,0.4
		L308.7,403.8L308.7,403.8z"/>
	<path class="st4" d="M313.1,409.5c3.7-2.1,6.7-0.4,6.7,3.8v13c0,4.2-3,9.5-6.7,11.6l-25.4,14.6c-3.7,2.1-6.7,0.4-6.7-3.8v-13
		c0-4.2,3-9.5,6.7-11.6L313.1,409.5L313.1,409.5z"/>
	<path class="st3" d="M273.8,399.7l9.1,5.3c-1.2-0.7-2-2.2-2-4.3v-13l-9.1-5.3v13C271.9,397.5,272.6,399,273.8,399.7L273.8,399.7z"
		/>
	<path class="st3" d="M308.6,355.8C308.6,355.7,308.6,355.7,308.6,355.8c-0.2-0.1-0.2-0.2-0.4-0.2c-0.1-0.1-0.2-0.1-0.4-0.2
		c-0.1,0-0.2,0-0.2-0.1h-0.1h-0.1c-0.2,0-0.2,0-0.4-0.1h-0.6h-0.3c-0.2,0-0.4,0.1-0.6,0.2c-0.1,0-0.2,0.1-0.2,0.1
		c-0.1,0-0.2,0.1-0.2,0.1s-0.2,0.1-0.3,0.1l-0.9,0.5l-25.4,14.6c-0.4,0.2-0.9,0.5-1.2,0.9c-0.2,0.1-0.2,0.2-0.4,0.3
		c-0.2,0.2-0.4,0.3-0.5,0.5c-0.1,0.1-0.2,0.2-0.2,0.3l-0.2,0.2l-0.2,0.2c-0.2,0.2-0.4,0.5-0.5,0.7c-0.1,0.1-0.2,0.2-0.2,0.2
		s-0.1,0.1-0.1,0.2c-0.1,0.1-0.1,0.2-0.2,0.2c-0.2,0.2-0.2,0.4-0.4,0.5c-0.2,0.2-0.2,0.4-0.3,0.5v0.2l-0.2,0.5
		c-0.1,0.2-0.2,0.4-0.3,0.5s-0.2,0.3-0.2,0.5v0.1c-0.1,0.2-0.2,0.4-0.2,0.6c-0.1,0.2-0.2,0.4-0.2,0.6c0,0.1-0.1,0.2-0.1,0.3
		s0,0.1-0.1,0.2c0,0.1-0.1,0.2-0.1,0.2c-0.1,0.2-0.2,0.5-0.2,0.8c0,0.2-0.1,0.3-0.1,0.5c0,0.1,0,0.2-0.1,0.2c0,0.1,0,0.2-0.1,0.2
		c-0.1,0.5-0.1,0.9-0.1,1.3l9.1,5.3c0-0.5,0.1-1,0.2-1.6c0-0.1,0-0.2,0.1-0.2c0.1-0.5,0.2-0.9,0.3-1.5c0-0.1,0-0.1,0.1-0.2
		c0.2-0.5,0.4-1.1,0.5-1.6c0.2-0.5,0.5-1.1,0.8-1.6v-0.1l0.9-1.4c0-0.1,0.1-0.1,0.1-0.2c0.3-0.4,0.6-0.8,1-1.2l0.2-0.2
		c0.2-0.3,0.5-0.5,0.9-0.8c0.2-0.1,0.2-0.2,0.4-0.3c0.4-0.3,0.9-0.6,1.2-0.9l25.4-14.6c0.4-0.2,0.9-0.4,1.2-0.5
		c0.1,0,0.2-0.1,0.2-0.1c0.4-0.2,0.8-0.2,1.1-0.2h0.1c0.4,0,0.7,0,1.1,0.1h0.1c0.3,0.1,0.7,0.2,0.9,0.4L308.6,355.8L308.6,355.8z"/>
	<path class="st4" d="M313,361.5c3.7-2.1,6.7-0.4,6.7,3.8v13c0,4.2-3,9.5-6.7,11.6l-25.4,14.6c-3.7,2.1-6.7,0.4-6.7-3.8v-13
		c0-4.2,3-9.5,6.7-11.6L313,361.5L313,361.5z"/>
	<path class="st3" d="M339.4,415.1l-9.1-5.3c0,2.1,0.8,3.6,2,4.3l9.1,5.3C340.1,418.7,339.4,417.2,339.4,415.1z M367.1,370.1
		C367,370,367,370,367.1,370.1c-0.2-0.1-0.2-0.2-0.4-0.2c-0.1-0.1-0.2-0.1-0.4-0.2c-0.1,0-0.2,0-0.2-0.1H366h-0.1
		c-0.2,0-0.2,0-0.4-0.1h-0.6h-0.3c-0.2,0-0.4,0.1-0.6,0.2c-0.1,0-0.2,0.1-0.2,0.1c-0.1,0-0.2,0.1-0.2,0.1c-0.1,0-0.2,0.1-0.3,0.1
		l-0.9,0.5l-25.4,14.6c-0.4,0.2-0.9,0.5-1.2,0.9c-0.2,0.1-0.2,0.2-0.4,0.3c-0.2,0.2-0.4,0.3-0.5,0.5c-0.1,0.1-0.2,0.2-0.2,0.3
		l-0.2,0.2l-0.2,0.2c-0.2,0.2-0.4,0.5-0.5,0.6c-0.1,0.1-0.2,0.2-0.2,0.2c0,0.1-0.1,0.1-0.1,0.2c-0.1,0.1-0.1,0.2-0.2,0.2
		c-0.2,0.2-0.2,0.4-0.4,0.5c-0.2,0.2-0.2,0.4-0.3,0.5v0.2l-0.2,0.5c-0.1,0.2-0.2,0.4-0.3,0.5c-0.1,0.2-0.2,0.3-0.2,0.5
		s-0.2,0.4-0.2,0.6c-0.1,0.2-0.2,0.4-0.2,0.6c0,0.1-0.1,0.2-0.1,0.3s0,0.1-0.1,0.2c0,0.1-0.1,0.2-0.1,0.2c-0.1,0.2-0.2,0.5-0.2,0.8
		c0,0.2-0.1,0.3-0.1,0.5c0,0.1,0,0.2-0.1,0.2c0,0.1,0,0.2-0.1,0.2c-0.1,0.5-0.1,0.9-0.1,1.3v13l9.1,5.3v-13c0-0.5,0.1-1,0.2-1.6
		c0-0.1,0-0.2,0.1-0.2c0.1-0.5,0.2-0.9,0.3-1.5c0-0.1,0-0.1,0.1-0.2c0.2-0.5,0.4-1.1,0.5-1.6c0.2-0.5,0.5-1.1,0.8-1.6v-0.1l0.9-1.4
		c0-0.1,0.1-0.1,0.1-0.2c0.3-0.4,0.6-0.8,1-1.2l0.2-0.2c0.2-0.3,0.5-0.5,0.9-0.8c0.2-0.1,0.2-0.2,0.4-0.3c0.4-0.3,0.9-0.6,1.2-0.9
		l25.4-14.6c0.4-0.2,0.9-0.4,1.2-0.5c0.1,0,0.2-0.1,0.2-0.1c0.4-0.2,0.8-0.2,1.1-0.2h0.1c0.4,0,0.7,0,1.1,0.1h0.1
		c0.3,0.1,0.7,0.2,0.9,0.4L367.1,370.1L367.1,370.1z"/>
	<path class="st4" d="M371.4,375.8c3.7-2.1,6.7-0.4,6.7,3.8v13c0,4.2-3,9.5-6.7,11.6L346,418.9c-3.7,2.1-6.7,0.4-6.7-3.8v-13
		c0-4.2,3-9.5,6.6-11.6L371.4,375.8z"/>
	<path class="st3" d="M339.3,367.1l-9.1-5.3c0,0.5,0.1,1,0.2,1.5c0.2,1.3,0.9,2.3,1.8,2.8l9.1,5.3
		C340.1,370.6,339.3,369.1,339.3,367.1z M366.9,322c-0.2-0.1-0.2-0.2-0.4-0.2c-0.1-0.1-0.2-0.1-0.4-0.2c-0.1,0-0.2,0-0.2-0.1h-0.1
		h-0.1c-0.2,0-0.2,0-0.4-0.1h-0.6h-0.3c-0.2,0-0.4,0.1-0.6,0.2c-0.1,0-0.2,0.1-0.2,0.1s-0.2,0.1-0.2,0.1c-0.1,0-0.2,0.1-0.3,0.1
		l-0.9,0.5L336.7,337c-0.4,0.2-0.9,0.5-1.3,0.9c-0.2,0.1-0.2,0.2-0.4,0.3c-0.2,0.2-0.4,0.3-0.5,0.5c-0.1,0.1-0.2,0.2-0.2,0.3
		l-0.2,0.2l-0.2,0.2c-0.2,0.2-0.4,0.5-0.5,0.6c-0.1,0.1-0.2,0.2-0.2,0.2c0,0.1-0.1,0.1-0.1,0.2c-0.1,0.1-0.1,0.2-0.2,0.2
		c-0.2,0.2-0.2,0.4-0.4,0.5c-0.2,0.2-0.2,0.4-0.3,0.5v0.2l-0.2,0.5c-0.1,0.2-0.2,0.4-0.3,0.5c-0.1,0.2-0.2,0.3-0.2,0.5
		c-0.1,0.2-0.2,0.4-0.2,0.6c-0.1,0.2-0.2,0.4-0.2,0.6c0,0.1-0.1,0.2-0.1,0.3s0,0.1-0.1,0.2c0,0.1-0.1,0.2-0.1,0.2
		c-0.1,0.2-0.2,0.5-0.2,0.8c0,0.2-0.1,0.3-0.1,0.5c0,0.1,0,0.2-0.1,0.2v0.2c-0.1,0.5-0.1,0.9-0.1,1.3v13l9.1,5.3v-13
		c0-0.5,0.1-1,0.2-1.6c0-0.1,0-0.2,0.1-0.2c0.1-0.5,0.2-0.9,0.3-1.5c0-0.1,0-0.1,0.1-0.2c0.2-0.5,0.4-1.1,0.5-1.6
		c0.2-0.5,0.5-1,0.8-1.6v-0.1l0.9-1.4c0-0.1,0.1-0.1,0.1-0.2c0.3-0.4,0.6-0.8,1-1.2l0.2-0.2c0.2-0.3,0.5-0.5,0.9-0.8
		c0.2-0.1,0.2-0.2,0.4-0.3c0.4-0.3,0.9-0.6,1.3-0.9l25.4-14.6c0.4-0.2,0.9-0.4,1.2-0.5c0.1,0,0.2-0.1,0.2-0.1
		c0.4-0.2,0.8-0.2,1.1-0.2h0.1c0.4,0,0.7,0,1.1,0.1h0.1c0.3,0.1,0.7,0.2,0.9,0.4L366.9,322L366.9,322z"/>
	<path class="st4" d="M371.2,327.8c3.7-2.1,6.7-0.4,6.7,3.8v13c0,4.2-3,9.5-6.7,11.6L346,370.9c-3.7,2.1-6.7,0.4-6.7-3.8v-13
		c0-4.2,3-9.5,6.6-11.6L371.2,327.8L371.2,327.8z"/>
	<path class="st3" d="M425.4,336.4c-0.2-0.1-0.2-0.2-0.4-0.2c-0.1-0.1-0.2-0.1-0.4-0.2c-0.1,0-0.2,0-0.2-0.1h-0.1h-0.1
		c-0.2,0-0.2,0-0.4-0.1h-0.6h-0.3c-0.2,0-0.4,0.1-0.6,0.2c-0.1,0-0.2,0.1-0.2,0.1s-0.2,0.1-0.2,0.1c-0.1,0-0.2,0.1-0.3,0.1l-0.9,0.5
		l-25.4,14.6c-0.5,0.2-0.9,0.5-1.2,0.9c-0.2,0.1-0.2,0.2-0.4,0.3c-0.2,0.2-0.4,0.3-0.5,0.5c-0.1,0.1-0.2,0.2-0.2,0.3l-0.2,0.2
		l-0.2,0.2c-0.2,0.2-0.4,0.5-0.5,0.7c-0.1,0.1-0.2,0.2-0.2,0.2c0,0.1-0.1,0.1-0.1,0.2c-0.1,0.1-0.1,0.2-0.2,0.2
		c-0.2,0.2-0.2,0.4-0.4,0.5c-0.2,0.2-0.2,0.4-0.3,0.5v0.2l-0.2,0.5c-0.1,0.2-0.2,0.4-0.3,0.5c-0.1,0.2-0.2,0.3-0.2,0.5
		c-0.1,0.2-0.2,0.4-0.2,0.6c-0.1,0.2-0.2,0.4-0.2,0.6c0,0.1-0.1,0.2-0.1,0.3s0,0.1-0.1,0.2c0,0.1-0.1,0.2-0.1,0.2
		c-0.1,0.2-0.2,0.5-0.2,0.8c0,0.2-0.1,0.3-0.1,0.5c0,0.1,0,0.2-0.1,0.2v0.2c-0.1,0.5-0.1,0.9-0.1,1.3v13l7.2,4.1l-7.2-4.1
		c0,1.6,0.4,2.8,1.2,3.6c0.2,0.2,0.5,0.5,0.8,0.7l9.1,5.3c-1.2-0.7-2-2.2-2-4.3v-13c0-0.5,0.1-1,0.2-1.6c0-0.1,0-0.2,0.1-0.2
		c0.1-0.5,0.2-0.9,0.3-1.5c0-0.1,0-0.1,0.1-0.2c0.2-0.5,0.4-1.1,0.5-1.6c0.2-0.5,0.5-1.1,0.8-1.6v-0.1l0.9-1.4
		c0-0.1,0.1-0.1,0.1-0.2c0.3-0.4,0.6-0.8,1-1.2l0.2-0.2c0.2-0.3,0.5-0.5,0.9-0.8c0.2-0.1,0.2-0.2,0.4-0.3c0.4-0.3,0.9-0.6,1.2-0.9
		l25.4-14.6c0.4-0.2,0.9-0.4,1.2-0.5c0.1,0,0.2-0.1,0.2-0.1c0.4-0.2,0.8-0.2,1.1-0.2h0.1c0.4,0,0.7,0,1.1,0.1h0.1
		c0.3,0.1,0.7,0.2,0.9,0.4L425.4,336.4z"/>
	<path class="st4" d="M429.8,342.2c3.7-2.1,6.7-0.4,6.7,3.8v13c0,4.2-3,9.5-6.7,11.6l-25.3,14.7c-3.7,2.1-6.7,0.4-6.7-3.8v-13
		c0-4.2,3-9.5,6.7-11.6L429.8,342.2z"/>
	<path class="st3" d="M390.5,332.4l9.1,5.3c-1.2-0.7-2-2.2-2-4.3l-9.1-5.3C388.5,330.2,389.3,331.7,390.5,332.4z M425.3,288.3
		C425.2,288.3,425.2,288.3,425.3,288.3c-0.2-0.1-0.2-0.2-0.4-0.2c-0.1-0.1-0.2-0.1-0.4-0.2c-0.1,0-0.2,0-0.2-0.1h-0.1h-0.1
		c-0.2,0-0.2,0-0.4-0.1h-0.6h-0.3c-0.2,0-0.4,0.1-0.6,0.2c-0.1,0-0.2,0.1-0.2,0.1c-0.1,0-0.2,0.1-0.2,0.1c-0.1,0-0.2,0.1-0.3,0.1
		l-0.9,0.5l-25.4,14.6c-0.5,0.2-0.9,0.5-1.2,0.9c-0.2,0.1-0.2,0.2-0.4,0.3c-0.2,0.2-0.4,0.3-0.6,0.5c-0.1,0.1-0.2,0.2-0.2,0.3
		l-0.2,0.2l-0.2,0.2c-0.2,0.2-0.4,0.5-0.5,0.6c-0.1,0.1-0.2,0.2-0.2,0.2c0,0.1-0.1,0.1-0.1,0.2c-0.1,0.1-0.1,0.2-0.2,0.2
		c-0.2,0.2-0.2,0.4-0.4,0.5c-0.2,0.2-0.2,0.4-0.3,0.5v0.2l-0.2,0.5c-0.1,0.2-0.2,0.4-0.3,0.5c-0.1,0.2-0.2,0.3-0.2,0.5
		c-0.1,0.2-0.2,0.4-0.2,0.6c-0.1,0.2-0.2,0.4-0.2,0.6c0,0.1-0.1,0.2-0.1,0.3s0,0.1-0.1,0.2c0,0.1-0.1,0.2-0.1,0.2
		c-0.1,0.2-0.2,0.5-0.2,0.8c0,0.2-0.1,0.3-0.1,0.5c0,0.1,0,0.2-0.1,0.2c0,0.1,0,0.2-0.1,0.2c-0.1,0.5-0.1,0.9-0.1,1.3v13l9.1,5.3
		v-13c0-0.5,0.1-1,0.2-1.6c0-0.1,0-0.2,0.1-0.2c0.1-0.5,0.2-0.9,0.3-1.5c0-0.1,0-0.1,0.1-0.2c0.2-0.5,0.4-1.1,0.5-1.6
		c0.2-0.5,0.5-1.1,0.8-1.6v-0.1l0.9-1.4c0-0.1,0.1-0.1,0.1-0.2c0.3-0.4,0.6-0.8,1-1.2l0.2-0.2c0.2-0.3,0.5-0.5,0.9-0.8
		c0.2-0.1,0.2-0.2,0.4-0.3c0.4-0.3,0.9-0.6,1.2-0.9l25.4-14.6c0.4-0.2,0.9-0.4,1.2-0.5c0.1,0,0.2-0.1,0.2-0.1
		c0.4-0.2,0.8-0.2,1.1-0.2h0.1c0.4,0,0.7,0,1.1,0.1h0.1c0.3,0.1,0.7,0.2,0.9,0.4L425.3,288.3z"/>
	<path class="st4" d="M429.6,294.1c3.7-2.1,6.7-0.4,6.7,3.8v13c0,4.2-3,9.5-6.7,11.6l-25.4,14.6c-3.7,2.1-6.7,0.4-6.7-3.8v-13
		c0-4.2,3-9.5,6.7-11.6L429.6,294.1z"/>
	<path class="st5" d="M557.4,312.4c-0.2-0.1-0.2-0.2-0.4-0.2l-1.9-0.9l-0.5-0.2c-0.4-0.2-0.7-0.3-1.1-0.5c-0.2-0.1-0.5-0.2-0.7-0.3
		c-0.2-0.1-0.4-0.2-0.6-0.2c-0.7-0.2-1.5-0.5-2.3-0.8h-0.2c-0.7-0.2-1.5-0.4-2.3-0.5c-0.2-0.1-0.5-0.1-0.7-0.2
		c-0.2-0.1-0.5-0.1-0.7-0.2c-0.4-0.1-0.9-0.2-1.3-0.2c-0.2,0-0.3-0.1-0.5-0.1c-0.7-0.1-1.5-0.2-2.3-0.2h-4.5c-0.4,0-0.9,0.1-1.2,0.1
		c-0.3,0-0.6,0-0.9,0.1c-0.9,0.1-1.8,0.2-2.7,0.3h-0.1c-1,0.2-2,0.3-3,0.5l-0.9,0.2l-1.9,0.5c-0.1,0-0.2,0.1-0.2,0.1
		c-1.2,0.3-2.4,0.7-3.6,1.1l-0.7,0.2c-1,0.3-2,0.7-3,1.1c-0.2,0.1-0.2,0.1-0.4,0.2c-0.8,0.3-1.6,0.7-2.4,1.1
		c-0.1,0.1-0.2,0.1-0.3,0.2c-0.9,0.4-1.8,0.9-2.7,1.3c-0.2,0.2-0.5,0.3-0.8,0.4c-1,0.5-2,1.1-3.1,1.7c-1.1,0.6-2.2,1.2-3.2,2
		c-0.3,0.2-0.7,0.5-1,0.7c-0.7,0.5-1.4,0.9-2.2,1.4c-0.4,0.3-0.8,0.5-1.2,0.9c-0.6,0.5-1.3,0.9-2,1.4l-1.2,0.9c-0.6,0.5-1.3,1-2,1.6
		c-0.4,0.3-0.8,0.6-1.1,0.9c-0.7,0.6-1.5,1.2-2.2,1.9c-0.2,0.2-0.5,0.5-0.9,0.7c-1,0.9-2,1.8-3,2.7c-0.2,0.2-0.4,0.4-0.6,0.6
		c-0.6,0.6-1.3,1.2-2,1.9l-0.3,0.3c-1.2,1.2-2.3,2.3-3.4,3.5c-0.1,0.1-0.1,0.2-0.2,0.2c-1.1,1.2-2.1,2.3-3.1,3.5l-0.3,0.3l-1.2,1.4
		c-0.4,0.5-0.9,1-1.2,1.5c-0.5,0.6-1,1.2-1.6,2c-0.4,0.5-0.8,1-1.2,1.5c-0.1,0.1-0.2,0.2-0.2,0.3c-0.2,0.2-0.2,0.3-0.4,0.5
		c-1.2,1.6-2.5,3.4-3.7,5.1c-0.2,0.2-0.2,0.3-0.4,0.5c-0.1,0.1-0.1,0.2-0.2,0.2c-1.2,1.6-2.3,3.4-3.4,5.1c-0.1,0.2-0.2,0.3-0.3,0.5
		c-0.2,0.2-0.3,0.5-0.5,0.8c-0.9,1.4-1.7,2.8-2.6,4.3c-0.2,0.2-0.3,0.5-0.4,0.7c-0.1,0.1-0.1,0.2-0.2,0.2c-0.9,1.6-1.9,3.3-2.8,5
		c-0.1,0.2-0.2,0.2-0.2,0.4c-0.2,0.3-0.3,0.5-0.4,0.9c-0.7,1.3-1.4,2.7-2,4.1c-0.2,0.3-0.3,0.5-0.4,0.9c-0.1,0.2-0.2,0.3-0.2,0.5
		c-0.8,1.7-1.6,3.4-2.3,5.2c0,0.1-0.1,0.1-0.1,0.2c-0.1,0.2-0.2,0.4-0.2,0.5c-0.7,1.6-1.3,3.1-2,4.7c-0.1,0.2-0.2,0.5-0.3,0.8
		c-0.1,0.2-0.2,0.4-0.2,0.6c-0.7,1.9-1.4,3.8-2,5.6v0.1c-0.4,1.2-0.8,2.5-1.2,3.7c-0.1,0.3-0.2,0.7-0.3,1c-0.2,0.7-0.4,1.4-0.6,2.1
		c-0.1,0.2-0.1,0.5-0.2,0.7c-0.2,0.5-0.3,1.2-0.5,1.7c-0.2,0.8-0.4,1.6-0.5,2.3c-0.2,0.6-0.2,1.2-0.4,1.8c-0.1,0.4-0.2,0.8-0.3,1.2
		c-0.1,0.3-0.1,0.5-0.2,0.9c-0.2,0.9-0.3,1.8-0.5,2.7c-0.1,0.6-0.2,1.2-0.3,1.8c-0.2,0.9-0.3,1.8-0.4,2.7c-0.1,0.4-0.2,0.9-0.2,1.2
		c0,0.2-0.1,0.4-0.1,0.5c-0.1,0.4-0.1,0.9-0.2,1.2l-0.2,2.6c-0.1,0.5-0.1,0.9-0.1,1.3c-0.1,0.9-0.1,1.7-0.2,2.6
		c0,0.4-0.1,0.8-0.1,1.2c-0.1,1.2-0.1,2.5-0.1,3.7c0.1,21.2,7.6,36.1,19.6,43.1l11.6,6.7c-12.1-7-19.5-22-19.6-43.1
		c0-1.2,0-2.4,0.1-3.7c0-0.4,0-0.8,0.1-1.2c0.1-0.9,0.1-1.7,0.2-2.6c0-0.5,0.1-0.9,0.1-1.3l0.2-2.6c0.1-0.4,0.1-0.9,0.2-1.2
		c0.1-0.6,0.2-1.2,0.2-1.8c0.2-0.9,0.2-1.8,0.4-2.7c0.1-0.6,0.2-1.2,0.3-1.8c0.2-0.9,0.3-1.7,0.5-2.7l0.5-2.1
		c0.2-0.6,0.2-1.2,0.4-1.8c0.2-0.8,0.4-1.6,0.5-2.3c0.2-0.5,0.3-1.2,0.5-1.7c0.2-0.9,0.5-1.9,0.8-2.8c0.1-0.3,0.2-0.7,0.3-1
		c0.4-1.2,0.8-2.6,1.2-3.8c0.6-1.9,1.3-3.8,2-5.6c0.2-0.5,0.4-0.9,0.5-1.4c0.6-1.6,1.2-3.1,2-4.7c0.1-0.2,0.2-0.5,0.3-0.7l2.3-5.2
		c0.2-0.5,0.5-0.9,0.6-1.3c0.6-1.3,1.3-2.7,2-4.1c0.2-0.4,0.4-0.9,0.6-1.2c0.9-1.7,1.8-3.4,2.8-5c0.2-0.3,0.4-0.6,0.5-0.9
		c0.9-1.4,1.7-2.9,2.6-4.3c0.2-0.4,0.5-0.9,0.8-1.2c1.1-1.7,2.3-3.4,3.4-5.1c0.2-0.2,0.4-0.5,0.5-0.8c1.2-1.7,2.5-3.4,3.7-5.1
		c0.2-0.2,0.4-0.5,0.5-0.8c0.4-0.5,0.8-1,1.2-1.6c0.5-0.6,1-1.2,1.6-1.9c0.4-0.5,0.9-1,1.2-1.5c0.5-0.6,1-1.2,1.5-1.7
		c1-1.2,2.1-2.3,3.2-3.5c0.1-0.1,0.1-0.2,0.2-0.2c1.1-1.2,2.3-2.3,3.4-3.5c0.7-0.7,1.5-1.4,2.2-2.2c0.2-0.2,0.4-0.4,0.6-0.6
		c1-0.9,2-1.8,3-2.7c0.2-0.2,0.5-0.5,0.8-0.7c0.7-0.6,1.5-1.2,2.2-1.9c0.4-0.3,0.8-0.6,1.1-0.9c0.6-0.5,1.3-1,2-1.6l1.2-0.9
		c0.6-0.5,1.3-0.9,2-1.4c0.4-0.3,0.8-0.5,1.2-0.9c0.7-0.5,1.4-0.9,2.2-1.4c0.3-0.2,0.7-0.5,1-0.7c1.1-0.7,2.1-1.3,3.2-2
		c1-0.6,2.1-1.2,3.1-1.7c0.2-0.2,0.5-0.3,0.8-0.4c0.9-0.5,1.8-0.9,2.7-1.3c0.1-0.1,0.2-0.1,0.3-0.2c0.9-0.5,1.9-0.9,2.8-1.3
		c1-0.4,2-0.8,3-1.2l0.7-0.2c1.2-0.4,2.4-0.8,3.6-1.1c0.7-0.2,1.4-0.4,2.1-0.5c0.3-0.1,0.6-0.2,1-0.2c1-0.2,2-0.4,3-0.5h0.1
		c0.9-0.2,1.8-0.2,2.7-0.3c0.3,0,0.6-0.1,0.9-0.1c0.6-0.1,1.3-0.1,2-0.1h3.5c0.9,0.1,1.7,0.2,2.5,0.2c0.2,0,0.3,0.1,0.5,0.1
		c0.7,0.1,1.3,0.2,2,0.3c0.2,0.1,0.5,0.1,0.7,0.2c0.8,0.2,1.5,0.3,2.3,0.5h0.2c0.8,0.2,1.6,0.5,2.3,0.8c0.2,0.1,0.4,0.2,0.6,0.2
		c0.6,0.2,1.2,0.5,1.8,0.8l0.5,0.2c0.8,0.4,1.5,0.8,2.2,1.2L557.4,312.4L557.4,312.4z"/>
	<path class="st0" d="M521.2,323.8c37.1-21.4,67.3-4.2,67.5,38.4s-29.9,94.7-67,116.1s-67.3,4.2-67.4-38.4
		C454.1,397.2,484,345.3,521.2,323.8L521.2,323.8z"/>
	<path class="st5" d="M546.9,358.7l1.5,3.1c-15.7,26.2-28.6,57.9-32.6,72.6L492,419.6l6-9.2l13.7,4.8
		C517.3,404,529.7,381.1,546.9,358.7L546.9,358.7z"/>
	<path class="st3" d="M522.9,419.7c0.1-0.2,0.2-0.2,0.2-0.4c0.4-0.8,0.8-1.5,1.2-2.3c0.2-0.5,0.5-1,0.8-1.5c0.2-0.5,0.5-0.9,0.8-1.5
		c0.3-0.5,0.6-1.1,0.9-1.6c0.3-0.5,0.5-1,0.9-1.6c0.3-0.5,0.6-1.1,0.9-1.7l0.9-1.6c0.3-0.5,0.7-1.2,1-1.8c0.3-0.5,0.6-1.2,1-1.7
		c0.2-0.4,0.4-0.7,0.6-1.1l1.4-2.3c0.2-0.5,0.5-0.9,0.8-1.3c0.5-0.7,0.9-1.5,1.3-2.2c0.3-0.5,0.6-0.9,0.9-1.5
		c0.5-0.7,0.9-1.5,1.4-2.2c0.3-0.5,0.6-1,0.9-1.5c0.3-0.5,0.6-1,1-1.6c1.1-1.7,2.2-3.4,3.4-5.2c0.2-0.2,0.2-0.3,0.3-0.5
		c1.2-1.9,2.5-3.8,3.8-5.6c0.4-0.5,0.7-1,1.1-1.5c0.8-1.1,1.6-2.3,2.4-3.4c0.4-0.5,0.7-1,1.1-1.6c1.2-1.6,2.3-3.2,3.6-4.8l-8.4-4.9
		c-1.2,1.6-2.4,3.2-3.6,4.8c-0.4,0.5-0.7,1-1.1,1.5c-0.9,1.1-1.6,2.3-2.4,3.4c-0.2,0.3-0.4,0.5-0.6,0.9l-0.5,0.7
		c-1.3,1.9-2.6,3.8-3.8,5.6c-0.2,0.2-0.2,0.3-0.3,0.5c-1.2,1.7-2.3,3.4-3.4,5.2l-0.5,0.7c-0.2,0.3-0.4,0.5-0.5,0.9
		c-0.3,0.5-0.6,1-0.9,1.5c-0.5,0.8-0.9,1.5-1.4,2.2c-0.3,0.5-0.6,1-0.9,1.5c-0.5,0.8-0.9,1.5-1.3,2.2c-0.2,0.5-0.5,0.9-0.8,1.3
		l-1.4,2.3c-0.2,0.4-0.5,0.7-0.6,1.1c-0.1,0.1-0.1,0.2-0.2,0.2c-0.3,0.5-0.5,1-0.9,1.5c-0.4,0.6-0.7,1.2-1,1.8l-0.9,1.6
		c-0.3,0.5-0.6,1.2-0.9,1.7c-0.3,0.5-0.5,1-0.9,1.6c-0.3,0.5-0.6,1.1-0.9,1.6c-0.2,0.5-0.5,0.9-0.8,1.4c-0.3,0.5-0.5,1-0.8,1.5
		c-0.1,0.1-0.1,0.2-0.2,0.2c-0.4,0.7-0.7,1.4-1.1,2c-0.1,0.2-0.2,0.3-0.2,0.4l-0.9,1.9c-0.1,0.2-0.2,0.4-0.3,0.5
		c-0.3,0.7-0.7,1.3-1,2l-13.7-4.8l-6,9.2l8.4,4.9l6-9.2l13.7,4.8c0.3-0.6,0.6-1.2,1-2c0.1-0.2,0.2-0.4,0.3-0.5
		C522.3,421,522.6,420.4,522.9,419.7L522.9,419.7z"/>
	<path class="st6" d="M524.7,443.4l-8.4-4.9l-23.8-14.8l8.4,4.9L524.7,443.4z"/>
	<path class="st4" d="M555.8,367.7l1.5,3.1c-15.7,26.2-28.6,57.9-32.6,72.6l-23.8-14.8l6-9.2l13.8,4.8
		C526.2,412.9,538.7,390,555.8,367.7L555.8,367.7z"/>
</g>
</svg>
