<!DOCTYPE svg PUBLIC "-//W3C//DTD SVG 1.1//EN" "http://www.w3.org/Graphics/SVG/1.1/DTD/svg11.dtd">
<!-- Uploaded to: SVG Repo, www.svgrepo.com, Transformed by: SVG Repo Mixer Tools -->
<svg fill="#ffffff" width="800px" height="800px" viewBox="0 0 36 36" version="1.1" preserveAspectRatio="xMidYMid meet" xmlns="http://www.w3.org/2000/svg" xmlns:xlink="http://www.w3.org/1999/xlink">
<g id="SVGRepo_bgCarrier" stroke-width="0"/>
<g id="SVGRepo_tracerCarrier" stroke-linecap="round" stroke-linejoin="round"/>
<g id="SVGRepo_iconCarrier"> <title>design-solid</title> <path class="clr-i-solid clr-i-solid-path-1" d="M34.87,32.21,30,27.37V8.75L27.7,4.52a2,2,0,0,0-3.54,0L22,8.76V19.41L3.71,1.21A1,1,0,0,0,2,1.92V10H4.17v1.6H2V18H4.17v1.6H2v6.65H4.17v1.6H2v5.07a1,1,0,0,0,1,1H34.16a1,1,0,0,0,.71-1.71ZM10,26V16.94L19.07,26Zm18,2.11H24V25.68h4Zm0-4H24V9.25l1.94-3.77L28,9.26Z"/> <rect x="0" y="0" width="36" height="36" fill-opacity="0"/> </g>
</svg>