<!DOCTYPE svg PUBLIC "-//W3C//DTD SVG 1.1//EN" "http://www.w3.org/Graphics/SVG/1.1/DTD/svg11.dtd">
<!-- Uploaded to: SVG Repo, www.svgrepo.com, Transformed by: SVG Repo Mixer Tools -->
<svg version="1.1" id="Uploaded to svgrepo.com" xmlns="http://www.w3.org/2000/svg" xmlns:xlink="http://www.w3.org/1999/xlink" width="800px" height="800px" viewBox="0 0 32 32" xml:space="preserve" fill="#ffffff">
<g id="SVGRepo_bgCarrier" stroke-width="0"/>
<g id="SVGRepo_tracerCarrier" stroke-linecap="round" stroke-linejoin="round"/>
<g id="SVGRepo_iconCarrier"> <style type="text/css"> .puchipuchi_een{fill:#ffffff;} </style> <path class="puchipuchi_een" d="M29,4H3C1.9,4,1,4.9,1,6v20c0,1.1,0.9,2,2,2h26c1.1,0,2-0.9,2-2V6C31,4.9,30.1,4,29,4z M4,26 c-0.55,0-1-0.45-1-1s0.45-1,1-1s1,0.45,1,1S4.55,26,4,26z M9,25c0,0.55-0.45,1-1,1s-1-0.45-1-1v-3c0-0.55,0.45-1,1-1s1,0.45,1,1V25z M13,25c0,0.55-0.45,1-1,1s-1-0.45-1-1v-6c0-0.55,0.45-1,1-1s1,0.45,1,1V25z M17,25c0,0.55-0.45,1-1,1s-1-0.45-1-1v-9 c0-0.55,0.45-1,1-1c0.55,0,1,0.45,1,1V25z M21,25c0,0.55-0.45,1-1,1s-1-0.45-1-1V13c0-0.55,0.45-1,1-1s1,0.45,1,1V25z M25,25 c0,0.55-0.45,1-1,1s-1-0.45-1-1V10c0-0.55,0.45-1,1-1s1,0.45,1,1V25z M29,25c0,0.55-0.45,1-1,1s-1-0.45-1-1V7c0-0.55,0.45-1,1-1 s1,0.45,1,1V25z"/> </g>
</svg>