<!DOCTYPE svg PUBLIC "-//W3C//DTD SVG 1.1//EN" "http://www.w3.org/Graphics/SVG/1.1/DTD/svg11.dtd">
<!-- Uploaded to: SVG Repo, www.svgrepo.com, Transformed by: SVG Repo Mixer Tools -->
<svg width="800px" height="800px" viewBox="0 -0.5 28 28" version="1.1" xmlns="http://www.w3.org/2000/svg" xmlns:xlink="http://www.w3.org/1999/xlink" xmlns:sketch="http://www.bohemiancoding.com/sketch/ns" fill="#000000" transform="rotate(180)">
<g id="SVGRepo_bgCarrier" stroke-width="0"/>
<g id="SVGRepo_tracerCarrier" stroke-linecap="round" stroke-linejoin="round"/>
<g id="SVGRepo_iconCarrier"> <title>open</title> <desc>Created with Sketch Beta.</desc> <defs> </defs> <g id="Page-1" stroke="none" stroke-width="1" fill="none" fill-rule="evenodd" sketch:type="MSPage"> <g id="Icon-Set-Filled" sketch:type="MSLayerGroup" transform="translate(-156.000000, -623.000000)" fill="#000000"> <path d="M183,647.998 L157,647.998 C156.448,647.998 156,648.446 156,648.999 C156,649.552 156.448,650 157,650 L183,650 C183.552,650 184,649.552 184,648.999 C184,648.446 183.552,647.998 183,647.998 L183,647.998 Z M158.014,645.995 L182.018,645.995 C184.375,645.995 184.296,644.608 183.628,643.574 L171.44,624.555 C170.882,623.771 169.22,623.703 168.56,624.555 L156.372,643.574 C155.768,644.703 155.687,645.995 158.014,645.995 L158.014,645.995 Z" id="open" sketch:type="MSShapeGroup"> </path> </g> </g> </g>
</svg>