<?xml version="1.0" encoding="utf-8"?>
<!-- Generator: Adobe Illustrator 27.9.0, SVG Export Plug-In . SVG Version: 6.00 Build 0)  -->
<svg version="1.1" id="Capa_1" xmlns="http://www.w3.org/2000/svg" xmlns:xlink="http://www.w3.org/1999/xlink" x="0px" y="0px"
	 viewBox="0 0 800 800" style="enable-background:new 0 0 800 800;" xml:space="preserve">
<style type="text/css">
	.st0{fill:#22B573;}
	.st1{fill:#E4ECF9;}
	.st2{fill:#ACC5EA;}
	.st3{fill:#00723B;}
	.st4{fill:#28289E;}
	.st5{fill:#2929A3;}
	.st6{fill:#2A2AA8;}
	.st7{fill:#2C2CAD;}
	.st8{fill:#2D2DB3;}
	.st9{fill:#2E2EB8;}
	.st10{fill:#2F2FBD;}
	.st11{fill:#3131C2;}
	.st12{fill:#3232C7;}
	.st13{fill:#3333CC;}
	.st14{fill:#262699;}
	.st15{fill:#252594;}
	.st16{fill:#24248F;}
	.st17{fill:#23238A;}
	.st18{fill:#212185;}
	.st19{fill:#FFFFFF;}
	.st20{fill:#2A2ABC;}
	.st21{fill:#333333;}
	.st22{fill:#674611;}
	.st23{fill:#808080;}
	.st24{fill:#CCCCCC;}
</style>
<g>
	<path class="st0" d="M707.6,455.8c-0.9,8.6-8.8,12.9-15.5,16.8c-6.2,3.6-12.5,7.3-18.7,10.9c-10,5.8-19.9,11.6-29.9,17.3
		c-12.5,7.3-24.9,14.5-37.4,21.7c-13.8,8-27.5,16-41.3,24c-13.8,8-27.7,16.1-41.6,24.1c-12.7,7.4-25.4,14.8-38.1,22.2
		c-10.4,6-20.7,12-31.1,18c-6.8,3.9-13.6,7.9-20.4,11.8c-5.2,3-10,5.9-15.9,7.7c-15.2,4.4-32.1,2.9-45.9-5.1
		c-4.9-2.9-9.9-5.7-14.8-8.6c-9.1-5.2-18-10.4-27.1-15.6c-11.9-6.9-23.8-13.8-35.6-20.5c-13.5-7.8-27.1-15.6-40.6-23.4
		c-14-8-28-16.2-42-24.2c-13.2-7.7-26.4-15.2-39.7-22.9l-33.7-19.5c-8-4.7-16.2-9.3-24.2-14c-3.7-2.1-7.3-4.2-11-6.4
		c-5.8-3.4-11.5-8.7-11.5-15.9c0,6.6,0,13.1-0.1,19.8c0,2.3-0.2,4.8,0,7.2c0.5,6.3,5.5,11.3,10.7,14.4c3.2,2,6.5,3.8,9.8,5.6
		c8.4,4.8,16.9,9.8,25.3,14.6c12.2,7,24.3,14.1,36.5,21.1c14.5,8.4,29,16.7,43.4,25.1c15.1,8.8,30.2,17.4,45.3,26.2
		c14.4,8.3,28.7,16.6,43,24.8c12,6.9,23.8,13.7,35.8,20.6c8,4.7,16.2,9.3,24.2,14c4.7,2.7,9.3,5.7,14.4,7.6
		c15.9,5.8,34.5,4.5,49.1-4c5.5-3.2,11.1-6.5,16.6-9.7c10.2-5.9,20.5-11.9,30.6-17.8c13.4-7.7,26.6-15.5,40-23.3
		c14.9-8.7,29.8-17.3,44.7-26l44.8-26c13.4-7.8,26.7-15.5,40.2-23.4c10.4-6,20.8-12,31.2-18.1c5.7-3.4,11.5-6.6,17.2-10
		c1.7-1,3.5-2,5.2-3.2c4.4-3.3,7.8-7.8,7.9-13.5c0.1-2.9,0-5.7,0-8.6c0-5.7,0-11.5,0.1-17.2C707.7,455,707.6,455.4,707.6,455.8
		C707.6,456,707.6,455.6,707.6,455.8L707.6,455.8z"/>
	<path class="st1" d="M696.5,439c14.8,8.6,14.9,22.6,0.2,31.2l-269,156.3c-14.8,8.6-38.9,8.6-53.8,0L103,470.2
		c-14.8-8.6-14.9-22.6-0.2-31.2l269.1-156.4c14.8-8.6,38.9-8.6,53.8,0L696.5,439z"/>
	<path class="st2" d="M232.1,383.8c0-0.2,0.1-0.5,0.1-0.7c0-0.2,0.1-0.3,0.1-0.5s0.1-0.3,0.1-0.4c0.1-0.2,0.1-0.4,0.2-0.6
		c0-0.1,0.1-0.2,0.1-0.3l0.2-0.7c0-0.1,0.1-0.2,0.1-0.3c0.1-0.3,0.2-0.6,0.4-0.9c0,0,0-0.1,0.1-0.1c0.2-0.3,0.2-0.5,0.4-0.8
		c0.1-0.1,0.1-0.2,0.2-0.2c0.2-0.2,0.2-0.5,0.4-0.8c0-0.1,0.1-0.1,0.1-0.2c0.2-0.3,0.3-0.5,0.5-0.9c0.1-0.1,0.1-0.2,0.2-0.2
		c0.2-0.2,0.2-0.4,0.4-0.6c0.1-0.1,0.2-0.2,0.2-0.3c0.2-0.2,0.2-0.3,0.4-0.5c0.1-0.2,0.2-0.2,0.3-0.4c0.1-0.2,0.2-0.2,0.3-0.4
		c0.2-0.2,0.4-0.4,0.5-0.6l0.3-0.3c0.4-0.4,0.8-0.7,1.2-1c0.1-0.1,0.2-0.1,0.2-0.2c0.4-0.3,0.9-0.6,1.3-0.9c0.3-0.2,0.7-0.4,1-0.5
		c0.1-0.1,0.2-0.1,0.3-0.2c0.2-0.1,0.4-0.2,0.6-0.2c0.2,0,0.2-0.1,0.4-0.1c0.1,0,0.2-0.1,0.3-0.1c0.2,0,0.3-0.1,0.5-0.1h0.9
		c0.2,0,0.4,0.1,0.6,0.1h0.2c0.2,0,0.3,0.1,0.5,0.2c0.1,0,0.1,0,0.2,0.1c0.2,0.1,0.4,0.2,0.5,0.2l-11.6-6.7h-0.1
		c-0.2-0.1-0.3-0.2-0.4-0.2h-0.1c-0.1,0-0.1,0-0.2-0.1c-0.1,0-0.2-0.1-0.2-0.1c-0.1,0-0.2,0-0.2-0.1h-0.2c-0.2,0-0.3-0.1-0.5-0.1
		h-1.2c-0.1,0-0.2,0-0.2,0.1c-0.1,0-0.2,0.1-0.3,0.1c-0.1,0-0.2,0-0.2,0.1c-0.1,0-0.2,0.1-0.2,0.1c-0.2,0.1-0.4,0.2-0.6,0.2
		c-0.1,0-0.2,0.1-0.2,0.1c0,0-0.1,0.1-0.2,0.1c-0.3,0.2-0.7,0.3-1,0.5c-0.5,0.2-0.9,0.5-1.3,0.9c-0.1,0.1-0.2,0.1-0.2,0.2
		c-0.4,0.3-0.8,0.7-1.2,1l-0.1,0.1l-0.2,0.2c-0.2,0.2-0.4,0.4-0.5,0.6l-0.2,0.2l-0.2,0.2c-0.1,0.2-0.2,0.2-0.3,0.4l-0.2,0.2
		c-0.1,0.1-0.1,0.2-0.2,0.2c-0.1,0.1-0.2,0.2-0.2,0.3c-0.1,0.1-0.1,0.2-0.2,0.2c-0.1,0.2-0.2,0.2-0.2,0.4c-0.1,0.1-0.1,0.2-0.2,0.2
		l-0.1,0.1l-0.5,0.7v0.1c0,0.1-0.1,0.1-0.1,0.2c-0.1,0.2-0.2,0.3-0.3,0.5c-0.1,0.1-0.1,0.2-0.2,0.2c-0.1,0.1-0.1,0.2-0.2,0.2
		c0,0.1-0.1,0.2-0.1,0.2c-0.1,0.2-0.2,0.4-0.2,0.6c0,0,0,0.1-0.1,0.1c-0.1,0.2-0.2,0.5-0.3,0.8c0,0.1,0,0.1-0.1,0.2
		c0,0.1-0.1,0.2-0.1,0.3c-0.1,0.2-0.1,0.2-0.2,0.4c0,0.1-0.1,0.2-0.1,0.3c0,0.1-0.1,0.2-0.1,0.3s-0.1,0.2-0.1,0.2
		c0,0.2-0.1,0.2-0.1,0.4s-0.1,0.3-0.1,0.4v0.2c0,0.1,0,0.2-0.1,0.3c-0.1,0.2-0.1,0.5-0.1,0.7v0.3c-0.1,0.5-0.1,1-0.1,1.5
		c0,2.7,0.9,4.5,2.4,5.4l11.6,6.7c-1.5-0.9-2.4-2.7-2.4-5.4c0-0.5,0-0.9,0.1-1.5C232,384,232,383.8,232.1,383.8L232.1,383.8z"/>
	<path class="st3" d="M257.5,370c0.1,0,0.2-0.1,0.3-0.1s0.2-0.1,0.2-0.1c0.2,0,0.2-0.1,0.3-0.1h0.8c0.2,0,0.3,0,0.5,0.1h0.2
		c0.2,0,0.2,0.1,0.4,0.1c0,0,0.1,0,0.1,0.1l0.5,0.2l-11.6-6.7c-0.1-0.1-0.2-0.1-0.3-0.2h-0.1c0,0-0.1,0-0.1-0.1
		c-0.1,0-0.1-0.1-0.2-0.1c-0.1,0-0.2,0-0.2-0.1h-0.2c-0.2,0-0.2,0-0.4-0.1h-1c-0.1,0-0.2,0-0.2,0.1h-0.2c-0.1,0-0.1,0-0.2,0.1
		c-0.2,0.1-0.3,0.1-0.5,0.2c-0.1,0-0.1,0-0.2,0.1c0,0-0.1,0-0.1,0.1c-0.2,0.1-0.5,0.2-0.8,0.4l-7.3,4.2l11.6,6.7l7.3-4.2
		c0.3-0.2,0.5-0.3,0.8-0.4c0.1,0,0.2-0.1,0.2-0.1C257.2,370.1,257.3,370.1,257.5,370L257.5,370z"/>
	<path class="st4" d="M234.4,391l-11.6-6.7h0.1L234.4,391"/>
	<path class="st5" d="M234.4,391.1l-11.6-6.7c0.2,0.1,0.3,0.2,0.4,0.2l11.6,6.7C234.7,391.2,234.5,391.2,234.4,391.1"/>
	<path class="st6" d="M234.8,391.3l-11.6-6.7c0.2,0.1,0.3,0.1,0.5,0.2l11.6,6.7C235.1,391.4,235,391.3,234.8,391.3"/>
	<path class="st7" d="M235.3,391.4l-11.6-6.7c0.2,0.1,0.3,0.1,0.5,0.1l11.6,6.7C235.6,391.5,235.5,391.5,235.3,391.4"/>
	<path class="st8" d="M235.8,391.6l-11.6-6.7c0.2,0,0.3,0.1,0.5,0.1l11.6,6.7C236.1,391.6,235.9,391.6,235.8,391.6"/>
	<path class="st9" d="M236.2,391.6l-11.6-6.7h0.5l11.6,6.7H236.2"/>
	<path class="st10" d="M236.8,391.6l-11.6-6.7c0.2,0,0.4,0,0.6-0.1l11.6,6.7C237.2,391.6,237,391.6,236.8,391.6"/>
	<path class="st11" d="M237.4,391.6l-11.6-6.7c0.2,0,0.5-0.1,0.7-0.2l11.6,6.7C237.9,391.4,237.6,391.5,237.4,391.6"/>
	<path class="st12" d="M238.1,391.4l-11.6-6.7c0.3-0.1,0.6-0.2,1-0.3l11.6,6.7C238.8,391.2,238.5,391.3,238.1,391.4"/>
	<path class="st13" d="M239.1,391l-11.6-6.7c0.4-0.2,0.8-0.4,1.2-0.5c1-0.5,2-1.3,2.8-2.2l11.6,6.7c-0.9,0.9-1.8,1.6-2.8,2.2
		C239.9,390.7,239.5,390.9,239.1,391"/>
	<path class="st12" d="M243.1,388.3l-11.6-6.7l0.9-0.9l11.6,6.7L243.1,388.3"/>
	<path class="st11" d="M244.1,387.4l-11.6-6.7c0.2-0.2,0.5-0.5,0.7-0.9l11.6,6.7C244.4,386.8,244.2,387,244.1,387.4"/>
	<path class="st10" d="M244.7,386.5l-11.6-6.7c0.2-0.2,0.4-0.5,0.5-0.8l11.6,6.7C245.1,386,244.9,386.3,244.7,386.5"/>
	<path class="st9" d="M245.2,385.7l-11.6-6.7l0.5-0.7l11.6,6.7C245.6,385.2,245.4,385.5,245.2,385.7"/>
	<path class="st8" d="M245.8,385l-11.6-6.7l0.5-0.7l11.6,6.7C246,384.5,245.9,384.8,245.8,385"/>
	<path class="st7" d="M246.2,384.3l-11.6-6.7c0.2-0.2,0.2-0.5,0.4-0.7l11.6,6.7C246.4,383.8,246.3,384.1,246.2,384.3"/>
	<path class="st6" d="M246.6,383.6l-11.6-6.7c0.2-0.2,0.2-0.5,0.4-0.7l11.6,6.7C246.8,383.1,246.7,383.4,246.6,383.6"/>
	<path class="st5" d="M246.9,382.9l-11.6-6.7c0.1-0.2,0.2-0.5,0.3-0.7l11.6,6.7C247.2,382.4,247,382.7,246.9,382.9"/>
	<path class="st4" d="M247.3,382.2l-11.6-6.7c0.1-0.2,0.2-0.5,0.3-0.8l11.6,6.7C247.5,381.7,247.3,381.9,247.3,382.2"/>
	<path class="st14" d="M247.6,381.4l-11.6-6.7c0.1-0.2,0.2-0.5,0.3-0.8l11.6,6.7C247.7,380.9,247.6,381.2,247.6,381.4"/>
	<path class="st15" d="M247.8,380.6l-11.6-6.7c0.1-0.3,0.2-0.5,0.2-0.9l11.6,6.7C248,380.1,248,380.3,247.8,380.6"/>
	<path class="st16" d="M248.1,379.8l-11.6-6.7l0.2-0.9l11.6,6.7L248.1,379.8"/>
	<path class="st17" d="M248.4,378.8l-11.6-6.7l0.2-1.2l11.6,6.7L248.4,378.8"/>
	<path class="st18" d="M248.5,377.7l-11.6-6.7c0.1-0.5,0.1-1.1,0.1-1.6c0-0.4,0-0.7-0.1-1.1l11.6,6.7c0,0.4,0.1,0.7,0.1,1.1
		C248.7,376.6,248.6,377.1,248.5,377.7"/>
	<path class="st3" d="M220.4,377.8L213,382c-0.4,0.2-0.9,0.5-1.2,0.9c-0.2,0.1-0.2,0.2-0.4,0.3c-0.2,0.2-0.4,0.3-0.5,0.5l-0.2,0.2
		l-0.2,0.2l-0.2,0.2c-0.2,0.2-0.4,0.4-0.5,0.6c-0.1,0.1-0.2,0.2-0.2,0.2c0,0.1-0.1,0.1-0.1,0.2c-0.1,0.1-0.1,0.2-0.2,0.2
		c-0.2,0.2-0.2,0.4-0.4,0.5c-0.2,0.2-0.2,0.4-0.3,0.5v0.2l-0.2,0.5c-0.1,0.2-0.2,0.4-0.3,0.5l-0.2,0.5c-0.1,0.2-0.2,0.4-0.2,0.6
		c-0.1,0.2-0.2,0.4-0.2,0.6c0,0.1-0.1,0.2-0.1,0.3s0,0.1-0.1,0.2c0,0.1-0.1,0.2-0.1,0.2c-0.1,0.2-0.2,0.5-0.2,0.8
		c0,0.2-0.1,0.3-0.1,0.5c0,0.1,0,0.2-0.1,0.2v0.2c-0.1,0.5-0.1,0.9-0.1,1.2l0.3,97.3c0,2,0.8,3.5,2,4.2l11.6,6.7
		c-1.2-0.7-2-2.1-2-4.2l-0.3-97.3c0-0.5,0.1-1,0.2-1.5c0-0.1,0-0.2,0.1-0.2c0.1-0.5,0.2-0.9,0.3-1.4c0-0.1,0-0.1,0.1-0.2
		c0.2-0.5,0.3-1,0.5-1.6c0.2-0.5,0.5-1,0.8-1.6v-0.1l0.9-1.4c0-0.1,0.1-0.1,0.1-0.2l0.9-1.2l0.2-0.2c0.2-0.3,0.5-0.5,0.9-0.8
		c0.2-0.1,0.2-0.2,0.4-0.3c0.4-0.3,0.8-0.6,1.2-0.9l7.3-4.2L220.4,377.8L220.4,377.8z"/>
	<path class="st0" d="M255.9,370.7c3.6-2.1,6.6-0.4,6.6,3.7l0.3,97.3c0,4.1-3,9.3-6.6,11.3l-31.3,18c-3.6,2.1-6.6,0.4-6.6-3.8
		l-0.3-97.3c0-4.1,3-9.3,6.6-11.3l7.3-4.2c0,0.4-0.1,0.8-0.1,1.2c0,5.3,3.7,7.4,8.4,4.8c4.6-2.7,8.4-9.1,8.4-14.5
		c0-0.4,0-0.7-0.1-1.1L255.9,370.7z"/>
	<path class="st2" d="M239.1,366.5l7.3,4.1l-14.3,14l-3.1-1.8l7.1-16.3H239.1z"/>
	<path class="st19" d="M240.3,371.1c4.6-2.7,8.4-0.5,8.4,4.8c0,5.3-3.7,11.8-8.4,14.5c-4.6,2.7-8.4,0.5-8.4-4.8
		C231.9,380.2,235.6,373.8,240.3,371.1z"/>
	<path class="st3" d="M331.3,282.6c0.2-0.1,0.3-0.1,0.5-0.2c0.1,0,0.2-0.1,0.3-0.1c0.1,0,0.2-0.1,0.2-0.1c0.2,0,0.2-0.1,0.3-0.1h0.8
		c0.2,0,0.3,0,0.5,0.1h0.2c0.2,0,0.2,0.1,0.4,0.1c0,0,0.1,0,0.1,0.1l0.5,0.2l-11.6-6.7c-0.1-0.1-0.2-0.1-0.3-0.2H323
		c0,0-0.1,0-0.1-0.1c-0.1,0-0.1-0.1-0.2-0.1c-0.1,0-0.2,0-0.2-0.1h-0.2c-0.2,0-0.2,0-0.4-0.1h-1c-0.1,0-0.2,0-0.2,0.1h-0.2
		c-0.1,0-0.1,0-0.2,0.1c-0.2,0.1-0.3,0.1-0.5,0.2c-0.1,0-0.1,0-0.2,0.1c0,0-0.1,0-0.1,0.1c-0.2,0.1-0.5,0.2-0.8,0.4l-7.3,4.2
		l11.6,6.7l7.3-4.2C330.9,282.9,331.1,282.7,331.3,282.6C331.2,282.7,331.2,282.6,331.3,282.6L331.3,282.6z"/>
	<path class="st4" d="M308.7,302.4l-11.6-6.7h0.1L308.7,302.4C308.7,302.4,308.7,302.4,308.7,302.4"/>
	<path class="st5" d="M308.7,302.4l-11.6-6.7c0.2,0.1,0.3,0.2,0.4,0.2l11.6,6.7C309.1,302.5,308.9,302.4,308.7,302.4"/>
	<path class="st6" d="M309.1,302.6l-11.6-6.7c0.2,0.1,0.3,0.1,0.5,0.2l11.6,6.7C309.4,302.7,309.3,302.6,309.1,302.6"/>
	<path class="st7" d="M309.6,302.7L298,296c0.2,0.1,0.3,0.1,0.5,0.1l11.6,6.7C309.9,302.8,309.8,302.7,309.6,302.7"/>
	<path class="st8" d="M310.1,302.8l-11.6-6.7c0.2,0,0.3,0.1,0.5,0.1l11.6,6.7C310.4,302.9,310.2,302.8,310.1,302.8"/>
	<path class="st9" d="M310.6,302.9l-11.6-6.7h0.5l11.6,6.7H310.6"/>
	<path class="st10" d="M311.2,302.9l-11.6-6.7c0.2,0,0.4,0,0.6-0.1l11.6,6.7C311.6,302.8,311.3,302.9,311.2,302.9"/>
	<path class="st11" d="M311.8,302.8l-11.6-6.7c0.2,0,0.5-0.1,0.7-0.2l11.6,6.7C312.3,302.7,312,302.7,311.8,302.8"/>
	<path class="st12" d="M312.5,302.7l-11.6-6.7c0.3-0.1,0.6-0.2,1-0.3l11.6,6.7C313.1,302.4,312.8,302.6,312.5,302.7"/>
	<path class="st13" d="M313.5,302.4l-11.6-6.7c0.4-0.2,0.8-0.4,1.2-0.5c1-0.5,2-1.3,2.8-2.2l11.6,6.7c-0.9,0.9-1.8,1.6-2.8,2.2
		C314.3,302,313.9,302.2,313.5,302.4"/>
	<path class="st12" d="M317.4,299.5l-11.6-6.7l0.9-0.9l11.6,6.7C318,298.9,317.7,299.3,317.4,299.5"/>
	<path class="st11" d="M318.4,298.6l-11.6-6.7c0.2-0.2,0.5-0.5,0.7-0.9l11.6,6.7C318.8,298.1,318.6,298.4,318.4,298.6"/>
	<path class="st10" d="M319.1,297.7l-11.6-6.7c0.2-0.2,0.4-0.5,0.5-0.8l11.6,6.7C319.4,297.3,319.2,297.5,319.1,297.7"/>
	<path class="st9" d="M319.6,297l-11.6-6.7l0.5-0.7l11.6,6.7L319.6,297"/>
	<path class="st8" d="M320.1,296.3l-11.6-6.7l0.5-0.7l11.6,6.7L320.1,296.3"/>
	<path class="st7" d="M320.5,295.6l-11.6-6.7c0.2-0.2,0.2-0.5,0.4-0.7l11.6,6.7C320.8,295.2,320.6,295.4,320.5,295.6"/>
	<path class="st6" d="M320.9,294.9l-11.6-6.7c0.2-0.2,0.2-0.5,0.4-0.7l11.6,6.7C321.2,294.4,321,294.7,320.9,294.9"/>
	<path class="st5" d="M321.2,294.2l-11.6-6.7c0.1-0.2,0.2-0.5,0.3-0.7l11.6,6.7C321.5,293.7,321.4,293.9,321.2,294.2"/>
	<path class="st4" d="M321.6,293.4l-11.6-6.7c0.1-0.2,0.2-0.5,0.3-0.8l11.6,6.7C321.8,293,321.7,293.2,321.6,293.4"/>
	<path class="st14" d="M321.9,292.7l-11.6-6.7c0.1-0.2,0.2-0.5,0.3-0.8l11.6,6.7C322.1,292.2,322,292.4,321.9,292.7"/>
	<path class="st15" d="M322.2,291.9l-11.6-6.7c0.1-0.3,0.2-0.5,0.2-0.9l11.6,6.7C322.3,291.3,322.3,291.7,322.2,291.9"/>
	<path class="st16" d="M322.4,291l-11.6-6.7l0.2-0.9l11.6,6.7L322.4,291"/>
	<path class="st17" d="M322.6,290.1l-11.6-6.7l0.2-1.2l11.6,6.7L322.6,290.1"/>
	<path class="st18" d="M322.9,288.9l-11.6-6.7c0.1-0.5,0.1-1.1,0.1-1.6l11.6,6.7C323,287.8,323,288.4,322.9,288.9"/>
	<path class="st3" d="M294.7,290.2l-7.3,4.2c-0.4,0.2-0.9,0.5-1.2,0.9c-0.2,0.1-0.2,0.2-0.4,0.3c-0.2,0.2-0.4,0.3-0.5,0.5
		c-0.1,0.1-0.2,0.2-0.2,0.3l-0.2,0.2l-0.2,0.2c-0.2,0.2-0.4,0.4-0.5,0.6c-0.1,0.1-0.2,0.2-0.2,0.2c0,0.1-0.1,0.1-0.1,0.2
		c-0.1,0.1-0.1,0.2-0.2,0.2c-0.2,0.2-0.2,0.4-0.4,0.5c-0.2,0.2-0.2,0.4-0.3,0.5v0.2l-0.2,0.5c-0.1,0.2-0.2,0.4-0.3,0.5l-0.2,0.5
		c-0.1,0.2-0.2,0.4-0.2,0.6c-0.1,0.2-0.2,0.4-0.2,0.6c0,0.1-0.1,0.2-0.1,0.3s0,0.1-0.1,0.2c0,0.1-0.1,0.2-0.1,0.2
		c-0.1,0.2-0.2,0.5-0.2,0.8c0,0.2-0.1,0.3-0.1,0.5c0,0.1,0,0.2-0.1,0.2v0.2c-0.1,0.5-0.1,0.9-0.1,1.2l0.5,154.8c0,2,0.7,3.5,2,4.2
		l11.6,6.7c-1.2-0.7-2-2.1-2-4.2l-7.7-4.5l7.7,4.5l-0.6-154.8c0-0.5,0.1-1,0.2-1.5c0-0.1,0-0.2,0.1-0.2c0.1-0.5,0.2-0.9,0.3-1.4
		c0-0.1,0-0.1,0.1-0.2c0.2-0.5,0.3-1,0.5-1.6c0.2-0.5,0.5-1,0.8-1.6V306l0.9-1.4c0-0.1,0.1-0.1,0.1-0.2l0.9-1.2l0.2-0.2
		c0.2-0.3,0.5-0.5,0.9-0.8c0.2-0.1,0.2-0.2,0.4-0.3c0.4-0.3,0.8-0.6,1.2-0.9l7.3-4.2L294.7,290.2L294.7,290.2z"/>
	<path class="st0" d="M330.3,283.1c3.6-2.1,6.6-0.4,6.6,3.8l0.5,154.8c0,4.1-3,9.3-6.6,11.3l-31.4,18.1c-3.6,2.1-6.6,0.4-6.6-3.8
		l-0.4-154.8c0-4.1,3-9.3,6.6-11.3l7.3-4.2c0,5.3,3.8,7.4,8.4,4.8c4.6-2.7,8.4-9.1,8.4-14.5L330.3,283.1L330.3,283.1z"/>
	<path class="st2" d="M311,280.2l7.5,4.2l-10.9,13.4l-6.2-3.7L311,280.2z"/>
	<path class="st19" d="M314.5,282.3c4.6-2.7,8.4-0.5,8.4,4.8c0,5.3-3.8,11.8-8.4,14.5c-4.6,2.7-8.4,0.5-8.4-4.8
		C306.2,291.4,309.9,284.9,314.5,282.3z"/>
	<path class="st2" d="M308.9,275l-0.5-0.2h-0.1c-0.1,0-0.1,0-0.2-0.1c-0.1,0-0.2-0.1-0.2-0.1c-0.1,0-0.2,0-0.2-0.1h-0.2
		c-0.2,0-0.3-0.1-0.5-0.1h-1.2c-0.1,0-0.2,0-0.2,0.1c-0.1,0-0.2,0.1-0.3,0.1s-0.2,0-0.2,0.1c-0.1,0-0.2,0.1-0.2,0.1
		c-0.2,0.1-0.4,0.2-0.6,0.2c-0.1,0-0.2,0.1-0.2,0.1c0,0-0.1,0.1-0.2,0.1c-0.3,0.2-0.7,0.3-1,0.5c-0.5,0.2-0.9,0.5-1.3,0.9
		c-0.1,0.1-0.2,0.1-0.2,0.2c-0.4,0.3-0.8,0.7-1.2,1l-0.1,0.1L300,278c-0.2,0.2-0.4,0.4-0.5,0.6l-0.2,0.2l-0.2,0.2
		c-0.1,0.2-0.2,0.2-0.3,0.4l-0.2,0.2c-0.1,0.1-0.1,0.2-0.2,0.2c-0.1,0.1-0.2,0.2-0.2,0.3c-0.1,0.1-0.1,0.2-0.2,0.2
		c-0.1,0.2-0.2,0.2-0.2,0.4c-0.1,0.1-0.1,0.2-0.2,0.2l-0.1,0.1l-0.5,0.7v0.1c0,0.1-0.1,0.1-0.1,0.2c-0.1,0.2-0.2,0.3-0.3,0.5
		c-0.1,0.1-0.1,0.2-0.2,0.2c-0.1,0.1-0.1,0.2-0.2,0.2c0,0.1-0.1,0.2-0.1,0.2c-0.1,0.2-0.2,0.4-0.2,0.6c0,0,0,0.1-0.1,0.1
		c-0.1,0.2-0.2,0.5-0.3,0.8c0,0.1,0,0.1-0.1,0.2c0,0.1-0.1,0.2-0.1,0.3c-0.1,0.2-0.1,0.2-0.2,0.4c0,0.1-0.1,0.2-0.1,0.3
		c0,0.1-0.1,0.2-0.1,0.3s-0.1,0.2-0.1,0.2c0,0.2-0.1,0.2-0.1,0.4s-0.1,0.3-0.1,0.4v0.2c0,0.1,0,0.2-0.1,0.3
		c-0.1,0.2-0.1,0.5-0.1,0.7v0.3c-0.1,0.5-0.1,1-0.1,1.5v0.2l11.6,6.7v-0.2c0-0.5,0-0.9,0.1-1.5c0-0.2,0-0.2,0.1-0.4
		c0-0.2,0.1-0.5,0.1-0.7c0-0.2,0.1-0.3,0.1-0.5s0.1-0.3,0.1-0.4c0.1-0.2,0.1-0.4,0.2-0.6c0-0.1,0.1-0.2,0.1-0.3l0.2-0.7
		c0-0.1,0.1-0.2,0.1-0.3c0.1-0.3,0.2-0.6,0.4-0.9c0,0,0-0.1,0.1-0.1c0.2-0.2,0.2-0.5,0.4-0.8c0.1-0.1,0.1-0.2,0.2-0.2
		c0.2-0.2,0.2-0.5,0.4-0.8c0-0.1,0.1-0.1,0.1-0.2c0.2-0.3,0.3-0.5,0.5-0.9c0.1-0.1,0.1-0.2,0.2-0.2c0.2-0.2,0.3-0.4,0.4-0.6
		c0.1-0.1,0.2-0.2,0.2-0.3c0.2-0.2,0.2-0.3,0.4-0.5c0.1-0.2,0.2-0.2,0.3-0.4c0.1-0.2,0.2-0.2,0.3-0.4c0.2-0.2,0.4-0.4,0.5-0.6
		l0.3-0.3c0.4-0.4,0.8-0.7,1.2-1c0.1-0.1,0.2-0.1,0.2-0.2c0.4-0.3,0.9-0.6,1.3-0.9c0.4-0.2,0.7-0.4,1-0.5c0.1-0.1,0.2-0.1,0.3-0.2
		c0.2-0.1,0.4-0.2,0.6-0.2c0.2,0,0.2-0.1,0.4-0.1c0.1,0,0.2-0.1,0.3-0.1c0.2,0,0.3-0.1,0.5-0.1h0.9c0.2,0,0.4,0.1,0.6,0.1h0.2
		c0.2,0,0.3,0.1,0.5,0.2c0.1,0,0.1,0,0.2,0.1c0.2,0.1,0.4,0.2,0.5,0.2L308.9,275L308.9,275z"/>
	<path class="st3" d="M405.9,287.9c0.2-0.1,0.3-0.1,0.5-0.2c0.1,0,0.2-0.1,0.3-0.1c0.1,0,0.2-0.1,0.2-0.1c0.2,0,0.2-0.1,0.3-0.1h0.7
		c0.2,0,0.3,0,0.5,0.1h0.2c0.2,0,0.2,0.1,0.4,0.1c0,0,0.1,0,0.1,0.1l0.5,0.2l-11.6-6.7c-0.1-0.1-0.2-0.1-0.3-0.2h-0.1
		c0,0-0.1,0-0.1-0.1c-0.1,0-0.1-0.1-0.2-0.1c-0.1,0-0.2,0-0.2-0.1h-0.2c-0.2,0-0.2,0-0.4-0.1h-1c-0.1,0-0.2,0-0.2,0.1h-0.2
		c-0.1,0-0.1,0-0.2,0.1c-0.2,0.1-0.3,0.1-0.5,0.2c-0.1,0-0.1,0-0.2,0.1c0,0-0.1,0-0.1,0.1c-0.2,0.1-0.5,0.2-0.8,0.4l-7.3,4.2
		l11.6,6.7l7.3-4.2C405.3,288.2,405.5,288.1,405.9,287.9C405.7,288,405.8,288,405.9,287.9L405.9,287.9z"/>
	<path class="st4" d="M383.2,307.7l-11.6-6.7h0.1L383.2,307.7"/>
	<path class="st5" d="M383.2,307.7l-11.6-6.7c0.2,0.1,0.3,0.2,0.4,0.2l11.6,6.7C383.5,307.8,383.4,307.7,383.2,307.7"/>
	<path class="st6" d="M383.7,307.9l-11.6-6.7c0.2,0.1,0.3,0.1,0.5,0.2l11.6,6.7C383.9,308,383.8,307.9,383.7,307.9"/>
	<path class="st7" d="M384.1,308.1l-11.6-6.7c0.2,0.1,0.3,0.1,0.5,0.1l11.6,6.7C384.4,308.1,384.2,308.1,384.1,308.1"/>
	<path class="st8" d="M384.5,308.1l-11.6-6.7c0.2,0,0.3,0.1,0.5,0.1l11.6,6.7C384.9,308.2,384.7,308.1,384.5,308.1"/>
	<path class="st9" d="M385.1,308.2l-11.6-6.7h0.5l11.6,6.7H385.1"/>
	<path class="st10" d="M385.6,308.2l-11.6-6.7c0.2,0,0.4,0,0.6-0.1l11.6,6.7C386,308.1,385.9,308.2,385.6,308.2"/>
	<path class="st11" d="M386.2,308.1l-11.6-6.7c0.2,0,0.5-0.1,0.7-0.2l11.6,6.7C386.7,308.1,386.5,308.1,386.2,308.1"/>
	<path class="st12" d="M386.9,308l-11.6-6.7c0.3-0.1,0.6-0.2,1-0.3l11.6,6.7C387.6,307.7,387.3,307.9,386.9,308"/>
	<path class="st13" d="M388,307.7l-11.6-6.7c0.4-0.2,0.8-0.4,1.2-0.5c1-0.5,2-1.3,2.8-2.2l11.6,6.7c-0.9,0.9-1.8,1.6-2.8,2.2
		C388.7,307.3,388.4,307.5,388,307.7"/>
	<path class="st12" d="M391.9,304.9l-11.6-6.7l0.9-0.9l11.6,6.7C392.6,304.2,392.3,304.6,391.9,304.9"/>
	<path class="st11" d="M392.8,303.9l-11.6-6.7c0.2-0.2,0.5-0.5,0.7-0.9l11.6,6.7C393.3,303.4,393,303.7,392.8,303.9"/>
	<path class="st10" d="M393.5,303.1l-11.6-6.7c0.2-0.2,0.4-0.5,0.5-0.8l11.6,6.7C393.9,302.6,393.7,302.8,393.5,303.1"/>
	<path class="st9" d="M394.1,302.4l-11.6-6.7l0.5-0.7l11.6,6.7L394.1,302.4"/>
	<path class="st8" d="M394.5,301.7l-11.6-6.7l0.5-0.7l11.6,6.7L394.5,301.7"/>
	<path class="st7" d="M395,300.9l-11.6-6.7c0.2-0.2,0.2-0.5,0.4-0.7l11.6,6.7C395.2,300.4,395.1,300.6,395,300.9"/>
	<path class="st6" d="M395.4,300.2l-11.6-6.7c0.2-0.2,0.2-0.5,0.4-0.7l11.6,6.7C395.6,299.7,395.5,299.9,395.4,300.2"/>
	<path class="st5" d="M395.8,299.5l-11.6-6.7c0.1-0.2,0.2-0.5,0.3-0.7l11.6,6.7C396,299,395.9,299.2,395.8,299.5"/>
	<path class="st4" d="M396.1,298.8l-11.6-6.7c0.1-0.2,0.2-0.5,0.3-0.8l11.6,6.7C396.3,298.3,396.2,298.5,396.1,298.8"/>
	<path class="st14" d="M396.4,298l-11.6-6.7c0.1-0.2,0.2-0.5,0.3-0.8l11.6,6.7C396.6,297.5,396.5,297.7,396.4,298"/>
	<path class="st15" d="M396.6,297.2l-11.6-6.7c0.1-0.3,0.2-0.5,0.2-0.9l11.6,6.7C396.9,296.7,396.8,297,396.6,297.2"/>
	<path class="st16" d="M396.9,296.3l-11.6-6.7l0.2-0.9l11.6,6.7L396.9,296.3"/>
	<path class="st17" d="M397.2,295.4l-11.6-6.7l0.2-1.2l11.6,6.7L397.2,295.4"/>
	<path class="st18" d="M397.3,294.2l-11.6-6.7c0.1-0.5,0.1-1.1,0.1-1.6l11.6,6.7C397.5,293.1,397.4,293.7,397.3,294.2"/>
	<path class="st3" d="M357.6,430l11.6,6.7c-1.2-0.7-2-2.1-2-4.2l-11.6-6.7C355.7,427.9,356.4,429.4,357.6,430z M369.1,295.6
		l-7.3,4.2c-0.4,0.2-0.9,0.5-1.3,0.9c-0.2,0.1-0.2,0.2-0.4,0.3c-0.2,0.2-0.4,0.3-0.5,0.5c-0.1,0.1-0.2,0.2-0.2,0.3l-0.2,0.2
		l-0.2,0.2c-0.2,0.2-0.4,0.4-0.5,0.6c-0.1,0.1-0.2,0.2-0.2,0.2c0,0.1-0.1,0.1-0.1,0.2c-0.1,0.1-0.1,0.2-0.2,0.2
		c-0.2,0.2-0.2,0.4-0.4,0.5c-0.2,0.2-0.2,0.4-0.3,0.5v0.2l-0.2,0.5c-0.1,0.2-0.2,0.4-0.3,0.5c-0.1,0.2-0.2,0.3-0.2,0.5
		c-0.1,0.2-0.2,0.4-0.2,0.6c-0.1,0.2-0.2,0.4-0.2,0.6c0,0.1-0.1,0.2-0.1,0.3s0,0.1-0.1,0.2c0,0.1-0.1,0.2-0.1,0.2
		c-0.1,0.2-0.2,0.5-0.2,0.8c0,0.2-0.1,0.3-0.1,0.5c0,0.1,0,0.2-0.1,0.2v0.2c-0.1,0.5-0.1,0.9-0.1,1.3l0.3,114.7l11.6,6.7L367,317.9
		c0-0.5,0.1-1,0.2-1.5c0-0.1,0-0.2,0.1-0.2c0.1-0.5,0.2-0.9,0.3-1.4c0-0.1,0-0.1,0.1-0.2c0.2-0.5,0.3-1,0.5-1.6
		c0.2-0.5,0.5-1,0.8-1.6v-0.1l0.9-1.4c0-0.1,0.1-0.1,0.1-0.2l0.9-1.2l0.2-0.2c0.2-0.3,0.5-0.5,0.9-0.8c0.2-0.1,0.2-0.2,0.4-0.3
		c0.4-0.3,0.8-0.6,1.2-0.9l7.3-4.2L369.1,295.6L369.1,295.6z"/>
	<path class="st0" d="M404.8,288.4c3.6-2.1,6.6-0.4,6.6,3.8l0.3,114.7c0,4.1-3,9.3-6.6,11.3l-31.2,18.1c-3.6,2.1-6.6,0.4-6.6-3.8
		l-0.3-114.7c0-4.1,3-9.3,6.6-11.3l7.3-4.2c0,5.3,3.8,7.4,8.4,4.8c4.6-2.7,8.4-9.1,8.4-14.5L404.8,288.4L404.8,288.4z"/>
	<path class="st19" d="M389.1,287.8c4.6-2.7,8.4-0.5,8.4,4.8c0,5.3-3.8,11.8-8.4,14.5c-4.6,2.7-8.4,0.5-8.4-4.8
		C380.8,297,384.5,290.5,389.1,287.8z"/>
	<path class="st2" d="M383.5,280.6l-0.5-0.2H383c-0.1,0-0.1,0-0.2-0.1c-0.1,0-0.2-0.1-0.2-0.1c-0.1,0-0.2,0-0.2-0.1h-0.2
		c-0.2,0-0.3-0.1-0.5-0.1h-1.2c-0.1,0-0.2,0-0.2,0.1c-0.1,0-0.2,0.1-0.3,0.1s-0.2,0-0.2,0.1c-0.1,0-0.2,0.1-0.2,0.1
		c-0.2,0.1-0.4,0.2-0.6,0.2c-0.1,0-0.2,0.1-0.2,0.1c0,0-0.1,0.1-0.2,0.1c-0.3,0.2-0.7,0.3-1,0.5c-0.5,0.2-0.9,0.5-1.3,0.9
		c-0.1,0.1-0.2,0.1-0.2,0.2c-0.4,0.3-0.8,0.7-1.2,1l-0.1,0.1l-0.2,0.2c-0.2,0.2-0.4,0.4-0.5,0.6c-0.1,0.1-0.1,0.2-0.2,0.2l-0.2,0.2
		c-0.1,0.2-0.2,0.2-0.3,0.4l-0.2,0.2c-0.1,0.1-0.1,0.2-0.2,0.2c-0.1,0.1-0.2,0.2-0.2,0.3c-0.1,0.1-0.1,0.2-0.2,0.2
		c-0.1,0.2-0.2,0.2-0.2,0.4c-0.1,0.1-0.1,0.2-0.2,0.2l-0.1,0.1l-0.5,0.7v0.1c0,0.1-0.1,0.1-0.1,0.2c-0.1,0.2-0.2,0.3-0.3,0.5
		c-0.1,0.1-0.1,0.2-0.2,0.2c-0.1,0.1-0.1,0.2-0.2,0.2c0,0.1-0.1,0.2-0.1,0.2c-0.1,0.2-0.2,0.4-0.3,0.6c0,0,0,0.1-0.1,0.1
		c-0.1,0.2-0.2,0.5-0.3,0.8c0,0.1,0,0.1-0.1,0.2c0,0.1-0.1,0.2-0.1,0.3c-0.1,0.2-0.1,0.2-0.2,0.4c0,0.1-0.1,0.2-0.1,0.3
		c0,0.1-0.1,0.2-0.1,0.3c0,0.1,0,0.2-0.1,0.2c0,0.2-0.1,0.2-0.1,0.4c0,0.2-0.1,0.3-0.1,0.4v0.2c0,0.1-0.1,0.2-0.1,0.3
		c-0.1,0.2-0.1,0.5-0.1,0.7v0.3c-0.1,0.5-0.1,1-0.1,1.5v0.2l11.6,6.6c0-0.5,0-0.9,0.1-1.4v-0.3c0-0.2,0.1-0.5,0.1-0.7
		c0-0.1,0-0.2,0.1-0.3v-0.2c0-0.2,0.1-0.3,0.1-0.4c0-0.2,0.1-0.2,0.1-0.4c0-0.1,0.1-0.2,0.1-0.2c0-0.1,0.1-0.2,0.1-0.3
		s0.1-0.2,0.1-0.3c0.1-0.2,0.1-0.2,0.2-0.4c0-0.1,0.1-0.2,0.1-0.3c0-0.1,0-0.1,0.1-0.2c0.1-0.2,0.2-0.5,0.3-0.8c0,0,0-0.1,0.1-0.1
		c0.1-0.2,0.2-0.4,0.2-0.6c0-0.1,0.1-0.2,0.1-0.2c0.1-0.1,0.1-0.2,0.2-0.2c0.1-0.1,0.1-0.2,0.2-0.2c0.1-0.2,0.2-0.3,0.3-0.5
		c0-0.1,0.1-0.1,0.1-0.2v-0.1l0.5-0.7l0.1-0.1c0.1-0.1,0.1-0.2,0.2-0.2c0.1-0.2,0.2-0.2,0.2-0.4c0.1-0.1,0.1-0.2,0.2-0.2
		c0.1-0.1,0.2-0.2,0.2-0.3c0.1-0.1,0.1-0.2,0.2-0.2l0.2-0.2c0.1-0.2,0.2-0.2,0.3-0.4l0.2-0.2l0.2-0.2c0.2-0.2,0.4-0.4,0.5-0.6
		c0.1-0.1,0.1-0.2,0.2-0.2l0.1-0.1c0.4-0.4,0.8-0.7,1.2-1c0.1-0.1,0.2-0.1,0.2-0.2c0.4-0.3,0.9-0.6,1.3-0.9c0.4-0.2,0.7-0.4,1-0.5
		c0.1-0.1,0.2-0.1,0.3-0.2c0.2-0.1,0.4-0.2,0.6-0.2c0.2,0,0.2-0.1,0.4-0.1c0.1,0,0.2-0.1,0.3-0.1c0.2,0,0.3-0.1,0.5-0.1h0.9
		c0.2,0,0.4,0.1,0.6,0.1h0.2c0.2,0,0.3,0.1,0.5,0.2c0.1,0,0.1,0,0.2,0.1c0.2,0.1,0.4,0.2,0.5,0.2L383.5,280.6L383.5,280.6z"/>
	<path class="st3" d="M480.1,147.8c0.2-0.1,0.3-0.1,0.5-0.2c0.1,0,0.2-0.1,0.3-0.1c0.1,0,0.2-0.1,0.2-0.1c0.2,0,0.2-0.1,0.3-0.1h0.8
		c0.2,0,0.3,0,0.5,0.1h0.2c0.2,0,0.2,0.1,0.4,0.1c0,0,0.1,0,0.1,0.1l0.5,0.2l-11.6-6.7c-0.1-0.1-0.2-0.1-0.3-0.2h-0.1
		c0,0-0.1,0-0.1-0.1c-0.1,0-0.1-0.1-0.2-0.1s-0.2,0-0.2-0.1h-0.2c-0.2,0-0.2,0-0.4-0.1h-1c-0.1,0-0.2,0-0.2,0.1h-0.2
		c-0.1,0-0.1,0-0.2,0.1c-0.2,0.1-0.3,0.1-0.5,0.2c-0.1,0-0.1,0-0.2,0.1c0,0-0.1,0-0.1,0.1c-0.2,0.1-0.5,0.2-0.8,0.4l-7.3,4.2
		l11.6,6.7l7.3-4.2C479.6,148.1,479.8,148,480.1,147.8C479.9,147.9,480,147.8,480.1,147.8z"/>
	<path class="st4" d="M457.4,167.6l-11.6-6.7h0.1L457.4,167.6C457.5,167.6,457.5,167.6,457.4,167.6"/>
	<path class="st5" d="M457.5,167.6l-11.6-6.7c0.2,0.1,0.3,0.2,0.4,0.2l11.6,6.7C457.7,167.7,457.6,167.7,457.5,167.6"/>
	<path class="st6" d="M457.9,167.8l-11.6-6.7c0.2,0.1,0.3,0.1,0.5,0.2l11.6,6.7C458.2,167.9,458,167.8,457.9,167.8"/>
	<path class="st7" d="M458.4,168l-11.6-6.7c0.2,0.1,0.3,0.1,0.5,0.1l11.6,6.7C458.7,168.1,458.5,168,458.4,168"/>
	<path class="st8" d="M458.8,168.1l-11.6-6.7c0.2,0,0.3,0.1,0.5,0.1l11.6,6.7C459.1,168.1,459,168.1,458.8,168.1"/>
	<path class="st9" d="M459.3,168.1l-11.6-6.7h0.5l11.6,6.7H459.3"/>
	<path class="st10" d="M459.9,168.1l-11.6-6.7c0.2,0,0.4,0,0.6-0.1l11.6,6.7C460.3,168.1,460.1,168.1,459.9,168.1"/>
	<path class="st11" d="M460.5,168.1l-11.6-6.7c0.2,0,0.5-0.1,0.7-0.2l11.6,6.7C461,168,460.8,168.1,460.5,168.1"/>
	<path class="st12" d="M461.2,167.9l-11.6-6.7c0.3-0.1,0.6-0.2,1-0.3l11.6,6.7C461.9,167.7,461.6,167.8,461.2,167.9"/>
	<path class="st13" d="M462.3,167.6l-11.6-6.7c0.4-0.2,0.8-0.4,1.2-0.5c1-0.5,2-1.3,2.8-2.2l11.6,6.7c-0.9,0.9-1.8,1.6-2.8,2.2
		C463,167.2,462.6,167.4,462.3,167.6"/>
	<path class="st12" d="M466.2,164.9l-11.6-6.7l0.9-0.9l11.6,6.7L466.2,164.9"/>
	<path class="st11" d="M467.1,163.8l-11.6-6.7c0.2-0.2,0.5-0.5,0.7-0.9l11.6,6.7C467.6,163.3,467.3,163.6,467.1,163.8"/>
	<path class="st10" d="M467.8,163.1l-11.6-6.7c0.2-0.2,0.4-0.5,0.5-0.8l11.6,6.7C468.1,162.5,468,162.7,467.8,163.1"/>
	<path class="st9" d="M468.4,162.3l-11.6-6.7l0.5-0.7l11.6,6.7L468.4,162.3"/>
	<path class="st8" d="M468.8,161.6l-11.6-6.7l0.5-0.7l11.6,6.7L468.8,161.6"/>
	<path class="st7" d="M469.2,160.9l-11.6-6.7c0.2-0.2,0.2-0.5,0.4-0.7l11.6,6.7C469.5,160.4,469.4,160.6,469.2,160.9"/>
	<path class="st6" d="M469.6,160.2l-11.6-6.7c0.2-0.2,0.2-0.5,0.4-0.7l11.6,6.7C469.9,159.7,469.8,159.9,469.6,160.2"/>
	<path class="st5" d="M470,159.5l-11.6-6.7c0.1-0.2,0.2-0.5,0.3-0.7l11.6,6.7C470.2,158.9,470.1,159.2,470,159.5"/>
	<path class="st4" d="M470.3,158.7l-11.6-6.7c0.1-0.2,0.2-0.5,0.3-0.8l11.6,6.7C470.5,158.2,470.5,158.4,470.3,158.7"/>
	<path class="st14" d="M470.6,158l-11.6-6.7c0.1-0.2,0.2-0.5,0.3-0.8l11.6,6.7C470.9,157.4,470.8,157.7,470.6,158"/>
	<path class="st15" d="M470.9,157.1l-11.6-6.7c0.1-0.3,0.2-0.5,0.2-0.9l11.6,6.7C471.1,156.6,471,156.9,470.9,157.1"/>
	<path class="st16" d="M471.2,156.3l-11.6-6.7l0.2-0.9l11.6,6.7C471.3,155.6,471.2,155.9,471.2,156.3"/>
	<path class="st17" d="M471.4,155.3l-11.6-6.7l0.2-1.2l11.6,6.7L471.4,155.3"/>
	<path class="st18" d="M471.6,154.2l-11.6-6.7c0.1-0.5,0.1-1.1,0.1-1.6l11.6,6.7C471.7,153.1,471.7,153.6,471.6,154.2"/>
	<path class="st20" d="M432.2,388.8l11.6,6.7c-1.2-0.7-2-2.1-2-4.2l-11.6-6.7C430.2,386.7,431,388.2,432.2,388.8z"/>
	<path class="st3" d="M443.5,155.5l-7.3,4.2c-0.4,0.2-0.9,0.5-1.2,0.9c-0.2,0.1-0.2,0.2-0.4,0.3c-0.2,0.2-0.4,0.3-0.5,0.5l-0.2,0.2
		l-0.2,0.2l-0.2,0.2c-0.2,0.2-0.4,0.4-0.5,0.6c-0.1,0.1-0.2,0.2-0.2,0.2s-0.1,0.1-0.1,0.2c-0.1,0.1-0.1,0.2-0.2,0.2
		c-0.2,0.2-0.2,0.4-0.4,0.5c-0.2,0.2-0.2,0.4-0.3,0.5v0.2l-0.2,0.5c-0.1,0.2-0.2,0.4-0.3,0.5l-0.2,0.5c-0.1,0.2-0.2,0.4-0.2,0.6
		c-0.1,0.2-0.2,0.4-0.2,0.6c0,0.1-0.1,0.2-0.1,0.3c0,0.1,0,0.1-0.1,0.2c0,0.1-0.1,0.2-0.1,0.2c-0.1,0.2-0.2,0.5-0.2,0.8
		c0,0.2-0.1,0.3-0.1,0.5c0,0.1,0,0.2-0.1,0.2v0.2c-0.1,0.5-0.1,0.9-0.1,1.2l0.6,213.6l11.3,6.9l-0.6-213.6c0-0.5,0.1-1,0.2-1.5
		c0-0.1,0-0.2,0.1-0.2c0.1-0.5,0.2-0.9,0.3-1.4c0-0.1,0-0.1,0.1-0.2c0.2-0.5,0.3-1,0.5-1.6c0.2-0.5,0.5-1,0.8-1.6v-0.1l0.9-1.4
		c0-0.1,0.1-0.1,0.1-0.2l0.9-1.2l0.2-0.2c0.2-0.3,0.5-0.5,0.9-0.8c0.2-0.1,0.2-0.2,0.4-0.3c0.4-0.3,0.8-0.6,1.2-0.9l7.3-4.2
		L443.5,155.5L443.5,155.5z"/>
	<path class="st0" d="M479,148.4c3.6-2.1,6.6-0.4,6.6,3.8l0.6,213.6c0,4.1-3,9.3-6.6,11.3l-31.3,18c-3.6,2.1-6.6,0.4-6.6-3.7
		l-0.6-213.6c0-4.1,3-9.3,6.6-11.3l7.3-4.2c0,5.3,3.8,7.4,8.4,4.8c4.6-2.7,8.4-9.1,8.4-14.5L479,148.4L479,148.4z"/>
	<path class="st19" d="M463.4,147.7c4.6-2.7,8.4-0.5,8.4,4.8s-3.8,11.8-8.4,14.5c-4.6,2.7-8.4,0.5-8.4-4.8
		C455.1,156.9,458.8,150.4,463.4,147.7z"/>
	<path class="st2" d="M457.8,140.5l-0.5-0.2h-0.1c-0.1,0-0.1,0-0.2-0.1c-0.1,0-0.2-0.1-0.2-0.1c-0.1,0-0.2,0-0.2-0.1h-0.2
		c-0.2,0-0.3-0.1-0.5-0.1h-1.2c-0.1,0-0.2,0-0.2,0.1c-0.1,0-0.2,0.1-0.3,0.1c-0.1,0-0.2,0-0.2,0.1c-0.1,0-0.2,0.1-0.2,0.1
		c-0.2,0.1-0.4,0.2-0.6,0.2c-0.1,0-0.2,0.1-0.2,0.1c-0.1,0-0.1,0.1-0.2,0.1c-0.3,0.2-0.7,0.3-1,0.5c-0.5,0.2-0.9,0.5-1.3,0.9
		c-0.1,0.1-0.2,0.1-0.2,0.2c-0.4,0.3-0.8,0.7-1.2,1l-0.1,0.1l-0.2,0.2c-0.2,0.2-0.4,0.4-0.5,0.6c-0.1,0.1-0.1,0.2-0.2,0.2l-0.2,0.2
		c-0.1,0.2-0.2,0.2-0.3,0.4l-0.2,0.2c-0.1,0.1-0.1,0.2-0.2,0.2c-0.1,0.1-0.2,0.2-0.2,0.3c-0.1,0.1-0.1,0.2-0.2,0.2
		c-0.1,0.2-0.2,0.2-0.2,0.4c-0.1,0.1-0.1,0.2-0.2,0.2l-0.1,0.1l-0.5,0.7v0.1c0,0.1-0.1,0.1-0.1,0.2c-0.1,0.2-0.2,0.3-0.3,0.5
		c-0.1,0.1-0.1,0.2-0.2,0.2c-0.1,0.1-0.1,0.2-0.2,0.2c0,0.1-0.1,0.2-0.1,0.2c-0.1,0.2-0.2,0.4-0.3,0.6c0,0,0,0.1-0.1,0.1
		c-0.1,0.2-0.2,0.5-0.3,0.8c0,0.1,0,0.1-0.1,0.2c0,0.1-0.1,0.2-0.1,0.2c-0.1,0.2-0.1,0.2-0.2,0.4c0,0.1-0.1,0.2-0.1,0.3
		c0,0.1-0.1,0.2-0.1,0.3s0,0.2-0.1,0.2c0,0.2-0.1,0.2-0.1,0.4s-0.1,0.3-0.1,0.4v0.2c0,0.1-0.1,0.2-0.1,0.3c-0.1,0.2-0.1,0.5-0.1,0.7
		v0.3c-0.1,0.5-0.1,0.9-0.1,1.4l11.6,6.9v-0.1c0-0.5,0-0.9,0.1-1.5v-0.3c0-0.2,0.1-0.5,0.1-0.7c0-0.1,0-0.2,0.1-0.3v-0.2
		c0-0.2,0.1-0.3,0.1-0.4c0-0.2,0.1-0.2,0.1-0.4c0-0.1,0.1-0.2,0.1-0.2c0-0.1,0.1-0.2,0.1-0.3c0-0.1,0.1-0.2,0.1-0.3
		c0.1-0.2,0.1-0.2,0.2-0.4c0-0.1,0.1-0.2,0.1-0.2c0-0.1,0-0.1,0.1-0.2c0.1-0.2,0.2-0.5,0.3-0.8c0,0,0-0.1,0.1-0.1
		c0.1-0.2,0.2-0.4,0.2-0.6c0-0.1,0.1-0.2,0.1-0.2c0.1-0.1,0.1-0.2,0.2-0.2c0.1-0.1,0.1-0.2,0.2-0.2c0.1-0.2,0.2-0.3,0.3-0.5
		c0-0.1,0.1-0.1,0.1-0.2v-0.1l0.5-0.7l0.1-0.1c0.1-0.1,0.1-0.2,0.2-0.2c0.1-0.2,0.2-0.2,0.2-0.4c0.1-0.1,0.1-0.2,0.2-0.2
		c0.1-0.1,0.2-0.2,0.2-0.3c0.1-0.1,0.1-0.2,0.2-0.2l0.2-0.2c0.1-0.2,0.2-0.2,0.3-0.4l0.2-0.2l0.2-0.2c0.2-0.2,0.4-0.4,0.5-0.6
		l0.2-0.2l0.1-0.1c0.4-0.4,0.8-0.7,1.2-1c0.1-0.1,0.2-0.1,0.2-0.2c0.4-0.3,0.9-0.6,1.3-0.9c0.4-0.2,0.7-0.4,1-0.5
		c0.1-0.1,0.2-0.1,0.3-0.2c0.2-0.1,0.4-0.2,0.6-0.2c0.2,0,0.2-0.1,0.4-0.1c0.1,0,0.2-0.1,0.3-0.1c0.2,0,0.3-0.1,0.5-0.1h0.9
		c0.2,0,0.4,0.1,0.6,0.1h0.2c0.2,0,0.3,0.1,0.5,0.2c0.1,0,0.1,0,0.2,0.1c0.2,0.1,0.4,0.2,0.5,0.2L457.8,140.5L457.8,140.5z"/>
	<path class="st19" d="M443.5,155.4C443.5,155.5,443.5,155.5,443.5,155.4C443.5,155.5,443.5,155.5,443.5,155.4z"/>
	<path d="M561.5,339.3C561.4,339.3,561.4,339.3,561.5,339.3c-0.2-0.2-0.4-0.2-0.6-0.3h-0.1c-0.1,0-0.2-0.1-0.2-0.1
		c-0.1,0-0.2-0.1-0.3-0.1c-0.1,0-0.2-0.1-0.3-0.1c-0.1,0-0.2,0-0.2-0.1h-0.1c-0.2,0-0.4-0.1-0.6-0.1h-1.5c-0.1,0-0.2,0.1-0.2,0.1
		c-0.2,0-0.3,0.1-0.5,0.1c-0.1,0-0.2,0-0.2,0.1c-0.1,0-0.2,0.1-0.2,0.1c-0.2,0.1-0.5,0.2-0.8,0.2c-0.1,0-0.2,0.1-0.2,0.1
		c-0.1,0-0.1,0.1-0.2,0.1c-0.5,0.2-0.9,0.4-1.3,0.6l-109.3,63.2c-0.5,0.3-1.1,0.7-1.6,1.1c-0.1,0.1-0.2,0.2-0.3,0.2
		c-0.5,0.4-1,0.9-1.5,1.3c-0.1,0.1-0.1,0.1-0.2,0.1l-0.2,0.2c-0.2,0.2-0.5,0.5-0.7,0.8l-0.2,0.2c-0.1,0.1-0.1,0.2-0.2,0.2
		c-0.2,0.2-0.3,0.3-0.4,0.5c-0.1,0.1-0.2,0.2-0.2,0.3c-0.1,0.1-0.2,0.2-0.2,0.3c-0.1,0.2-0.2,0.2-0.3,0.4c-0.1,0.1-0.2,0.2-0.2,0.3
		c-0.1,0.2-0.2,0.3-0.3,0.5c-0.1,0.1-0.2,0.2-0.2,0.3c0,0.1-0.1,0.1-0.1,0.2c-0.2,0.3-0.4,0.6-0.5,0.9v0.1c0,0.1-0.1,0.2-0.1,0.2
		c-0.2,0.2-0.2,0.5-0.4,0.6c-0.1,0.1-0.1,0.2-0.2,0.3c-0.1,0.1-0.1,0.2-0.2,0.3c-0.1,0.1-0.1,0.2-0.2,0.3c-0.2,0.2-0.2,0.5-0.3,0.7
		c0,0.1-0.1,0.1-0.1,0.2c-0.2,0.3-0.2,0.6-0.4,0.9c0,0.1-0.1,0.1-0.1,0.2c-0.1,0.1-0.1,0.2-0.2,0.3c-0.1,0.2-0.2,0.3-0.2,0.5
		c-0.1,0.2-0.1,0.2-0.1,0.4c-0.1,0.2-0.1,0.3-0.2,0.5c0,0.1-0.1,0.2-0.1,0.3c-0.1,0.2-0.1,0.3-0.2,0.5c-0.1,0.2-0.1,0.4-0.2,0.5
		c0,0.1,0,0.2-0.1,0.2c0,0.2-0.1,0.2-0.1,0.4c-0.1,0.3-0.1,0.5-0.2,0.9c0,0.1,0,0.2-0.1,0.2v0.2c-0.1,0.6-0.2,1.2-0.2,1.9l0.2,72.9
		c0,2.5,0.7,4.5,1.8,5.7c0.4,0.4,0.8,0.8,1.2,1.1l11.6,6.7c-1.9-1.1-3-3.4-3.1-6.8l0.1-72.9c0-0.6,0.1-1.2,0.2-1.9
		c0-0.2,0-0.3,0.1-0.5c0.1-0.3,0.1-0.5,0.2-0.9c0-0.2,0.1-0.4,0.1-0.5c0.1-0.2,0.1-0.4,0.2-0.5c0.1-0.2,0.2-0.5,0.2-0.8
		c0.1-0.2,0.1-0.3,0.2-0.5c0.1-0.3,0.2-0.5,0.3-0.9c0.1-0.1,0.1-0.2,0.2-0.3l0.5-1.2c0-0.1,0.1-0.1,0.1-0.2c0.2-0.3,0.3-0.7,0.5-1
		c0.1-0.1,0.1-0.2,0.2-0.3c0.2-0.3,0.3-0.6,0.5-0.9c0-0.1,0.1-0.2,0.1-0.2c0.2-0.4,0.5-0.7,0.7-1.1c0.1-0.1,0.2-0.2,0.2-0.3
		c0.2-0.2,0.3-0.5,0.5-0.8c0.1-0.2,0.2-0.2,0.3-0.4c0.2-0.2,0.3-0.4,0.5-0.6c0.2-0.2,0.2-0.3,0.4-0.5c0.2-0.2,0.2-0.3,0.4-0.5
		c0.2-0.2,0.5-0.5,0.7-0.8c0.1-0.2,0.2-0.2,0.3-0.3c0.5-0.5,1-0.9,1.5-1.3c0.1-0.1,0.2-0.2,0.3-0.2c0.5-0.4,1.1-0.8,1.6-1.1
		l109.3-63c0.5-0.2,0.9-0.5,1.3-0.6c0.2-0.1,0.3-0.1,0.4-0.2c0.2-0.1,0.5-0.2,0.8-0.2c0.2-0.1,0.3-0.1,0.5-0.2
		c0.2,0,0.3-0.1,0.5-0.1s0.4-0.1,0.5-0.1h1.2c0.2,0,0.5,0.1,0.8,0.1c0.1,0,0.2,0,0.2,0.1c0.2,0.1,0.4,0.1,0.5,0.2
		c0.1,0,0.2,0.1,0.2,0.1c0.2,0.1,0.5,0.2,0.7,0.3L561.5,339.3z"/>
	<path class="st21" d="M565.5,346.7c5.9-3.4,10.6-0.7,10.6,6l0.2,72.9c0,6.7-4.7,14.9-10.5,18.3l-109.3,63c-5.9,3.4-10.6,0.6-10.6-6
		l-0.2-72.8c0-6.7,4.7-14.9,10.5-18.3L565.5,346.7z"/>
	<path class="st22" d="M540.3,414.9l-8.1-4.7c-0.1-0.1-0.2-0.1-0.2-0.2l8.1,4.7C540.1,414.9,540.2,414.9,540.3,414.9"/>
	<path class="st23" d="M537.6,411.3l-8.1-4.7l2.5,3.4l8.1,4.8L537.6,411.3z"/>
	<path class="st24" d="M539.7,383.7c1.1-0.6,1.8,0.3,1.2,1.7l-7.3,19c-0.2,0.7-0.8,1.2-1.2,1.6c-0.5,0.3-0.9,0.3-1.2-0.1l-2.4-3.4
		l-22,27.5c-0.4,0.5-0.9,0.9-1.2,1.2c-0.9,0.5-1.7,0.5-2.2-0.2l-6.2-8.8l-22,27.3c-0.4,0.5-0.9,0.9-1.2,1.2
		c-0.9,0.5-1.7,0.5-2.2-0.2c-0.7-1-0.3-3,0.9-4.5l24.1-30.1c0.4-0.5,0.9-0.9,1.2-1.2c0.9-0.5,1.7-0.5,2.2,0.2l6.2,8.8l19.8-24.8
		l-2.4-3.4c-0.5-0.8,0.2-2.5,1.2-3.1L539.7,383.7L539.7,383.7z"/>
	<path class="st23" d="M507.1,427.8l8.1,4.7l19.8-24.8l-2.4-3.4l-8.1-4.7l2.4,3.4L507.1,427.8z"/>
	<path class="st23" d="M549.6,392.5l-4.1-2.4l-4-2.3h-0.9c-0.1,0-0.2,0.1-0.2,0.1l-14.8,8.6c-0.2,0.1-0.3,0.2-0.5,0.3l-0.2,0.2
		l-0.1,0.1c0,0.1-0.1,0.1-0.1,0.2s-0.1,0.1-0.1,0.2c0,0.1-0.1,0.1-0.1,0.2v0.1c0,0.1-0.1,0.1-0.1,0.2s0,0.1-0.1,0.2
		c0,0.1,0,0.1-0.1,0.2c0,0.1,0,0.1-0.1,0.2c0,0.1,0,0.1-0.1,0.2c0,0.1,0,0.1-0.1,0.2v0.7c0,0.2,0.1,0.3,0.2,0.4l8.1,4.7
		c-0.1-0.1-0.2-0.2-0.2-0.4v-0.8c0.1-0.3,0.2-0.6,0.3-0.9c0.1-0.2,0.2-0.3,0.2-0.4s0.2-0.2,0.3-0.3c0.2-0.2,0.3-0.2,0.5-0.3
		l14.8-8.6c0.1-0.1,0.2-0.1,0.2-0.2h0.1c0.1,0,0.2-0.1,0.2-0.1h0.2C549.5,392.5,549.6,392.5,549.6,392.5
		C549.7,392.5,549.7,392.5,549.6,392.5L549.6,392.5z M512.1,439.8l-6.3-8.8l-8.1-4.7l6.2,8.8c0.1,0.2,0.2,0.3,0.4,0.4l8.1,4.7
		C512.3,440.1,512.3,439.9,512.1,439.8z"/>
	<path class="st23" d="M500.4,418.7c-0.1,0-0.1-0.1-0.2-0.1s-0.1,0-0.2-0.1h-0.5c-0.1,0-0.2,0-0.2,0.1c0,0-0.1,0-0.1,0.1h-0.2
		c-0.2,0.1-0.2,0.1-0.4,0.2s-0.4,0.2-0.5,0.4l-0.2,0.2l-0.2,0.2l-0.3,0.3l-0.2,0.2l-24.1,30.1l8.1,4.7l24.1-30.1
		c0.2-0.2,0.4-0.4,0.5-0.6l0.2-0.2c0.2-0.2,0.4-0.3,0.5-0.4l0.5-0.2h0.1c0.2-0.1,0.3-0.1,0.4-0.1h0.4c0.2,0,0.2,0.1,0.4,0.2
		L500.4,418.7L500.4,418.7z"/>
	<path class="st0" d="M473,450.4c-0.1,0.1-0.1,0.2-0.2,0.2v0.1c0,0.1-0.1,0.1-0.1,0.2c-0.1,0.1-0.1,0.2-0.2,0.2
		c0,0.1-0.1,0.2-0.1,0.2c0,0.1-0.1,0.1-0.1,0.2s-0.1,0.2-0.1,0.2c0,0.1-0.1,0.2-0.1,0.2s-0.1,0.2-0.1,0.2c0,0.1-0.1,0.2-0.1,0.3v0.1
		c0,0.1,0,0.2-0.1,0.2v1c0.1,0.2,0.2,0.5,0.3,0.7c0.1,0.2,0.2,0.3,0.4,0.4l8.1,4.7c-0.2-0.1-0.3-0.2-0.4-0.4
		c-0.2-0.2-0.2-0.5-0.3-0.7v-0.1c-0.1-0.2-0.1-0.5,0-0.9c0-0.1,0-0.2,0.1-0.3v-0.1c0.1-0.2,0.1-0.4,0.2-0.6c0.1-0.2,0.2-0.4,0.2-0.6
		c0.1-0.2,0.2-0.4,0.3-0.6c0.2-0.2,0.2-0.4,0.4-0.5l-8.1-4.7l-0.1,0.1C473,450.2,473,450.3,473,450.4L473,450.4z"/>
	<path class="st19" d="M548.7,392.7c1.1-0.6,1.8,0.3,1.2,1.7l-7.3,18.9c-0.2,0.7-0.8,1.2-1.2,1.6c-0.5,0.3-0.9,0.3-1.2-0.1l-2.4-3.4
		l-22.1,27.5c-0.4,0.5-0.9,0.9-1.2,1.2c-0.9,0.5-1.7,0.5-2.2-0.2l-6.2-8.8l-22,27.3c-0.4,0.5-0.9,0.9-1.2,1.2
		c-0.9,0.5-1.7,0.5-2.2-0.2c-0.7-1-0.3-3,0.9-4.5l24.1-30.1c0.4-0.5,0.9-0.9,1.2-1.2c0.9-0.5,1.7-0.5,2.2,0.2l6.2,8.8l19.8-24.8
		l-2.4-3.4c-0.5-0.8,0.2-2.5,1.2-3.1L548.7,392.7L548.7,392.7z"/>
</g>
</svg>
