<?xml version="1.0" encoding="utf-8"?>
<!-- Generator: Adobe Illustrator 27.9.0, SVG Export Plug-In . SVG Version: 6.00 Build 0)  -->
<svg version="1.1" id="Capa_1" xmlns="http://www.w3.org/2000/svg" xmlns:xlink="http://www.w3.org/1999/xlink" x="0px" y="0px"
	 viewBox="0 0 800 800" style="enable-background:new 0 0 800 800;" xml:space="preserve">
<style type="text/css">
	.st0{fill:#22B573;}
	.st1{fill:#E4ECF9;}
	.st2{fill:#ACC5EA;}
	.st3{fill:#28289E;}
	.st4{fill:#2929A3;}
	.st5{fill:#2A2AA8;}
	.st6{fill:#2C2CAD;}
	.st7{fill:#2D2DB3;}
	.st8{fill:#2E2EB8;}
	.st9{fill:#2F2FBD;}
	.st10{fill:#3131C2;}
	.st11{fill:#3232C7;}
	.st12{fill:#3333CC;}
	.st13{fill:#262699;}
	.st14{fill:#252594;}
	.st15{fill:#24248F;}
	.st16{fill:#23238A;}
	.st17{fill:#212185;}
	.st18{fill:#153E51;}
	.st19{fill:#FFFFFF;}
	.st20{fill:#2A2ABC;}
	.st21{fill:#00723B;}
	.st22{fill:#674611;}
	.st23{fill:#808080;}
</style>
<g>
	<path class="st0" d="M707.9,455.9c-0.9,8.6-8.8,12.9-15.5,16.8c-6.2,3.6-12.5,7.3-18.7,10.9c-10,5.8-19.9,11.6-29.9,17.3
		c-12.5,7.3-24.9,14.5-37.4,21.7c-13.8,8-27.5,16-41.3,24c-13.8,8-27.7,16.1-41.6,24.1c-12.7,7.4-25.4,14.8-38.1,22.2
		c-10.4,6-20.7,12-31.1,18c-6.8,3.9-13.6,7.9-20.4,11.8c-5.2,3-10,5.9-15.9,7.7c-15.2,4.4-32.1,2.9-45.9-5.1
		c-4.9-2.9-9.9-5.7-14.8-8.6c-9.1-5.2-18-10.4-27.1-15.6c-11.9-6.9-23.8-13.8-35.6-20.5c-13.5-7.8-27.1-15.6-40.6-23.4
		c-14-8-28-16.2-42-24.2c-13.2-7.7-26.4-15.2-39.7-22.9l-33.8-19.5c-8-4.7-16.2-9.3-24.2-14c-3.7-2.1-7.3-4.2-11-6.4
		c-5.8-3.4-11.5-8.7-11.5-15.9c0,6.6,0,13.1-0.1,19.8c0,2.3-0.2,4.8,0,7.2c0.5,6.3,5.5,11.3,10.7,14.4c3.2,2,6.5,3.8,9.8,5.6
		c8.4,4.8,16.9,9.8,25.3,14.6c12.2,7,24.3,14.1,36.5,21.1c14.5,8.4,29,16.7,43.4,25.1c15.1,8.8,30.2,17.4,45.3,26.2
		c14.4,8.3,28.7,16.6,43,24.8c12,6.9,23.8,13.8,35.8,20.6c8,4.7,16.2,9.3,24.2,14c4.7,2.7,9.3,5.7,14.4,7.6
		c15.9,5.8,34.5,4.5,49.1-4c5.5-3.2,11.1-6.5,16.6-9.7c10.2-5.9,20.5-11.9,30.6-17.8c13.4-7.7,26.6-15.5,40-23.3
		c14.9-8.7,29.8-17.3,44.7-26l44.8-26c13.4-7.8,26.7-15.5,40.2-23.4c10.4-6,20.8-12,31.2-18.1c5.7-3.4,11.5-6.6,17.2-10
		c1.7-1,3.5-2,5.2-3.2c4.4-3.3,7.8-7.8,7.9-13.5c0.1-2.9,0-5.7,0-8.6c0-5.7,0-11.5,0.1-17.2C708,455.1,707.9,455.5,707.9,455.9
		C707.9,456.1,707.9,455.7,707.9,455.9L707.9,455.9z"/>
	<path class="st1" d="M696.8,439.1c14.8,8.6,14.9,22.6,0.2,31.2l-269,156.3c-14.8,8.6-38.9,8.6-53.8,0L103.2,470.2
		c-14.8-8.6-14.9-22.6-0.2-31.2l269.1-156.4c14.8-8.6,38.9-8.6,53.8,0L696.8,439.1z"/>
	<path class="st2" d="M232.4,383.8c0-0.2,0.1-0.5,0.1-0.7c0-0.2,0.1-0.3,0.1-0.5s0.1-0.3,0.1-0.4c0.1-0.2,0.1-0.4,0.2-0.6
		c0-0.1,0.1-0.2,0.1-0.3l0.2-0.7c0-0.1,0.1-0.2,0.1-0.3c0.1-0.3,0.2-0.6,0.4-0.9c0,0,0-0.1,0.1-0.1c0.2-0.3,0.2-0.5,0.4-0.8
		c0.1-0.1,0.1-0.2,0.2-0.2c0.2-0.2,0.2-0.5,0.4-0.8c0-0.1,0.1-0.1,0.1-0.2c0.2-0.3,0.3-0.5,0.5-0.9c0.1-0.1,0.1-0.2,0.2-0.2
		c0.2-0.2,0.2-0.4,0.4-0.6c0.1-0.1,0.2-0.2,0.2-0.3c0.2-0.2,0.2-0.3,0.4-0.5c0.1-0.2,0.2-0.2,0.3-0.4s0.2-0.2,0.3-0.4
		c0.2-0.2,0.4-0.4,0.5-0.6l0.3-0.3c0.4-0.4,0.8-0.7,1.2-1c0.1-0.1,0.2-0.1,0.2-0.2c0.4-0.3,0.9-0.6,1.3-0.9c0.3-0.2,0.7-0.4,1-0.5
		c0.1-0.1,0.2-0.1,0.3-0.2c0.2-0.1,0.4-0.2,0.6-0.2c0.2,0,0.2-0.1,0.4-0.1c0.1,0,0.2-0.1,0.3-0.1c0.2,0,0.3-0.1,0.5-0.1h0.9
		c0.2,0,0.4,0.1,0.6,0.1h0.2c0.2,0,0.3,0.1,0.5,0.2c0.1,0,0.1,0,0.2,0.1c0.2,0.1,0.4,0.2,0.5,0.2l-11.6-6.7H235
		c-0.2-0.1-0.3-0.2-0.4-0.2h-0.1c-0.1,0-0.1,0-0.2-0.1c-0.1,0-0.2-0.1-0.2-0.1c-0.1,0-0.2,0-0.2-0.1h-0.2c-0.2,0-0.3-0.1-0.5-0.1
		H232c-0.1,0-0.2,0-0.2,0.1c-0.1,0-0.2,0.1-0.3,0.1c-0.1,0-0.2,0-0.2,0.1c-0.1,0-0.2,0.1-0.2,0.1c-0.2,0.1-0.4,0.2-0.6,0.2
		c-0.1,0-0.2,0.1-0.2,0.1c0,0-0.1,0.1-0.2,0.1c-0.3,0.2-0.7,0.3-1,0.5c-0.5,0.2-0.9,0.5-1.3,0.9c-0.1,0.1-0.2,0.1-0.2,0.2
		c-0.4,0.3-0.8,0.7-1.2,1l-0.1,0.1l-0.2,0.2c-0.2,0.2-0.4,0.4-0.5,0.6l-0.2,0.2l-0.2,0.2c-0.1,0.2-0.2,0.2-0.3,0.4l-0.2,0.2
		c-0.1,0.1-0.1,0.2-0.2,0.2c-0.1,0.1-0.2,0.2-0.2,0.3c-0.1,0.1-0.1,0.2-0.2,0.2c-0.1,0.2-0.2,0.2-0.2,0.4c-0.1,0.1-0.1,0.2-0.2,0.2
		l-0.1,0.1l-0.5,0.7v0.1c0,0.1-0.1,0.1-0.1,0.2c-0.1,0.2-0.2,0.3-0.3,0.5c-0.1,0.1-0.1,0.2-0.2,0.2c-0.1,0.1-0.1,0.2-0.2,0.2
		c0,0.1-0.1,0.2-0.1,0.2c-0.1,0.2-0.2,0.4-0.2,0.6c0,0,0,0.1-0.1,0.1c-0.1,0.2-0.2,0.5-0.3,0.8c0,0.1,0,0.1-0.1,0.2
		c0,0.1-0.1,0.2-0.1,0.3c-0.1,0.2-0.1,0.2-0.2,0.4c0,0.1-0.1,0.2-0.1,0.3c0,0.1-0.1,0.2-0.1,0.3c0,0.1-0.1,0.2-0.1,0.2
		c0,0.2-0.1,0.2-0.1,0.4s-0.1,0.3-0.1,0.4v0.2c0,0.1,0,0.2-0.1,0.3c-0.1,0.2-0.1,0.5-0.1,0.7v0.3c-0.1,0.5-0.1,1-0.1,1.5
		c0,2.7,0.9,4.5,2.4,5.4l11.6,6.7c-1.5-0.9-2.4-2.7-2.4-5.4c0-0.5,0-0.9,0.1-1.5C232.3,384.1,232.3,383.9,232.4,383.8L232.4,383.8z"
		/>
	<path d="M257.8,370.1c0.1,0,0.2-0.1,0.3-0.1s0.2-0.1,0.2-0.1c0.2,0,0.2-0.1,0.3-0.1h0.8c0.2,0,0.3,0,0.5,0.1h0.2
		c0.2,0,0.2,0.1,0.4,0.1c0,0,0.1,0,0.1,0.1l0.5,0.2l-11.6-6.7c-0.1-0.1-0.2-0.1-0.3-0.2H249c0,0-0.1,0-0.1-0.1
		c-0.1,0-0.1-0.1-0.2-0.1s-0.2,0-0.2-0.1h-0.2c-0.2,0-0.2,0-0.4-0.1h-1c-0.1,0-0.2,0-0.2,0.1h-0.2c-0.1,0-0.1,0-0.2,0.1
		c-0.2,0.1-0.3,0.1-0.5,0.2c-0.1,0-0.1,0-0.2,0.1c0,0-0.1,0-0.1,0.1c-0.2,0.1-0.5,0.2-0.8,0.4l-7.3,4.2l11.6,6.7l7.3-4.2
		c0.3-0.2,0.5-0.3,0.8-0.4c0.1,0,0.2-0.1,0.2-0.1C257.5,370.1,257.6,370.1,257.8,370.1L257.8,370.1z"/>
	<path class="st3" d="M234.6,391.1l-11.6-6.7h0.1L234.6,391.1"/>
	<path class="st4" d="M234.7,391.2l-11.6-6.7c0.2,0.1,0.3,0.2,0.4,0.2l11.6,6.7C235,391.2,234.8,391.2,234.7,391.2"/>
	<path class="st5" d="M235.1,391.3l-11.6-6.7c0.2,0.1,0.3,0.1,0.5,0.2l11.6,6.7C235.4,391.5,235.3,391.4,235.1,391.3"/>
	<path class="st6" d="M235.6,391.5l-11.6-6.7c0.2,0.1,0.3,0.1,0.5,0.1l11.6,6.7C235.9,391.6,235.7,391.6,235.6,391.5"/>
	<path class="st7" d="M236.1,391.6l-11.6-6.7c0.2,0,0.3,0.1,0.5,0.1l11.6,6.7C236.4,391.6,236.2,391.6,236.1,391.6"/>
	<path class="st8" d="M236.5,391.6l-11.6-6.7h0.5l11.6,6.7H236.5"/>
	<path class="st9" d="M237.1,391.6l-11.6-6.7c0.2,0,0.4,0,0.6-0.1l11.6,6.7C237.5,391.6,237.3,391.6,237.1,391.6"/>
	<path class="st10" d="M237.7,391.6l-11.6-6.7c0.2,0,0.5-0.1,0.7-0.2l11.6,6.7C238.2,391.5,237.9,391.6,237.7,391.6"/>
	<path class="st11" d="M238.4,391.5l-11.6-6.7c0.3-0.1,0.6-0.2,1-0.3l11.6,6.7C239.1,391.2,238.8,391.3,238.4,391.5"/>
	<path class="st12" d="M239.4,391.1l-11.6-6.7c0.4-0.2,0.8-0.4,1.2-0.5c1-0.5,2-1.3,2.8-2.2l11.6,6.7c-0.9,0.9-1.8,1.6-2.8,2.2
		C240.2,390.8,239.8,390.9,239.4,391.1"/>
	<path class="st11" d="M243.4,388.4l-11.6-6.7l0.9-0.9l11.6,6.7L243.4,388.4"/>
	<path class="st10" d="M244.3,387.4l-11.6-6.7c0.2-0.2,0.5-0.5,0.7-0.9l11.6,6.7C244.7,386.9,244.5,387.1,244.3,387.4"/>
	<path class="st9" d="M245,386.6l-11.6-6.7c0.2-0.2,0.4-0.5,0.5-0.8l11.6,6.7C245.4,386.1,245.2,386.3,245,386.6"/>
	<path class="st8" d="M245.5,385.8l-11.6-6.7l0.5-0.7l11.6,6.7C245.9,385.3,245.7,385.5,245.5,385.8"/>
	<path class="st7" d="M246.1,385.1l-11.6-6.7l0.5-0.7l11.6,6.7C246.3,384.6,246.1,384.8,246.1,385.1"/>
	<path class="st6" d="M246.4,384.4l-11.6-6.7c0.2-0.2,0.2-0.5,0.4-0.7l11.6,6.7C246.7,383.9,246.6,384.1,246.4,384.4"/>
	<path class="st5" d="M246.8,383.7l-11.6-6.7c0.2-0.2,0.2-0.5,0.4-0.7l11.6,6.7C247.1,383.2,247,383.4,246.8,383.7"/>
	<path class="st4" d="M247.2,383l-11.6-6.7c0.1-0.2,0.2-0.5,0.3-0.7l11.6,6.7C247.5,382.5,247.3,382.7,247.2,383"/>
	<path class="st3" d="M247.5,382.3l-11.6-6.7c0.1-0.2,0.2-0.5,0.3-0.8l11.6,6.7C247.8,381.7,247.6,381.9,247.5,382.3"/>
	<path class="st13" d="M247.9,381.5l-11.6-6.7c0.1-0.2,0.2-0.5,0.3-0.8l11.6,6.7C248,380.9,247.9,381.2,247.9,381.5"/>
	<path class="st14" d="M248.1,380.7l-11.6-6.7c0.1-0.3,0.2-0.5,0.2-0.9l11.6,6.7C248.3,380.1,248.2,380.4,248.1,380.7"/>
	<path class="st15" d="M248.4,379.8l-11.6-6.7l0.2-0.9l11.6,6.7L248.4,379.8"/>
	<path class="st16" d="M248.6,378.9l-11.6-6.7l0.2-1.2l11.6,6.7L248.6,378.9"/>
	<path class="st17" d="M248.8,377.7l-11.6-6.7c0.1-0.5,0.1-1.1,0.1-1.6c0-0.4,0-0.7-0.1-1.1l11.6,6.7c0,0.4,0.1,0.7,0.1,1.1
		C248.9,376.6,248.9,377.2,248.8,377.7"/>
	<path d="M220.7,377.9l-7.3,4.2c-0.4,0.2-0.9,0.5-1.2,0.9c-0.2,0.1-0.2,0.2-0.4,0.3c-0.2,0.2-0.4,0.3-0.5,0.5l-0.2,0.2l-0.2,0.2
		l-0.2,0.2c-0.2,0.2-0.4,0.4-0.5,0.6c-0.1,0.1-0.2,0.2-0.2,0.2c0,0.1-0.1,0.1-0.1,0.2c-0.1,0.1-0.1,0.2-0.2,0.2
		c-0.2,0.2-0.2,0.4-0.4,0.5c-0.2,0.2-0.2,0.4-0.3,0.5v0.2l-0.2,0.5c-0.1,0.2-0.2,0.4-0.3,0.5l-0.2,0.5c-0.1,0.2-0.2,0.4-0.2,0.6
		c-0.1,0.2-0.2,0.4-0.2,0.6c0,0.1-0.1,0.2-0.1,0.3s0,0.1-0.1,0.2c0,0.1-0.1,0.2-0.1,0.2c-0.1,0.2-0.2,0.5-0.2,0.8
		c0,0.2-0.1,0.3-0.1,0.5c0,0.1,0,0.2-0.1,0.2v0.2c-0.1,0.5-0.1,0.9-0.1,1.2l0.3,97.3c0,2,0.8,3.5,2,4.2l11.6,6.7
		c-1.2-0.7-2-2.1-2-4.2l-0.3-97.3c0-0.5,0.1-1,0.2-1.5c0-0.1,0-0.2,0.1-0.2c0.1-0.5,0.2-0.9,0.3-1.4c0-0.1,0-0.1,0.1-0.2
		c0.2-0.5,0.3-1,0.5-1.6c0.2-0.5,0.5-1,0.8-1.6v-0.1l0.9-1.4c0-0.1,0.1-0.1,0.1-0.2l0.9-1.2l0.2-0.2c0.2-0.3,0.5-0.5,0.9-0.8
		c0.2-0.1,0.2-0.2,0.4-0.3c0.4-0.3,0.8-0.6,1.2-0.9l7.3-4.2L220.7,377.9L220.7,377.9z"/>
	<path class="st18" d="M256.2,370.8c3.6-2.1,6.6-0.4,6.6,3.7l0.3,97.3c0,4.1-3,9.3-6.6,11.3l-31.3,18c-3.6,2.1-6.6,0.4-6.6-3.8
		l-0.3-97.3c0-4.1,3-9.3,6.6-11.3l7.3-4.2c0,0.4-0.1,0.8-0.1,1.2c0,5.3,3.7,7.4,8.4,4.8c4.6-2.7,8.4-9.1,8.4-14.5
		c0-0.4,0-0.7-0.1-1.1L256.2,370.8z"/>
	<path class="st2" d="M239.4,366.6l7.3,4.1l-14.3,14l-3.1-1.8l7.1-16.3H239.4z"/>
	<path class="st19" d="M240.6,371.2c4.6-2.7,8.4-0.5,8.4,4.8c0,5.3-3.7,11.8-8.4,14.5c-4.6,2.7-8.4,0.5-8.4-4.8
		C232.2,380.3,235.9,373.9,240.6,371.2z"/>
	<path d="M331.6,282.6c0.2-0.1,0.3-0.1,0.5-0.2c0.1,0,0.2-0.1,0.3-0.1c0.1,0,0.2-0.1,0.2-0.1c0.2,0,0.2-0.1,0.3-0.1h0.8
		c0.2,0,0.3,0,0.5,0.1h0.2c0.2,0,0.2,0.1,0.4,0.1c0,0,0.1,0,0.1,0.1l0.5,0.2l-11.6-6.7c-0.1-0.1-0.2-0.1-0.3-0.2h-0.1
		c0,0-0.1,0-0.1-0.1c-0.1,0-0.1-0.1-0.2-0.1c-0.1,0-0.2,0-0.2-0.1h-0.2c-0.2,0-0.2,0-0.4-0.1h-1c-0.1,0-0.2,0-0.2,0.1h-0.2
		c-0.1,0-0.1,0-0.2,0.1c-0.2,0.1-0.3,0.1-0.5,0.2c-0.1,0-0.1,0-0.2,0.1c0,0-0.1,0-0.1,0.1c-0.2,0.1-0.5,0.2-0.8,0.4l-7.3,4.2
		l11.6,6.7l7.3-4.2C331.1,283,331.4,282.8,331.6,282.6C331.4,282.7,331.5,282.6,331.6,282.6L331.6,282.6z"/>
	<path class="st3" d="M308.9,302.4l-11.6-6.7h0.1L308.9,302.4C309,302.4,309,302.4,308.9,302.4"/>
	<path class="st4" d="M309,302.4l-11.6-6.7c0.2,0.1,0.3,0.2,0.4,0.2l11.6,6.7C309.3,302.6,309.2,302.5,309,302.4"/>
	<path class="st5" d="M309.4,302.6l-11.6-6.7c0.2,0.1,0.3,0.1,0.5,0.2l11.6,6.7C309.7,302.7,309.6,302.6,309.4,302.6"/>
	<path class="st6" d="M309.9,302.8l-11.6-6.7c0.2,0.1,0.3,0.1,0.5,0.1l11.6,6.7C310.2,302.9,310,302.8,309.9,302.8"/>
	<path class="st7" d="M310.4,302.9l-11.6-6.7c0.2,0,0.3,0.1,0.5,0.1l11.6,6.7C310.7,303,310.5,302.9,310.4,302.9"/>
	<path class="st8" d="M310.9,303l-11.6-6.7h0.5l11.6,6.7H310.9"/>
	<path class="st9" d="M311.4,303l-11.6-6.7c0.2,0,0.4,0,0.6-0.1l11.6,6.7C311.8,302.9,311.6,303,311.4,303"/>
	<path class="st10" d="M312.1,302.9l-11.6-6.7c0.2,0,0.5-0.1,0.7-0.2l11.6,6.7C312.5,302.8,312.3,302.8,312.1,302.9"/>
	<path class="st11" d="M312.8,302.7l-11.6-6.7c0.3-0.1,0.6-0.2,1-0.3l11.6,6.7C313.4,302.5,313.1,302.6,312.8,302.7"/>
	<path class="st12" d="M313.8,302.4l-11.6-6.7c0.4-0.2,0.8-0.4,1.2-0.5c1-0.5,2-1.3,2.8-2.2l11.6,6.7c-0.9,0.9-1.8,1.6-2.8,2.2
		C314.6,302,314.2,302.3,313.8,302.4"/>
	<path class="st11" d="M317.7,299.6l-11.6-6.7l0.9-0.9l11.6,6.7C318.3,299,318,299.4,317.7,299.6"/>
	<path class="st10" d="M318.6,298.7l-11.6-6.7c0.2-0.2,0.5-0.5,0.7-0.9l11.6,6.7C319.1,298.1,318.9,298.4,318.6,298.7"/>
	<path class="st9" d="M319.3,297.8l-11.6-6.7c0.2-0.2,0.4-0.5,0.5-0.8l11.6,6.7C319.7,297.3,319.5,297.6,319.3,297.8"/>
	<path class="st8" d="M319.9,297.1l-11.6-6.7l0.5-0.7l11.6,6.7L319.9,297.1"/>
	<path class="st7" d="M320.4,296.4l-11.6-6.7l0.5-0.7l11.6,6.7L320.4,296.4"/>
	<path class="st6" d="M320.8,295.7l-11.6-6.7c0.2-0.2,0.2-0.5,0.4-0.7l11.6,6.7C321.1,295.2,320.9,295.5,320.8,295.7"/>
	<path class="st5" d="M321.2,295l-11.6-6.7c0.2-0.2,0.2-0.5,0.4-0.7l11.6,6.7C321.4,294.4,321.3,294.8,321.2,295"/>
	<path class="st4" d="M321.5,294.2l-11.6-6.7c0.1-0.2,0.2-0.5,0.3-0.7l11.6,6.7C321.8,293.7,321.7,294,321.5,294.2"/>
	<path class="st3" d="M321.8,293.5l-11.6-6.7c0.1-0.2,0.2-0.5,0.3-0.8l11.6,6.7C322.1,293,322,293.3,321.8,293.5"/>
	<path class="st13" d="M322.1,292.7l-11.6-6.7c0.1-0.2,0.2-0.5,0.3-0.8l11.6,6.7C322.4,292.3,322.3,292.5,322.1,292.7"/>
	<path class="st14" d="M322.5,291.9l-11.6-6.7c0.1-0.3,0.2-0.5,0.2-0.9l11.6,6.7C322.6,291.4,322.5,291.7,322.5,291.9"/>
	<path class="st15" d="M322.7,291.1l-11.6-6.7l0.2-0.9l11.6,6.7L322.7,291.1"/>
	<path class="st16" d="M322.9,290.1l-11.6-6.7l0.2-1.2l11.6,6.7L322.9,290.1"/>
	<path class="st17" d="M323.2,289l-11.6-6.7c0.1-0.5,0.1-1.1,0.1-1.6l11.6,6.7C323.2,287.9,323.2,288.4,323.2,289"/>
	<path d="M295,290.3l-7.3,4.2c-0.4,0.2-0.9,0.5-1.2,0.9c-0.2,0.1-0.2,0.2-0.4,0.3c-0.2,0.2-0.4,0.3-0.5,0.5
		c-0.1,0.1-0.2,0.2-0.2,0.3l-0.2,0.2l-0.2,0.2c-0.2,0.2-0.4,0.4-0.5,0.6c-0.1,0.1-0.2,0.2-0.2,0.2c0,0.1-0.1,0.1-0.1,0.2
		c-0.1,0.1-0.1,0.2-0.2,0.2c-0.2,0.2-0.2,0.4-0.4,0.5c-0.2,0.2-0.2,0.4-0.3,0.5v0.2l-0.2,0.5c-0.1,0.2-0.2,0.4-0.3,0.5l-0.2,0.5
		c-0.1,0.2-0.2,0.4-0.2,0.6c-0.1,0.2-0.2,0.4-0.2,0.6c0,0.1-0.1,0.2-0.1,0.3s0,0.1-0.1,0.2c0,0.1-0.1,0.2-0.1,0.2
		c-0.1,0.2-0.2,0.5-0.2,0.8c0,0.2-0.1,0.3-0.1,0.5c0,0.1,0,0.2-0.1,0.2v0.2c-0.1,0.5-0.1,0.9-0.1,1.2l0.5,154.8c0,2,0.7,3.5,2,4.2
		l11.6,6.7c-1.2-0.7-2-2.1-2-4.2l-7.7-4.5l7.7,4.5l-0.6-154.8c0-0.5,0.1-1,0.2-1.5c0-0.1,0-0.2,0.1-0.2c0.1-0.5,0.2-0.9,0.3-1.4
		c0-0.1,0-0.1,0.1-0.2c0.2-0.5,0.3-1,0.5-1.6c0.2-0.5,0.5-1,0.8-1.6v-0.1l0.9-1.4c0-0.1,0.1-0.1,0.1-0.2l0.9-1.2l0.2-0.2
		c0.2-0.3,0.5-0.5,0.9-0.8c0.2-0.1,0.2-0.2,0.4-0.3c0.4-0.3,0.8-0.6,1.2-0.9l7.3-4.2L295,290.3L295,290.3z"/>
	<path class="st18" d="M330.6,283.1c3.6-2.1,6.6-0.4,6.6,3.8l0.5,154.8c0,4.1-3,9.3-6.6,11.3l-31.4,18.1c-3.6,2.1-6.6,0.4-6.6-3.8
		l-0.4-154.8c0-4.1,3-9.3,6.6-11.3l7.3-4.2c0,5.3,3.8,7.4,8.4,4.8c4.6-2.7,8.4-9.1,8.4-14.5L330.6,283.1L330.6,283.1z"/>
	<path class="st2" d="M311.3,280.3l7.5,4.2l-10.9,13.4l-6.2-3.7L311.3,280.3z"/>
	<path class="st19" d="M314.8,282.3c4.6-2.7,8.4-0.5,8.4,4.8c0,5.3-3.8,11.8-8.4,14.5c-4.6,2.7-8.4,0.5-8.4-4.8
		C306.5,291.5,310.2,285,314.8,282.3z"/>
	<path class="st2" d="M309.2,275.1l-0.5-0.2h-0.1c-0.1,0-0.1,0-0.2-0.1c-0.1,0-0.2-0.1-0.2-0.1c-0.1,0-0.2,0-0.2-0.1h-0.2
		c-0.2,0-0.3-0.1-0.5-0.1h-1.2c-0.1,0-0.2,0-0.2,0.1c-0.1,0-0.2,0.1-0.3,0.1s-0.2,0-0.2,0.1c-0.1,0-0.2,0.1-0.2,0.1
		c-0.2,0.1-0.4,0.2-0.6,0.2c-0.1,0-0.2,0.1-0.2,0.1c0,0-0.1,0.1-0.2,0.1c-0.3,0.2-0.7,0.3-1,0.5c-0.5,0.2-0.9,0.5-1.3,0.9
		c-0.1,0.1-0.2,0.1-0.2,0.2c-0.4,0.3-0.8,0.7-1.2,1l-0.1,0.1l-0.2,0.2c-0.2,0.2-0.4,0.4-0.5,0.6l-0.2,0.2l-0.2,0.2
		c-0.1,0.2-0.2,0.2-0.3,0.4l-0.2,0.2c-0.1,0.1-0.1,0.2-0.2,0.2c-0.1,0.1-0.2,0.2-0.2,0.3c-0.1,0.1-0.1,0.2-0.2,0.2
		c-0.1,0.2-0.2,0.2-0.2,0.4c-0.1,0.1-0.1,0.2-0.2,0.2l-0.1,0.1l-0.5,0.7v0.1c0,0.1-0.1,0.1-0.1,0.2c-0.1,0.2-0.2,0.3-0.3,0.5
		c-0.1,0.1-0.1,0.2-0.2,0.2c-0.1,0.1-0.1,0.2-0.2,0.2c0,0.1-0.1,0.2-0.1,0.2c-0.1,0.2-0.2,0.4-0.2,0.6c0,0,0,0.1-0.1,0.1
		c-0.1,0.2-0.2,0.5-0.3,0.8c0,0.1,0,0.1-0.1,0.2c0,0.1-0.1,0.2-0.1,0.3c-0.1,0.2-0.1,0.2-0.2,0.4c0,0.1-0.1,0.2-0.1,0.3
		c0,0.1-0.1,0.2-0.1,0.3s-0.1,0.2-0.1,0.2c0,0.2-0.1,0.2-0.1,0.4s-0.1,0.3-0.1,0.4v0.2c0,0.1,0,0.2-0.1,0.3
		c-0.1,0.2-0.1,0.5-0.1,0.7v0.3c-0.1,0.5-0.1,1-0.1,1.5v0.2l11.6,6.7v-0.2c0-0.5,0-0.9,0.1-1.5c0-0.2,0-0.2,0.1-0.4
		c0-0.2,0.1-0.5,0.1-0.7c0-0.2,0.1-0.3,0.1-0.5s0.1-0.3,0.1-0.4c0.1-0.2,0.1-0.4,0.2-0.6c0-0.1,0.1-0.2,0.1-0.3l0.2-0.7
		c0-0.1,0.1-0.2,0.1-0.3c0.1-0.3,0.2-0.6,0.4-0.9c0,0,0-0.1,0.1-0.1c0.2-0.2,0.2-0.5,0.4-0.8c0.1-0.1,0.1-0.2,0.2-0.2
		c0.2-0.2,0.2-0.5,0.4-0.8c0-0.1,0.1-0.1,0.1-0.2c0.2-0.3,0.3-0.5,0.5-0.9c0.1-0.1,0.1-0.2,0.2-0.2c0.2-0.2,0.3-0.4,0.4-0.6
		c0.1-0.1,0.2-0.2,0.2-0.3c0.2-0.2,0.2-0.3,0.4-0.5c0.1-0.2,0.2-0.2,0.3-0.4c0.1-0.2,0.2-0.2,0.3-0.4c0.2-0.2,0.4-0.4,0.5-0.6
		l0.3-0.3c0.4-0.4,0.8-0.7,1.2-1c0.1-0.1,0.2-0.1,0.2-0.2c0.4-0.3,0.9-0.6,1.3-0.9c0.4-0.2,0.7-0.4,1-0.5c0.1-0.1,0.2-0.1,0.3-0.2
		c0.2-0.1,0.4-0.2,0.6-0.2c0.2,0,0.2-0.1,0.4-0.1c0.1,0,0.2-0.1,0.3-0.1c0.2,0,0.3-0.1,0.5-0.1h0.9c0.2,0,0.4,0.1,0.6,0.1h0.2
		c0.2,0,0.3,0.1,0.5,0.2c0.1,0,0.1,0,0.2,0.1c0.2,0.1,0.4,0.2,0.5,0.2L309.2,275.1L309.2,275.1z"/>
	<path d="M406.1,288c0.2-0.1,0.3-0.1,0.5-0.2c0.1,0,0.2-0.1,0.3-0.1c0.1,0,0.2-0.1,0.2-0.1c0.2,0,0.2-0.1,0.3-0.1h0.7
		c0.2,0,0.3,0,0.5,0.1h0.2c0.2,0,0.2,0.1,0.4,0.1c0,0,0.1,0,0.1,0.1l0.5,0.2l-11.6-6.7c-0.1-0.1-0.2-0.1-0.3-0.2h-0.1
		c0,0-0.1,0-0.1-0.1c-0.1,0-0.1-0.1-0.2-0.1c-0.1,0-0.2,0-0.2-0.1h-0.2c-0.2,0-0.2,0-0.4-0.1h-1c-0.1,0-0.2,0-0.2,0.1h-0.2
		c-0.1,0-0.1,0-0.2,0.1c-0.2,0.1-0.3,0.1-0.5,0.2c-0.1,0-0.1,0-0.2,0.1c0,0-0.1,0-0.1,0.1c-0.2,0.1-0.5,0.2-0.8,0.4l-7.3,4.2
		l11.6,6.7l7.3-4.2C405.6,288.3,405.8,288.1,406.1,288C406,288,406.1,288,406.1,288L406.1,288z"/>
	<path class="st3" d="M383.5,307.7l-11.6-6.7h0.1L383.5,307.7"/>
	<path class="st4" d="M383.5,307.7l-11.6-6.7c0.2,0.1,0.3,0.2,0.4,0.2l11.6,6.7C383.8,307.9,383.6,307.8,383.5,307.7"/>
	<path class="st5" d="M383.9,308l-11.6-6.7c0.2,0.1,0.3,0.1,0.5,0.2l11.6,6.7C384.2,308,384.1,308,383.9,308"/>
	<path class="st6" d="M384.3,308.1l-11.6-6.7c0.2,0.1,0.3,0.1,0.5,0.1l11.6,6.7C384.6,308.2,384.5,308.1,384.3,308.1"/>
	<path class="st7" d="M384.8,308.2l-11.6-6.7c0.2,0,0.3,0.1,0.5,0.1l11.6,6.7C385.2,308.3,385,308.2,384.8,308.2"/>
	<path class="st8" d="M385.4,308.3l-11.6-6.7h0.5l11.6,6.7H385.4"/>
	<path class="st9" d="M385.9,308.3l-11.6-6.7c0.2,0,0.4,0,0.6-0.1l11.6,6.7C386.3,308.2,386.1,308.3,385.9,308.3"/>
	<path class="st10" d="M386.5,308.2l-11.6-6.7c0.2,0,0.5-0.1,0.7-0.2l11.6,6.7C387,308.1,386.8,308.2,386.5,308.2"/>
	<path class="st11" d="M387.2,308l-11.6-6.7c0.3-0.1,0.6-0.2,1-0.3l11.6,6.7C387.9,307.8,387.5,308,387.2,308"/>
	<path class="st12" d="M388.2,307.7l-11.6-6.7c0.4-0.2,0.8-0.4,1.2-0.5c1-0.5,2-1.3,2.8-2.2l11.6,6.7c-0.9,0.9-1.8,1.6-2.8,2.2
		C389,307.3,388.6,307.6,388.2,307.7"/>
	<path class="st11" d="M392.2,304.9l-11.6-6.7l0.9-0.9l11.6,6.7C392.9,304.3,392.5,304.7,392.2,304.9"/>
	<path class="st10" d="M393.1,304l-11.6-6.7c0.2-0.2,0.5-0.5,0.7-0.9l11.6,6.7C393.6,303.4,393.3,303.7,393.1,304"/>
	<path class="st9" d="M393.8,303.1l-11.6-6.7c0.2-0.2,0.4-0.5,0.5-0.8l11.6,6.7C394.2,302.6,394,302.9,393.8,303.1"/>
	<path class="st8" d="M394.3,302.4l-11.6-6.7l0.5-0.7l11.6,6.7L394.3,302.4"/>
	<path class="st7" d="M394.8,301.7l-11.6-6.7l0.5-0.7l11.6,6.7L394.8,301.7"/>
	<path class="st6" d="M395.3,300.9l-11.6-6.7c0.2-0.2,0.2-0.5,0.4-0.7l11.6,6.7C395.5,300.5,395.4,300.7,395.3,300.9"/>
	<path class="st5" d="M395.7,300.2l-11.6-6.7c0.2-0.2,0.2-0.5,0.4-0.7l11.6,6.7C395.9,299.8,395.8,300,395.7,300.2"/>
	<path class="st4" d="M396.1,299.5l-11.6-6.7c0.1-0.2,0.2-0.5,0.3-0.7l11.6,6.7C396.3,299.1,396.1,299.3,396.1,299.5"/>
	<path class="st3" d="M396.4,298.8l-11.6-6.7c0.1-0.2,0.2-0.5,0.3-0.8l11.6,6.7C396.6,298.4,396.4,298.6,396.4,298.8"/>
	<path class="st13" d="M396.7,298l-11.6-6.7c0.1-0.2,0.2-0.5,0.3-0.8l11.6,6.7C396.8,297.6,396.8,297.8,396.7,298"/>
	<path class="st14" d="M396.9,297.3l-11.6-6.7c0.1-0.3,0.2-0.5,0.2-0.9l11.6,6.7C397.1,296.7,397.1,297,396.9,297.3"/>
	<path class="st15" d="M397.2,296.4l-11.6-6.7l0.2-0.9l11.6,6.7L397.2,296.4"/>
	<path class="st16" d="M397.5,295.5l-11.6-6.7l0.2-1.2l11.6,6.7L397.5,295.5"/>
	<path class="st17" d="M397.6,294.3l-11.6-6.7c0.1-0.5,0.1-1.1,0.1-1.6l11.6,6.7C397.8,293.2,397.7,293.7,397.6,294.3"/>
	<path d="M357.9,430.1l11.6,6.7c-1.2-0.7-2-2.1-2-4.2l-11.6-6.7C356,428,356.7,429.4,357.9,430.1z M369.4,295.6l-7.3,4.2
		c-0.4,0.2-0.9,0.5-1.3,0.9c-0.2,0.1-0.2,0.2-0.4,0.3c-0.2,0.2-0.4,0.3-0.5,0.5c-0.1,0.1-0.2,0.2-0.2,0.3l-0.2,0.2l-0.2,0.2
		c-0.2,0.2-0.4,0.4-0.5,0.6c-0.1,0.1-0.2,0.2-0.2,0.2c0,0.1-0.1,0.1-0.1,0.2c-0.1,0.1-0.1,0.2-0.2,0.2c-0.2,0.2-0.2,0.4-0.4,0.5
		c-0.2,0.2-0.2,0.4-0.3,0.5v0.2l-0.2,0.5c-0.1,0.2-0.2,0.4-0.3,0.5c-0.1,0.2-0.2,0.3-0.2,0.5c-0.1,0.2-0.2,0.4-0.2,0.6
		c-0.1,0.2-0.2,0.4-0.2,0.6c0,0.1-0.1,0.2-0.1,0.3s0,0.1-0.1,0.2c0,0.1-0.1,0.2-0.1,0.2c-0.1,0.2-0.2,0.5-0.2,0.8
		c0,0.2-0.1,0.3-0.1,0.5c0,0.1,0,0.2-0.1,0.2v0.2c-0.1,0.5-0.1,0.9-0.1,1.3l0.3,114.7l11.6,6.7L367.3,318c0-0.5,0.1-1,0.2-1.5
		c0-0.1,0-0.2,0.1-0.2c0.1-0.5,0.2-0.9,0.3-1.4c0-0.1,0-0.1,0.1-0.2c0.2-0.5,0.3-1,0.5-1.6c0.2-0.5,0.5-1,0.8-1.6v-0.1l0.9-1.4
		c0-0.1,0.1-0.1,0.1-0.2l0.9-1.2l0.2-0.2c0.2-0.3,0.5-0.5,0.9-0.8c0.2-0.1,0.2-0.2,0.4-0.3c0.4-0.3,0.8-0.6,1.3-0.9l7.3-4.2
		L369.4,295.6L369.4,295.6z"/>
	<path class="st18" d="M405,288.5c3.6-2.1,6.6-0.4,6.6,3.8l0.3,114.7c0,4.1-3,9.3-6.6,11.3l-31.2,18.1c-3.6,2.1-6.6,0.4-6.6-3.8
		L367.2,318c0-4.1,3-9.3,6.6-11.3l7.3-4.2c0,5.3,3.8,7.4,8.4,4.8c4.6-2.7,8.4-9.1,8.4-14.5L405,288.5L405,288.5z"/>
	<path class="st19" d="M389.4,287.9c4.6-2.7,8.4-0.5,8.4,4.8c0,5.3-3.8,11.8-8.4,14.5c-4.6,2.7-8.4,0.5-8.4-4.8
		C381.1,297,384.8,290.5,389.4,287.9z"/>
	<path class="st2" d="M383.8,280.6l-0.5-0.2h-0.1c-0.1,0-0.1,0-0.2-0.1c-0.1,0-0.2-0.1-0.2-0.1c-0.1,0-0.2,0-0.2-0.1h-0.2
		c-0.2,0-0.3-0.1-0.5-0.1h-1.2c-0.1,0-0.2,0-0.2,0.1c-0.1,0-0.2,0.1-0.3,0.1s-0.2,0-0.2,0.1c-0.1,0-0.2,0.1-0.2,0.1
		c-0.2,0.1-0.4,0.2-0.6,0.2c-0.1,0-0.2,0.1-0.2,0.1c0,0-0.1,0.1-0.2,0.1c-0.3,0.2-0.7,0.3-1,0.5c-0.5,0.2-0.9,0.5-1.3,0.9
		c-0.1,0.1-0.2,0.1-0.2,0.2c-0.4,0.3-0.8,0.7-1.2,1l-0.1,0.1l-0.2,0.2c-0.2,0.2-0.4,0.4-0.5,0.6c-0.1,0.1-0.1,0.2-0.2,0.2l-0.2,0.2
		c-0.1,0.2-0.2,0.2-0.3,0.4l-0.2,0.2c-0.1,0.1-0.1,0.2-0.2,0.2c-0.1,0.1-0.2,0.2-0.2,0.3c-0.1,0.1-0.1,0.2-0.2,0.2
		c-0.1,0.2-0.2,0.2-0.2,0.4c-0.1,0.1-0.1,0.2-0.2,0.2l-0.1,0.1l-0.5,0.7v0.1c0,0.1-0.1,0.1-0.1,0.2c-0.1,0.2-0.2,0.3-0.3,0.5
		c-0.1,0.1-0.1,0.2-0.2,0.2s-0.1,0.2-0.2,0.2c0,0.1-0.1,0.2-0.1,0.2c-0.1,0.2-0.2,0.4-0.3,0.6c0,0,0,0.1-0.1,0.1
		c-0.1,0.2-0.2,0.5-0.3,0.8c0,0.1,0,0.1-0.1,0.2c0,0.1-0.1,0.2-0.1,0.3c-0.1,0.2-0.1,0.2-0.2,0.4c0,0.1-0.1,0.2-0.1,0.3
		c0,0.1-0.1,0.2-0.1,0.3c0,0.1,0,0.2-0.1,0.2c0,0.2-0.1,0.2-0.1,0.4c0,0.2-0.1,0.3-0.1,0.4v0.2c0,0.1-0.1,0.2-0.1,0.3
		c-0.1,0.2-0.1,0.5-0.1,0.7v0.3c-0.1,0.5-0.1,1-0.1,1.5v0.2l11.6,6.6c0-0.5,0-0.9,0.1-1.4v-0.3c0-0.2,0.1-0.5,0.1-0.7
		c0-0.1,0-0.2,0.1-0.3v-0.2c0-0.2,0.1-0.3,0.1-0.4c0-0.2,0.1-0.2,0.1-0.4c0-0.1,0.1-0.2,0.1-0.2c0-0.1,0.1-0.2,0.1-0.3
		s0.1-0.2,0.1-0.3c0.1-0.2,0.1-0.2,0.2-0.4c0-0.1,0.1-0.2,0.1-0.3c0-0.1,0-0.1,0.1-0.2c0.1-0.2,0.2-0.5,0.3-0.8c0,0,0-0.1,0.1-0.1
		c0.1-0.2,0.2-0.4,0.2-0.6c0-0.1,0.1-0.2,0.1-0.2c0.1-0.1,0.1-0.2,0.2-0.2c0.1-0.1,0.1-0.2,0.2-0.2c0.1-0.2,0.2-0.3,0.3-0.5
		c0-0.1,0.1-0.1,0.1-0.2v-0.1l0.5-0.7l0.1-0.1c0.1-0.1,0.1-0.2,0.2-0.2c0.1-0.2,0.2-0.2,0.2-0.4c0.1-0.1,0.1-0.2,0.2-0.2
		c0.1-0.1,0.2-0.2,0.2-0.3c0.1-0.1,0.1-0.2,0.2-0.2l0.2-0.2c0.1-0.2,0.2-0.2,0.3-0.4l0.2-0.2l0.2-0.2c0.2-0.2,0.4-0.4,0.5-0.6
		c0.1-0.1,0.1-0.2,0.2-0.2l0.1-0.1c0.4-0.4,0.8-0.7,1.2-1c0.1-0.1,0.2-0.1,0.2-0.2c0.4-0.3,0.9-0.6,1.3-0.9c0.4-0.2,0.7-0.4,1-0.5
		c0.1-0.1,0.2-0.1,0.3-0.2c0.2-0.1,0.4-0.2,0.6-0.2c0.2,0,0.2-0.1,0.4-0.1c0.1,0,0.2-0.1,0.3-0.1c0.2,0,0.3-0.1,0.5-0.1h0.9
		c0.2,0,0.4,0.1,0.6,0.1h0.2c0.2,0,0.3,0.1,0.5,0.2c0.1,0,0.1,0,0.2,0.1c0.2,0.1,0.4,0.2,0.5,0.2L383.8,280.6L383.8,280.6z"/>
	<path d="M480.4,147.9c0.2-0.1,0.3-0.1,0.5-0.2c0.1,0,0.2-0.1,0.3-0.1c0.1,0,0.2-0.1,0.2-0.1c0.2,0,0.2-0.1,0.3-0.1h0.8
		c0.2,0,0.3,0,0.5,0.1h0.2c0.2,0,0.2,0.1,0.4,0.1c0,0,0.1,0,0.1,0.1l0.5,0.2l-11.6-6.7c-0.1-0.1-0.2-0.1-0.3-0.2h-0.1
		c0,0-0.1,0-0.1-0.1c-0.1,0-0.1-0.1-0.2-0.1s-0.2,0-0.2-0.1h-0.2c-0.2,0-0.2,0-0.4-0.1h-1c-0.1,0-0.2,0-0.2,0.1h-0.2
		c-0.1,0-0.1,0-0.2,0.1c-0.2,0.1-0.3,0.1-0.5,0.2c-0.1,0-0.1,0-0.2,0.1c0,0-0.1,0-0.1,0.1c-0.2,0.1-0.5,0.2-0.8,0.4l-7.3,4.2
		l11.6,6.7l7.3-4.2C479.9,148.2,480.1,148,480.4,147.9C480.2,148,480.3,147.9,480.4,147.9z"/>
	<path class="st3" d="M457.7,167.6l-11.6-6.7h0.1L457.7,167.6C457.8,167.6,457.8,167.6,457.7,167.6"/>
	<path class="st4" d="M457.8,167.6l-11.6-6.7c0.2,0.1,0.3,0.2,0.4,0.2l11.6,6.7C458,167.8,457.9,167.7,457.8,167.6"/>
	<path class="st5" d="M458.2,167.9l-11.6-6.7c0.2,0.1,0.3,0.1,0.5,0.2l11.6,6.7C458.5,168,458.3,167.9,458.2,167.9"/>
	<path class="st6" d="M458.6,168l-11.6-6.7c0.2,0.1,0.3,0.1,0.5,0.1l11.6,6.7C458.9,168.1,458.8,168,458.6,168"/>
	<path class="st7" d="M459.1,168.1l-11.6-6.7c0.2,0,0.3,0.1,0.5,0.1l11.6,6.7C459.4,168.2,459.3,168.1,459.1,168.1"/>
	<path class="st8" d="M459.6,168.2l-11.6-6.7h0.5l11.6,6.7H459.6"/>
	<path class="st9" d="M460.2,168.2l-11.6-6.7c0.2,0,0.4,0,0.6-0.1l11.6,6.7C460.6,168.1,460.4,168.2,460.2,168.2"/>
	<path class="st10" d="M460.8,168.1l-11.6-6.7c0.2,0,0.5-0.1,0.7-0.2l11.6,6.7C461.3,168,461.1,168.1,460.8,168.1"/>
	<path class="st11" d="M461.5,168l-11.6-6.7c0.3-0.1,0.6-0.2,1-0.3l11.6,6.7C462.1,167.8,461.8,167.9,461.5,168"/>
	<path class="st12" d="M462.5,167.6l-11.6-6.7c0.4-0.2,0.8-0.4,1.2-0.5c1-0.5,2-1.3,2.8-2.2l11.6,6.7c-0.9,0.9-1.8,1.6-2.8,2.2
		C463.2,167.3,462.9,167.5,462.5,167.6"/>
	<path class="st11" d="M466.4,164.9l-11.6-6.7l0.9-0.9l11.6,6.7L466.4,164.9"/>
	<path class="st10" d="M467.4,163.9l-11.6-6.7c0.2-0.2,0.5-0.5,0.7-0.9l11.6,6.7C467.9,163.4,467.6,163.7,467.4,163.9"/>
	<path class="st9" d="M468.1,163.1l-11.6-6.7c0.2-0.2,0.4-0.5,0.5-0.8l11.6,6.7C468.4,162.6,468.2,162.8,468.1,163.1"/>
	<path class="st8" d="M468.6,162.3l-11.6-6.7l0.5-0.7l11.6,6.7L468.6,162.3"/>
	<path class="st7" d="M469.1,161.6l-11.6-6.7l0.5-0.7l11.6,6.7L469.1,161.6"/>
	<path class="st6" d="M469.5,160.9l-11.6-6.7c0.2-0.2,0.2-0.5,0.4-0.7l11.6,6.7C469.8,160.5,469.6,160.7,469.5,160.9"/>
	<path class="st5" d="M469.9,160.2l-11.6-6.7c0.2-0.2,0.2-0.5,0.4-0.7l11.6,6.7C470.2,159.8,470,160,469.9,160.2"/>
	<path class="st4" d="M470.3,159.5l-11.6-6.7c0.1-0.2,0.2-0.5,0.3-0.7l11.6,6.7C470.5,159,470.4,159.2,470.3,159.5"/>
	<path class="st3" d="M470.6,158.7L459,152c0.1-0.2,0.2-0.5,0.3-0.8l11.6,6.7C470.8,158.3,470.7,158.5,470.6,158.7"/>
	<path class="st13" d="M470.9,158l-11.6-6.7c0.1-0.2,0.2-0.5,0.3-0.8l11.6,6.7C471.1,157.5,471.1,157.7,470.9,158"/>
	<path class="st14" d="M471.2,157.2l-11.6-6.7c0.1-0.3,0.2-0.5,0.2-0.9l11.6,6.7C471.4,156.6,471.3,156.9,471.2,157.2"/>
	<path class="st15" d="M471.4,156.4l-11.6-6.7l0.2-0.9l11.6,6.7C471.6,155.7,471.5,156,471.4,156.4"/>
	<path class="st16" d="M471.7,155.4l-11.6-6.7l0.2-1.2l11.6,6.7L471.7,155.4"/>
	<path class="st17" d="M471.9,154.2l-11.6-6.7c0.1-0.5,0.1-1.1,0.1-1.6l11.6,6.7C472,153.1,472,153.7,471.9,154.2"/>
	<path class="st20" d="M432.5,388.9l11.6,6.7c-1.2-0.7-2-2.1-2-4.2l-11.6-6.7C430.5,386.8,431.3,388.3,432.5,388.9z"/>
	<path d="M443.8,155.5l-7.3,4.2c-0.4,0.2-0.9,0.5-1.2,0.9c-0.2,0.1-0.2,0.2-0.4,0.3c-0.2,0.2-0.4,0.3-0.5,0.5l-0.2,0.2l-0.2,0.2
		l-0.2,0.2c-0.2,0.2-0.4,0.4-0.5,0.6c-0.1,0.1-0.2,0.2-0.2,0.2c0,0.1-0.1,0.1-0.1,0.2c-0.1,0.1-0.1,0.2-0.2,0.2
		c-0.2,0.2-0.2,0.4-0.4,0.5s-0.2,0.4-0.3,0.5v0.2l-0.2,0.5c-0.1,0.2-0.2,0.4-0.3,0.5l-0.2,0.5c-0.1,0.2-0.2,0.4-0.2,0.6
		c-0.1,0.2-0.2,0.4-0.2,0.6c0,0.1-0.1,0.2-0.1,0.3c0,0.1,0,0.1-0.1,0.2c0,0.1-0.1,0.2-0.1,0.2c-0.1,0.2-0.2,0.5-0.2,0.8
		c0,0.2-0.1,0.3-0.1,0.5c0,0.1,0,0.2-0.1,0.2v0.2c-0.1,0.5-0.1,0.9-0.1,1.2l0.6,213.6l11.3,6.9l-0.6-213.6c0-0.5,0.1-1,0.2-1.5
		c0-0.1,0-0.2,0.1-0.2c0.1-0.5,0.2-0.9,0.3-1.4c0-0.1,0-0.1,0.1-0.2c0.2-0.5,0.3-1,0.5-1.6c0.2-0.5,0.5-1,0.8-1.6v-0.1l0.9-1.4
		c0-0.1,0.1-0.1,0.1-0.2l0.9-1.2l0.2-0.2c0.2-0.3,0.5-0.5,0.9-0.8c0.2-0.1,0.2-0.2,0.4-0.3c0.4-0.3,0.8-0.6,1.2-0.9l7.3-4.2
		L443.8,155.5L443.8,155.5z"/>
	<path class="st18" d="M479.3,148.4c3.6-2.1,6.6-0.4,6.6,3.8l0.6,213.6c0,4.1-3,9.3-6.6,11.3l-31.3,18c-3.6,2.1-6.6,0.4-6.6-3.7
		l-0.6-213.6c0-4.1,3-9.3,6.6-11.3l7.3-4.2c0,5.3,3.8,7.4,8.4,4.8c4.6-2.7,8.4-9.1,8.4-14.5L479.3,148.4L479.3,148.4z"/>
	<path class="st19" d="M463.7,147.8c4.6-2.7,8.4-0.5,8.4,4.8s-3.8,11.8-8.4,14.5c-4.6,2.7-8.4,0.5-8.4-4.8S459.1,150.5,463.7,147.8z
		"/>
	<path class="st2" d="M458.1,140.5l-0.5-0.2h-0.1c-0.1,0-0.1,0-0.2-0.1c-0.1,0-0.2-0.1-0.2-0.1c-0.1,0-0.2,0-0.2-0.1h-0.2
		c-0.2,0-0.3-0.1-0.5-0.1H455c-0.1,0-0.2,0-0.2,0.1c-0.1,0-0.2,0.1-0.3,0.1c-0.1,0-0.2,0-0.2,0.1c-0.1,0-0.2,0.1-0.2,0.1
		c-0.2,0.1-0.4,0.2-0.6,0.2c-0.1,0-0.2,0.1-0.2,0.1s-0.1,0.1-0.2,0.1c-0.3,0.2-0.7,0.3-1,0.5c-0.5,0.2-0.9,0.5-1.3,0.9
		c-0.1,0.1-0.2,0.1-0.2,0.2c-0.4,0.3-0.8,0.7-1.2,1l-0.1,0.1l-0.2,0.2c-0.2,0.2-0.4,0.4-0.5,0.6c-0.1,0.1-0.1,0.2-0.2,0.2l-0.2,0.2
		c-0.1,0.2-0.2,0.2-0.3,0.4l-0.2,0.2c-0.1,0.1-0.1,0.2-0.2,0.2c-0.1,0.1-0.2,0.2-0.2,0.3c-0.1,0.1-0.1,0.2-0.2,0.2
		c-0.1,0.2-0.2,0.2-0.2,0.4c-0.1,0.1-0.1,0.2-0.2,0.2l-0.1,0.1l-0.5,0.7v0.1c0,0.1-0.1,0.1-0.1,0.2c-0.1,0.2-0.2,0.3-0.3,0.5
		c-0.1,0.1-0.1,0.2-0.2,0.2c-0.1,0.1-0.1,0.2-0.2,0.2c0,0.1-0.1,0.2-0.1,0.2c-0.1,0.2-0.2,0.4-0.3,0.6c0,0,0,0.1-0.1,0.1
		c-0.1,0.2-0.2,0.5-0.3,0.8c0,0.1,0,0.1-0.1,0.2c0,0.1-0.1,0.2-0.1,0.2c-0.1,0.2-0.1,0.2-0.2,0.4c0,0.1-0.1,0.2-0.1,0.3
		c0,0.1-0.1,0.2-0.1,0.3c0,0.1,0,0.2-0.1,0.2c0,0.2-0.1,0.2-0.1,0.4s-0.1,0.3-0.1,0.4v0.2c0,0.1-0.1,0.2-0.1,0.3
		c-0.1,0.2-0.1,0.5-0.1,0.7v0.3c-0.1,0.5-0.1,0.9-0.1,1.4l11.6,6.9v-0.1c0-0.5,0-0.9,0.1-1.5v-0.3c0-0.2,0.1-0.5,0.1-0.7
		c0-0.1,0-0.2,0.1-0.3v-0.2c0-0.2,0.1-0.3,0.1-0.4c0-0.2,0.1-0.2,0.1-0.4c0-0.1,0.1-0.2,0.1-0.2c0-0.1,0.1-0.2,0.1-0.3
		c0-0.1,0.1-0.2,0.1-0.3c0.1-0.2,0.1-0.2,0.2-0.4c0-0.1,0.1-0.2,0.1-0.2s0-0.1,0.1-0.2c0.1-0.2,0.2-0.5,0.3-0.8c0,0,0-0.1,0.1-0.1
		c0.1-0.2,0.2-0.4,0.2-0.6c0-0.1,0.1-0.2,0.1-0.2c0.1-0.1,0.1-0.2,0.2-0.2c0.1-0.1,0.1-0.2,0.2-0.2c0.1-0.2,0.2-0.3,0.3-0.5
		c0-0.1,0.1-0.1,0.1-0.2V154l0.5-0.7l0.1-0.1c0.1-0.1,0.1-0.2,0.2-0.2c0.1-0.2,0.2-0.2,0.2-0.4c0.1-0.1,0.1-0.2,0.2-0.2
		c0.1-0.1,0.2-0.2,0.2-0.3c0.1-0.1,0.1-0.2,0.2-0.2l0.2-0.2c0.1-0.2,0.2-0.2,0.3-0.4l0.2-0.2l0.2-0.2c0.2-0.2,0.4-0.4,0.5-0.6
		l0.2-0.2l0.1-0.1c0.4-0.4,0.8-0.7,1.2-1c0.1-0.1,0.2-0.1,0.2-0.2c0.4-0.3,0.9-0.6,1.3-0.9c0.4-0.2,0.7-0.4,1-0.5
		c0.1-0.1,0.2-0.1,0.3-0.2c0.2-0.1,0.4-0.2,0.6-0.2c0.2,0,0.2-0.1,0.4-0.1c0.1,0,0.2-0.1,0.3-0.1c0.2,0,0.3-0.1,0.5-0.1h0.9
		c0.2,0,0.4,0.1,0.6,0.1h0.2c0.2,0,0.3,0.1,0.5,0.2c0.1,0,0.1,0,0.2,0.1c0.2,0.1,0.4,0.2,0.5,0.2L458.1,140.5L458.1,140.5z"/>
	<path class="st19" d="M443.8,155.5C443.8,155.5,443.8,155.5,443.8,155.5C443.8,155.5,443.8,155.5,443.8,155.5z"/>
	<path class="st21" d="M561.8,339.4C561.7,339.4,561.7,339.4,561.8,339.4c-0.2-0.2-0.4-0.2-0.6-0.3h-0.1c-0.1,0-0.2-0.1-0.2-0.1
		c-0.1,0-0.2-0.1-0.3-0.1c-0.1,0-0.2-0.1-0.3-0.1s-0.2,0-0.2-0.1H560c-0.2,0-0.4-0.1-0.6-0.1h-1.5c-0.1,0-0.2,0.1-0.2,0.1
		c-0.2,0-0.3,0.1-0.5,0.1c-0.1,0-0.2,0-0.2,0.1c-0.1,0-0.2,0.1-0.2,0.1c-0.2,0.1-0.5,0.2-0.8,0.2c-0.1,0-0.2,0.1-0.2,0.1
		s-0.1,0.1-0.2,0.1c-0.5,0.2-0.9,0.4-1.3,0.6L445,403.2c-0.5,0.3-1.1,0.7-1.6,1.1c-0.1,0.1-0.2,0.2-0.3,0.2c-0.5,0.4-1,0.9-1.5,1.3
		c-0.1,0.1-0.1,0.1-0.2,0.1l-0.2,0.2c-0.2,0.2-0.5,0.5-0.7,0.8l-0.2,0.2c-0.1,0.1-0.1,0.2-0.2,0.2c-0.2,0.2-0.3,0.3-0.4,0.5
		c-0.1,0.1-0.2,0.2-0.2,0.3c-0.1,0.1-0.2,0.2-0.2,0.3c-0.1,0.2-0.2,0.2-0.3,0.4c-0.1,0.1-0.2,0.2-0.2,0.3c-0.1,0.2-0.2,0.3-0.3,0.5
		c-0.1,0.1-0.2,0.2-0.2,0.3c0,0.1-0.1,0.1-0.1,0.2c-0.2,0.3-0.4,0.6-0.5,0.9v0.1c0,0.1-0.1,0.2-0.1,0.2c-0.2,0.2-0.2,0.5-0.4,0.6
		c-0.1,0.1-0.1,0.2-0.2,0.3c-0.1,0.1-0.1,0.2-0.2,0.3c-0.1,0.1-0.1,0.2-0.2,0.3c-0.2,0.2-0.2,0.5-0.3,0.7c0,0.1-0.1,0.1-0.1,0.2
		c-0.2,0.3-0.2,0.6-0.4,0.9c0,0.1-0.1,0.1-0.1,0.2c-0.1,0.1-0.1,0.2-0.2,0.3c-0.1,0.2-0.2,0.3-0.2,0.5c-0.1,0.2-0.1,0.2-0.1,0.4
		c-0.1,0.2-0.1,0.3-0.2,0.5c0,0.1-0.1,0.2-0.1,0.3c-0.1,0.2-0.1,0.3-0.2,0.5c-0.1,0.2-0.1,0.4-0.2,0.5c0,0.1,0,0.2-0.1,0.2
		c0,0.2-0.1,0.2-0.1,0.4c-0.1,0.3-0.1,0.5-0.2,0.9c0,0.1,0,0.2-0.1,0.2v0.2c-0.1,0.6-0.2,1.2-0.2,1.9l0.2,72.9
		c0,2.5,0.7,4.5,1.8,5.7c0.4,0.4,0.8,0.8,1.2,1.1l11.6,6.7c-1.9-1.1-3-3.4-3.1-6.8l0.1-72.9c0-0.6,0.1-1.2,0.2-1.9
		c0-0.2,0-0.3,0.1-0.5c0.1-0.3,0.1-0.5,0.2-0.9c0-0.2,0.1-0.4,0.1-0.5c0.1-0.2,0.1-0.4,0.2-0.5c0.1-0.2,0.2-0.5,0.2-0.8
		c0.1-0.2,0.1-0.3,0.2-0.5c0.1-0.3,0.2-0.5,0.3-0.9c0.1-0.1,0.1-0.2,0.2-0.3l0.5-1.2c0-0.1,0.1-0.1,0.1-0.2c0.2-0.3,0.3-0.7,0.5-1
		c0.1-0.1,0.1-0.2,0.2-0.3c0.2-0.3,0.3-0.6,0.5-0.9c0-0.1,0.1-0.2,0.1-0.2c0.2-0.4,0.5-0.7,0.7-1.1c0.1-0.1,0.2-0.2,0.2-0.3
		c0.2-0.2,0.3-0.5,0.5-0.8c0.1-0.2,0.2-0.2,0.3-0.4c0.2-0.2,0.3-0.4,0.5-0.6c0.2-0.2,0.2-0.3,0.4-0.5c0.2-0.2,0.2-0.3,0.4-0.5
		c0.2-0.2,0.5-0.5,0.7-0.8c0.1-0.2,0.2-0.2,0.3-0.3c0.5-0.5,1-0.9,1.5-1.3c0.1-0.1,0.2-0.2,0.3-0.2c0.5-0.4,1.1-0.8,1.6-1.1
		l109.3-63c0.5-0.2,0.9-0.5,1.3-0.6c0.2-0.1,0.3-0.1,0.4-0.2c0.2-0.1,0.5-0.2,0.8-0.2c0.2-0.1,0.3-0.1,0.5-0.2
		c0.2,0,0.3-0.1,0.5-0.1c0.2,0,0.4-0.1,0.5-0.1h1.2c0.2,0,0.5,0.1,0.8,0.1c0.1,0,0.2,0,0.2,0.1c0.2,0.1,0.4,0.1,0.5,0.2
		c0.1,0,0.2,0.1,0.2,0.1c0.2,0.1,0.5,0.2,0.7,0.3L561.8,339.4z"/>
	<path class="st0" d="M565.7,346.8c5.9-3.4,10.6-0.7,10.6,6l0.2,72.9c0,6.7-4.7,14.9-10.5,18.3l-109.3,63c-5.9,3.4-10.6,0.6-10.6-6
		l-0.2-72.8c0-6.7,4.7-14.9,10.5-18.3L565.7,346.8z"/>
	<path class="st22" d="M540.6,415l-8.1-4.7c-0.1-0.1-0.2-0.1-0.2-0.2l8.1,4.7C540.4,414.9,540.5,415,540.6,415"/>
	<path class="st23" d="M537.9,411.4l-8.1-4.7l2.5,3.4l8.1,4.8L537.9,411.4z"/>
	<path class="st21" d="M540,383.7c1.1-0.6,1.8,0.3,1.2,1.7l-7.3,19c-0.2,0.7-0.8,1.2-1.2,1.6c-0.5,0.3-0.9,0.3-1.2-0.1l-2.4-3.4
		l-22,27.5c-0.4,0.5-0.9,0.9-1.2,1.2c-0.9,0.5-1.7,0.5-2.2-0.2l-6.2-8.8l-22,27.3c-0.4,0.5-0.9,0.9-1.2,1.2
		c-0.9,0.5-1.7,0.5-2.2-0.2c-0.7-1-0.3-3,0.9-4.5l24.1-30.1c0.4-0.5,0.9-0.9,1.2-1.2c0.9-0.5,1.7-0.5,2.2,0.2l6.2,8.8l19.8-24.8
		l-2.4-3.4c-0.5-0.8,0.2-2.5,1.2-3.1L540,383.7L540,383.7z"/>
	<path class="st2" d="M507.4,427.9l8.1,4.7l19.8-24.8l-2.4-3.4l-8.1-4.7l2.4,3.4L507.4,427.9z"/>
	<path class="st2" d="M549.9,392.6l-4.1-2.4l-4-2.3h-0.9c-0.1,0-0.2,0.1-0.2,0.1l-14.8,8.6c-0.2,0.1-0.3,0.2-0.5,0.3l-0.2,0.2
		l-0.1,0.1c0,0.1-0.1,0.1-0.1,0.2s-0.1,0.1-0.1,0.2c0,0.1-0.1,0.1-0.1,0.2v0.1c0,0.1-0.1,0.1-0.1,0.2s0,0.1-0.1,0.2
		c0,0.1,0,0.1-0.1,0.2c0,0.1,0,0.1-0.1,0.2c0,0.1,0,0.1-0.1,0.2c0,0.1,0,0.1-0.1,0.2v0.7c0,0.2,0.1,0.3,0.2,0.4l8.1,4.7
		c-0.1-0.1-0.2-0.2-0.2-0.4v-0.8c0.1-0.3,0.2-0.6,0.3-0.9c0.1-0.2,0.2-0.3,0.2-0.4c0.1-0.1,0.2-0.2,0.3-0.3c0.2-0.2,0.3-0.2,0.5-0.3
		l14.8-8.6c0.1-0.1,0.2-0.1,0.2-0.2h0.1c0.1,0,0.2-0.1,0.2-0.1h0.2C549.8,392.6,549.9,392.6,549.9,392.6
		C550,392.6,550,392.6,549.9,392.6L549.9,392.6z M512.4,439.8l-6.2-8.8l-8.1-4.7l6.2,8.8c0.1,0.2,0.2,0.3,0.4,0.4l8.1,4.7
		C512.6,440.1,512.5,440,512.4,439.8z"/>
	<path class="st2" d="M500.7,418.7c-0.1,0-0.1-0.1-0.2-0.1s-0.1,0-0.2-0.1h-0.5c-0.1,0-0.2,0-0.2,0.1c0,0-0.1,0-0.1,0.1h-0.2
		c-0.2,0.1-0.2,0.1-0.4,0.2s-0.4,0.2-0.5,0.4l-0.2,0.2l-0.2,0.2l-0.3,0.3l-0.2,0.2l-24.1,30.1l8.1,4.7l24.1-30.1
		c0.2-0.2,0.4-0.4,0.5-0.6l0.2-0.2c0.2-0.2,0.4-0.3,0.5-0.4l0.5-0.2h0.1c0.2-0.1,0.3-0.1,0.4-0.1h0.4c0.2,0,0.2,0.1,0.4,0.2
		L500.7,418.7L500.7,418.7z"/>
	<path class="st0" d="M473.2,450.5c-0.1,0.1-0.1,0.2-0.2,0.2v0.1c0,0.1-0.1,0.1-0.1,0.2c-0.1,0.1-0.1,0.2-0.2,0.2
		c0,0.1-0.1,0.2-0.1,0.2c0,0.1-0.1,0.1-0.1,0.2s-0.1,0.2-0.1,0.2c0,0.1-0.1,0.2-0.1,0.2c0,0.1-0.1,0.2-0.1,0.2
		c0,0.1-0.1,0.2-0.1,0.3v0.1c0,0.1,0,0.2-0.1,0.2v1c0.1,0.2,0.2,0.5,0.3,0.7c0.1,0.2,0.2,0.3,0.4,0.4l8.1,4.7
		c-0.2-0.1-0.3-0.2-0.4-0.4c-0.2-0.2-0.2-0.5-0.3-0.7v-0.1c-0.1-0.2-0.1-0.5,0-0.9c0-0.1,0-0.2,0.1-0.3v-0.1
		c0.1-0.2,0.1-0.4,0.2-0.6c0.1-0.2,0.2-0.4,0.2-0.6c0.1-0.2,0.2-0.4,0.3-0.6c0.2-0.2,0.2-0.4,0.4-0.5l-8.1-4.7l-0.1,0.1
		C473.3,450.3,473.3,450.4,473.2,450.5L473.2,450.5z"/>
	<path class="st19" d="M548.9,392.7c1.1-0.6,1.8,0.3,1.2,1.7l-7.3,18.9c-0.2,0.7-0.8,1.2-1.2,1.6c-0.5,0.3-0.9,0.3-1.2-0.1l-2.4-3.4
		l-22.1,27.5c-0.4,0.5-0.9,0.9-1.2,1.2c-0.9,0.5-1.7,0.5-2.2-0.2l-6.3-8.8l-22,27.3c-0.4,0.5-0.9,0.9-1.2,1.2
		c-0.9,0.5-1.7,0.5-2.2-0.2c-0.7-1-0.3-3,0.9-4.5l24.1-30.1c0.4-0.5,0.9-0.9,1.2-1.2c0.9-0.5,1.7-0.5,2.2,0.2l6.2,8.8l19.8-24.8
		l-2.4-3.4c-0.5-0.8,0.2-2.5,1.2-3.1L548.9,392.7L548.9,392.7z"/>
</g>
</svg>
