<?xml version="1.0" encoding="iso-8859-1"?>
<!-- Uploaded to: SVG Repo, www.svgrepo.com, Generator: SVG Repo Mixer Tools -->
<!DOCTYPE svg PUBLIC "-//W3C//DTD SVG 1.1//EN" "http://www.w3.org/Graphics/SVG/1.1/DTD/svg11.dtd">
<svg fill="#000000" version="1.1" id="Capa_1" xmlns="http://www.w3.org/2000/svg" xmlns:xlink="http://www.w3.org/1999/xlink" 
	 width="800px" height="800px" viewBox="0 0 71.68 71.68" xml:space="preserve"
	>
<g>
	<g>
		<g>
			<path d="M64.96,0H6.72C2.911,0,0,2.912,0,6.72v58.239c0,3.809,2.911,6.721,6.72,6.721h58.24c3.808,0,6.72-2.912,6.72-6.721V6.72
				C71.68,2.912,68.768,0,64.96,0z M25.088,4.704c1.344,0,2.688,1.12,2.688,2.688c0,1.567-1.12,2.688-2.688,2.688
				c-1.345,0-2.688-1.12-2.688-2.688S23.52,4.704,25.088,4.704z M17.472,4.704c1.344,0,2.688,1.12,2.688,2.688
				c0,1.567-1.119,2.688-2.688,2.688c-1.569,0-2.688-1.12-2.688-2.688C14.783,5.824,16.128,4.704,17.472,4.704z M10.08,4.704
				c1.344,0,2.688,1.12,2.688,2.688c0,1.567-1.12,2.688-2.688,2.688S7.392,8.96,7.392,7.392S8.736,4.704,10.08,4.704z M63.84,59.359
				c0,2.466-2.017,4.48-4.48,4.48H12.32c-2.464,0-4.479-2.016-4.479-4.48V19.04c0-2.464,2.016-4.479,4.479-4.479h19.04
				c4.48,0,4.48,0.672,4.48-2.24c0-1.792,2.016-4.479,4.479-4.479h19.041c2.465,0,4.479,2.016,4.479,4.479L63.84,59.359
				L63.84,59.359z"/>
			<path d="M57.568,38.752c-1.344-1.568-2.239-2.016-4.256-2.016l-17.248,0.896l0,0l-9.855-6.721l-1.568-3.809h-0.672l0.672,3.584
				l3.584,4.032L28,35.84l1.792,2.239H25.76c-3.136,0.226-2.688-0.672-4.704-3.808l-1.792-2.912h-1.792l1.12,7.392l-3.809-1.791
				H13.44l4.032,2.465l-1.12,0.447v0.226c3.584,1.565,6.944,2.016,10.752,2.465l10.304-0.674l0.447,0.446v0.896l-0.447,0.449v0.449
				l4.257,0.447l0.672-0.447v-2.465l12.097-0.672c0,0,2.912-0.225,3.584-1.121v-0.223l0,0C58.24,39.424,58.016,38.977,57.568,38.752
				z"/>
		</g>
	</g>
</g>
</svg>